OxygenSans-Bold.ufo
<glyph name="dollar" format="1">
  <advance width="1171"/>
  <unicode hex="0024"/>
  <outline>
    <contour>
      <point x="544" y="-18" type="line"/>
      <point x="380" y="-14"/>
      <point x="238" y="25"/>
      <point x="128" y="87" type="curve"/>
      <point x="211" y="303" type="line"/>
      <point x="288" y="253"/>
      <point x="451" y="210"/>
      <point x="583" y="210" type="curve" smooth="yes"/>
      <point x="724" y="210"/>
      <point x="793" y="262"/>
      <point x="793" y="385" type="curve" smooth="yes"/>
      <point x="793" y="464"/>
      <point x="738" y="516"/>
      <point x="641" y="548" type="curve" smooth="yes"/>
      <point x="411" y="623" type="line" smooth="yes"/>
      <point x="249" y="676"/>
      <point x="145" y="796"/>
      <point x="145" y="986" type="curve" smooth="yes"/>
      <point x="145" y="1217"/>
      <point x="310" y="1347"/>
      <point x="544" y="1367" type="curve"/>
      <point x="544" y="1530" type="line"/>
      <point x="663" y="1530" type="line"/>
      <point x="663" y="1369" type="line"/>
      <point x="803" y="1361"/>
      <point x="933" y="1324"/>
      <point x="1041" y="1263" type="curve"/>
      <point x="959" y="1047" type="line"/>
      <point x="867" y="1087"/>
      <point x="740" y="1140"/>
      <point x="621" y="1140" type="curve" smooth="yes"/>
      <point x="488" y="1140"/>
      <point x="414" y="1098"/>
      <point x="414" y="991" type="curve" smooth="yes"/>
      <point x="414" y="926"/>
      <point x="451" y="879"/>
      <point x="512" y="859" type="curve" smooth="yes"/>
      <point x="726" y="787" type="line" smooth="yes"/>
      <point x="961" y="708"/>
      <point x="1066" y="598"/>
      <point x="1066" y="381" type="curve" smooth="yes"/>
      <point x="1066" y="147"/>
      <point x="903" y="13"/>
      <point x="663" y="-13" type="curve"/>
      <point x="663" y="-160" type="line"/>
      <point x="544" y="-160" type="line"/>
    </contour>
  </outline>
</glyph>
<glyph name="percent" format="1">
  <advance width="1738"/>
  <unicode hex="0025"/>
  <outline>
    <contour>
      <point x="1349" y="-13" type="curve" smooth="yes"/>
      <point x="1131" y="-13"/>
      <point x="1015" y="140"/>
      <point x="1015" y="337" type="curve" smooth="yes"/>
      <point x="1015" y="535"/>
      <point x="1134" y="687"/>
      <point x="1349" y="687" type="curve" smooth="yes"/>
      <point x="1568" y="687"/>
      <point x="1684" y="538"/>
      <point x="1684" y="337" type="curve" smooth="yes"/>
      <point x="1684" y="140"/>
      <point x="1565" y="-13"/>
    </contour>
    <contour>
      <point x="1349" y="113" type="curve" smooth="yes"/>
      <point x="1475" y="113"/>
      <point x="1529" y="213"/>
      <point x="1529" y="339" type="curve" smooth="yes"/>
      <point x="1529" y="469"/>
      <point x="1474" y="562"/>
      <point x="1349" y="562" type="curve" smooth="yes"/>
      <point x="1223" y="562"/>
      <point x="1167" y="464"/>
      <point x="1167" y="339" type="curve" smooth="yes"/>
      <point x="1167" y="210"/>
      <point x="1223" y="113"/>
    </contour>
    <contour>
      <point x="388" y="791" type="curve" smooth="yes"/>
      <point x="514" y="791"/>
      <point x="568" y="891"/>
      <point x="568" y="1017" type="curve" smooth="yes"/>
      <point x="568" y="1147"/>
      <point x="513" y="1240"/>
      <point x="388" y="1240" type="curve" smooth="yes"/>
      <point x="262" y="1240"/>
      <point x="206" y="1142"/>
      <point x="206" y="1017" type="curve" smooth="yes"/>
      <point x="206" y="888"/>
      <point x="262" y="791"/>
    </contour>
    <contour>
      <point x="388" y="665" type="curve" smooth="yes"/>
      <point x="170" y="665"/>
      <point x="54" y="818"/>
      <point x="54" y="1015" type="curve" smooth="yes"/>
      <point x="54" y="1213"/>
      <point x="173" y="1365"/>
      <point x="388" y="1365" type="curve" smooth="yes"/>
      <point x="607" y="1365"/>
      <point x="723" y="1216"/>
      <point x="723" y="1015" type="curve" smooth="yes"/>
      <point x="723" y="818"/>
      <point x="604" y="665"/>
    </contour>
    <contour>
      <point x="364" y="0" type="line"/>
      <point x="1150" y="1352" type="line"/>
      <point x="1355" y="1352" type="line"/>
      <point x="577" y="0" type="line"/>
    </contour>
  </outline>
</glyph>
<glyph name="ampersand" format="1">
  <advance width="1331"/>
  <unicode hex="0026"/>
  <outline>
    <contour>
      <point x="587" y="-1" type="curve" smooth="yes"/>
      <point x="344" y="-1"/>
      <point x="115" y="111"/>
      <point x="115" y="389" type="curve" smooth="yes"/>
      <point x="115" y="585"/>
      <point x="256" y="688"/>
      <point x="409" y="772" type="curve"/>
      <point x="341" y="851"/>
      <point x="268" y="936"/>
      <point x="268" y="1052" type="curve" smooth="yes"/>
      <point x="268" y="1263"/>
      <point x="433" y="1359"/>
      <point x="614" y="1359" type="curve" smooth="yes"/>
      <point x="782" y="1359"/>
      <point x="973" y="1275"/>
      <point x="973" y="1068" type="curve" smooth="yes"/>
      <point x="973" y="898"/>
      <point x="835" y="795"/>
      <point x="697" y="725" type="curve"/>
      <point x="989" y="403" type="line"/>
      <point x="1034" y="456"/>
      <point x="1083" y="533"/>
      <point x="1117" y="597" type="curve"/>
      <point x="1286" y="488" type="line"/>
      <point x="1246" y="409"/>
      <point x="1189" y="322"/>
      <point x="1130" y="256" type="curve"/>
      <point x="1319" y="57" type="line"/>
      <point x="1111" y="4" type="line"/>
      <point x="987" y="134" type="line"/>
      <point x="872" y="49"/>
      <point x="733" y="-1"/>
    </contour>
    <contour>
      <point x="592" y="178" type="curve" smooth="yes"/>
      <point x="687" y="178"/>
      <point x="782" y="210"/>
      <point x="854" y="266" type="curve"/>
      <point x="805" y="320"/>
      <point x="569" y="578"/>
      <point x="522" y="630" type="curve"/>
      <point x="422" y="574"/>
      <point x="340" y="518"/>
      <point x="340" y="399" type="curve" smooth="yes"/>
      <point x="340" y="247"/>
      <point x="450" y="178"/>
    </contour>
    <contour>
      <point x="581" y="863" type="curve"/>
      <point x="668" y="911"/>
      <point x="754" y="968"/>
      <point x="754" y="1067" type="curve" smooth="yes"/>
      <point x="754" y="1151"/>
      <point x="698" y="1189"/>
      <point x="621" y="1189" type="curve" smooth="yes"/>
      <point x="538" y="1189"/>
      <point x="483" y="1150"/>
      <point x="483" y="1061" type="curve" smooth="yes"/>
      <point x="483" y="984"/>
      <point x="524" y="924"/>
    </contour>
  </outline>
</glyph>
<glyph name="asterisk" format="1">
  <advance width="1093"/>
  <unicode hex="002A"/>
  <outline>
    <contour>
      <point x="700" y="456" type="line"/>
      <point x="896" y="568" type="line"/>
      <point x="896" y="568"/>
      <point x="721" y="788"/>
      <point x="683" y="836" type="curve"/>
      <point x="990" y="904" type="line"/>
      <point x="929" y="1117" type="line"/>
      <point x="627" y="993" type="line"/>
      <point x="656" y="1336" type="line"/>
      <point x="435" y="1336" type="line"/>
      <point x="466" y="993" type="line"/>
      <point x="167" y="1117" type="line"/>
      <point x="103" y="904" type="line"/>
      <point x="409" y="836" type="line"/>
      <point x="196" y="568" type="line"/>
      <point x="397" y="458" type="line"/>
      <point x="545" y="741" type="line"/>
    </contour>
  </outline>
</glyph>
<glyph name="zero" format="1">
  <advance width="1255"/>
  <unicode hex="0030"/>
  <outline>
    <contour>
      <point x="861" y="425"/>
      <point x="812" y="187"/>
      <point x="627" y="187" type="curve" smooth="yes"/>
      <point x="442" y="187"/>
      <point x="392" y="427"/>
      <point x="392" y="677" type="curve"/>
      <point x="394" y="922"/>
      <point x="444" y="1153"/>
      <point x="627" y="1153" type="curve" smooth="yes"/>
      <point x="812" y="1153"/>
      <point x="861" y="920"/>
      <point x="861" y="674" type="curve" smooth="yes"/>
    </contour>
    <contour>
      <point x="132" y="314"/>
      <point x="259" y="-18"/>
      <point x="627" y="-18" type="curve" smooth="yes"/>
      <point x="996" y="-18"/>
      <point x="1123" y="314"/>
      <point x="1123" y="667" type="curve" smooth="yes"/>
      <point x="1123" y="1025"/>
      <point x="993" y="1357"/>
      <point x="627" y="1357" type="curve" smooth="yes"/>
      <point x="263" y="1357"/>
      <point x="132" y="1028"/>
      <point x="132" y="667" type="curve" smooth="yes"/>
    </contour>
  </outline>
</glyph>
<glyph name="four" format="1">
  <advance width="1246"/>
  <unicode hex="0034"/>
  <outline>
    <contour>
      <point x="722" y="0" type="line"/>
      <point x="976" y="0" type="line"/>
      <point x="976" y="296" type="line"/>
      <point x="1123" y="296" type="line"/>
      <point x="1137" y="498" type="line"/>
      <point x="976" y="498" type="line"/>
      <point x="976" y="1336" type="line"/>
      <point x="666" y="1336" type="line"/>
      <point x="138" y="473" type="line"/>
      <point x="138" y="296" type="line"/>
      <point x="722" y="296" type="line"/>
    </contour>
    <contour>
      <point x="397" y="494" type="line"/>
      <point x="722" y="1055" type="line"/>
      <point x="722" y="494" type="line"/>
    </contour>
  </outline>
</glyph>
<glyph name="five" format="1">
  <advance width="1222"/>
  <unicode hex="0035"/>
  <outline>
    <contour>
      <point x="194" y="91"/>
      <point x="382" y="-18"/>
      <point x="589" y="-18" type="curve" smooth="yes"/>
      <point x="901" y="-18"/>
      <point x="1078" y="165"/>
      <point x="1078" y="428" type="curve" smooth="yes"/>
      <point x="1078" y="679"/>
      <point x="904" y="855"/>
      <point x="648" y="855" type="curve" smooth="yes"/>
      <point x="596" y="855"/>
      <point x="528" y="822"/>
      <point x="478" y="799" type="curve"/>
      <point x="480" y="862"/>
      <point x="500" y="1081"/>
      <point x="502" y="1129" type="curve"/>
      <point x="1011" y="1129" type="line"/>
      <point x="1028" y="1336" type="line"/>
      <point x="264" y="1336" type="line"/>
      <point x="227" y="590" type="line"/>
      <point x="411" y="561" type="line"/>
      <point x="471" y="625"/>
      <point x="542" y="654"/>
      <point x="609" y="654" type="curve" smooth="yes"/>
      <point x="728" y="654"/>
      <point x="814" y="569"/>
      <point x="814" y="430" type="curve" smooth="yes"/>
      <point x="814" y="292"/>
      <point x="737" y="189"/>
      <point x="563" y="189" type="curve" smooth="yes"/>
      <point x="412" y="189"/>
      <point x="276" y="281"/>
      <point x="261" y="292" type="curve"/>
      <point x="172" y="110" type="line"/>
    </contour>
  </outline>
</glyph>
<glyph name="six" format="1">
  <advance width="1256"/>
  <unicode hex="0036"/>
  <outline>
    <contour>
      <point x="628" y="-18" type="curve" smooth="yes"/>
      <point x="906" y="-18"/>
      <point x="1118" y="154"/>
      <point x="1118" y="417" type="curve" smooth="yes"/>
      <point x="1118" y="667"/>
      <point x="925" y="838"/>
      <point x="669" y="838" type="curve" smooth="yes"/>
      <point x="583" y="838"/>
      <point x="495" y="787"/>
      <point x="473" y="781" type="curve"/>
      <point x="521" y="726" type="line"/>
      <point x="678" y="935" type="line"/>
      <point x="982" y="1336" type="line"/>
      <point x="675" y="1336" type="line"/>
      <point x="314" y="853" type="line" smooth="yes"/>
      <point x="216" y="722"/>
      <point x="132" y="598"/>
      <point x="132" y="422" type="curve" smooth="yes"/>
      <point x="132" y="156"/>
      <point x="339" y="-18"/>
    </contour>
    <contour>
      <point x="618" y="180" type="curve" smooth="yes"/>
      <point x="470" y="180"/>
      <point x="393" y="272"/>
      <point x="393" y="411" type="curve" smooth="yes"/>
      <point x="393" y="552"/>
      <point x="456" y="650"/>
      <point x="621" y="650" type="curve" smooth="yes"/>
      <point x="782" y="650"/>
      <point x="854" y="557"/>
      <point x="854" y="413" type="curve" smooth="yes"/>
      <point x="854" y="274"/>
      <point x="770" y="180"/>
    </contour>
  </outline>
</glyph>
<glyph name="seven" format="1">
  <advance width="1057"/>
  <unicode hex="0037"/>
  <outline>
    <contour>
      <point x="241" y="0" type="line"/>
      <point x="523" y="0" type="line"/>
      <point x="949" y="1172" type="line"/>
      <point x="949" y="1336" type="line"/>
      <point x="112" y="1336" type="line"/>
      <point x="100" y="1132" type="line"/>
      <point x="660" y="1132" type="line"/>
    </contour>
  </outline>
</glyph>
<glyph name="eight" format="1">
  <advance width="1261"/>
  <unicode hex="0038"/>
  <outline>
    <contour>
      <point x="633" y="-18" type="curve" smooth="yes"/>
      <point x="880" y="-18"/>
      <point x="1093" y="114"/>
      <point x="1093" y="361" type="curve" smooth="yes"/>
      <point x="1093" y="525"/>
      <point x="1011" y="640"/>
      <point x="890" y="705" type="curve"/>
      <point x="996" y="766"/>
      <point x="1069" y="862"/>
      <point x="1069" y="1011" type="curve" smooth="yes"/>
      <point x="1069" y="1243"/>
      <point x="872" y="1357"/>
      <point x="632" y="1357" type="curve" smooth="yes"/>
      <point x="394" y="1357"/>
      <point x="193" y="1243"/>
      <point x="193" y="1011" type="curve" smooth="yes"/>
      <point x="193" y="859"/>
      <point x="274" y="764"/>
      <point x="385" y="705" type="curve"/>
      <point x="256" y="641"/>
      <point x="168" y="527"/>
      <point x="168" y="362" type="curve" smooth="yes"/>
      <point x="168" y="116"/>
      <point x="384" y="-18"/>
    </contour>
    <contour>
      <point x="633" y="154" type="curve" smooth="yes"/>
      <point x="491" y="154"/>
      <point x="407" y="230"/>
      <point x="407" y="355" type="curve" smooth="yes"/>
      <point x="407" y="488"/>
      <point x="503" y="573"/>
      <point x="633" y="608" type="curve"/>
      <point x="762" y="573"/>
      <point x="857" y="487"/>
      <point x="857" y="356" type="curve" smooth="yes"/>
      <point x="857" y="230"/>
      <point x="776" y="154"/>
    </contour>
    <contour>
      <point x="633" y="775" type="curve"/>
      <point x="500" y="806"/>
      <point x="418" y="885"/>
      <point x="418" y="1010" type="curve" smooth="yes"/>
      <point x="418" y="1112"/>
      <point x="510" y="1178"/>
      <point x="633" y="1178" type="curve" smooth="yes"/>
      <point x="756" y="1178"/>
      <point x="845" y="1112"/>
      <point x="845" y="1010" type="curve" smooth="yes"/>
      <point x="845" y="885"/>
      <point x="765" y="806"/>
    </contour>
  </outline>
</glyph>
<glyph name="nine" format="1">
  <advance width="1221"/>
  <unicode hex="0039"/>
  <outline>
    <contour>
      <point x="257" y="0" type="line"/>
      <point x="570" y="0" type="line"/>
      <point x="570" y="0"/>
      <point x="918" y="469"/>
      <point x="939" y="497" type="curve" smooth="yes"/>
      <point x="1028" y="620"/>
      <point x="1109" y="744"/>
      <point x="1109" y="916" type="curve" smooth="yes"/>
      <point x="1109" y="1184"/>
      <point x="902" y="1357"/>
      <point x="613" y="1357" type="curve" smooth="yes"/>
      <point x="334" y="1357"/>
      <point x="123" y="1184"/>
      <point x="123" y="918" type="curve" smooth="yes"/>
      <point x="123" y="665"/>
      <point x="315" y="496"/>
      <point x="571" y="496" type="curve" smooth="yes"/>
      <point x="639" y="496"/>
      <point x="750" y="543"/>
      <point x="769" y="554" type="curve"/>
      <point x="719" y="601" type="line"/>
      <point x="589" y="432" type="line"/>
    </contour>
    <contour>
      <point x="621" y="681" type="curve" smooth="yes"/>
      <point x="460" y="681"/>
      <point x="386" y="777"/>
      <point x="386" y="924" type="curve" smooth="yes"/>
      <point x="386" y="1065"/>
      <point x="473" y="1160"/>
      <point x="625" y="1160" type="curve" smooth="yes"/>
      <point x="773" y="1160"/>
      <point x="849" y="1068"/>
      <point x="849" y="928" type="curve" smooth="yes"/>
      <point x="849" y="783"/>
      <point x="785" y="681"/>
    </contour>
  </outline>
</glyph>
<glyph name="question" format="1">
  <advance width="969"/>
  <unicode hex="003F"/>
  <outline>
    <contour>
      <point x="515" y="423" type="line"/>
      <point x="648" y="691"/>
      <point x="852" y="830"/>
      <point x="852" y="1050" type="curve" smooth="yes"/>
      <point x="852" y="1265"/>
      <point x="663" y="1363"/>
      <point x="501" y="1363" type="curve" smooth="yes"/>
      <point x="355" y="1363"/>
      <point x="255" y="1327"/>
      <point x="165" y="1267" type="curve"/>
      <point x="237" y="1103" type="line"/>
      <point x="289" y="1135"/>
      <point x="362" y="1177"/>
      <point x="477" y="1177" type="curve" smooth="yes"/>
      <point x="584" y="1177"/>
      <point x="646" y="1116"/>
      <point x="647" y="1019" type="curve"/>
      <point x="647" y="861"/>
      <point x="436" y="688"/>
      <point x="403" y="429" type="curve"/>
    </contour>
    <contour>
      <point x="311" y="60"/>
      <point x="377" y="-7"/>
      <point x="458" y="-7" type="curve" smooth="yes"/>
      <point x="538" y="-7"/>
      <point x="598" y="61"/>
      <point x="598" y="139" type="curve" smooth="yes"/>
      <point x="598" y="218"/>
      <point x="538" y="286"/>
      <point x="458" y="286" type="curve" smooth="yes"/>
      <point x="376" y="286"/>
      <point x="311" y="218"/>
      <point x="311" y="139" type="curve" smooth="yes"/>
    </contour>
  </outline>
</glyph>
<glyph name="at" format="1">
  <advance width="1742"/>
  <unicode hex="0040"/>
  <outline>
    <contour>
      <point x="855" y="-119" type="curve" smooth="yes"/>
      <point x="1026" y="-119"/>
      <point x="1210" y="-80"/>
      <point x="1325" y="-3" type="curve"/>
      <point x="1283" y="118" type="line"/>
      <point x="1164" y="50"/>
      <point x="1003" y="15"/>
      <point x="856" y="15" type="curve" smooth="yes"/>
      <point x="481" y="15"/>
      <point x="300" y="298"/>
      <point x="300" y="590" type="curve" smooth="yes"/>
      <point x="300" y="902"/>
      <point x="507" y="1225"/>
      <point x="907" y="1225" type="curve" smooth="yes"/>
      <point x="1317" y="1225"/>
      <point x="1461" y="960"/>
      <point x="1461" y="721" type="curve" smooth="yes"/>
      <point x="1461" y="465"/>
      <point x="1352" y="368"/>
      <point x="1266" y="368" type="curve" smooth="yes"/>
      <point x="1209" y="368"/>
      <point x="1162" y="410"/>
      <point x="1162" y="476" type="curve" smooth="yes"/>
      <point x="1162" y="586"/>
      <point x="1196" y="750"/>
      <point x="1221" y="930" type="curve"/>
      <point x="1144" y="975"/>
      <point x="1004" y="1000"/>
      <point x="918" y="1000" type="curve" smooth="yes"/>
      <point x="659" y="1000"/>
      <point x="514" y="763"/>
      <point x="514" y="554" type="curve" smooth="yes"/>
      <point x="514" y="390"/>
      <point x="603" y="244"/>
      <point x="796" y="244" type="curve" smooth="yes"/>
      <point x="962" y="244"/>
      <point x="1047" y="401"/>
      <point x="1071" y="490" type="curve"/>
      <point x="1037" y="490" type="line"/>
      <point x="1050" y="359"/>
      <point x="1126" y="243"/>
      <point x="1265" y="243" type="curve" smooth="yes"/>
      <point x="1420" y="243"/>
      <point x="1610" y="400"/>
      <point x="1610" y="713" type="curve" smooth="yes"/>
      <point x="1610" y="1106"/>
      <point x="1304" y="1358"/>
      <point x="915" y="1358" type="curve" smooth="yes"/>
      <point x="466" y="1358"/>
      <point x="132" y="1034"/>
      <point x="132" y="596" type="curve" smooth="yes"/>
      <point x="132" y="157"/>
      <point x="434" y="-119"/>
    </contour>
    <contour>
      <point x="813" y="360" type="curve" smooth="yes"/>
      <point x="718" y="360"/>
      <point x="675" y="446"/>
      <point x="675" y="549" type="curve" smooth="yes"/>
      <point x="675" y="723"/>
      <point x="776" y="890"/>
      <point x="942" y="890" type="curve" smooth="yes"/>
      <point x="993" y="890"/>
      <point x="1066" y="874"/>
      <point x="1101" y="862" type="curve"/>
      <point x="1063" y="933" type="line"/>
      <point x="1016" y="664" type="line" smooth="yes"/>
      <point x="985" y="489"/>
      <point x="949" y="360"/>
    </contour>
  </outline>
</glyph>
<glyph name="A" format="1">
  <advance width="1407"/>
  <unicode hex="0041"/>
  <outline>
    <contour>
      <point x="48" y="0" type="line"/>
      <point x="347" y="0" type="line"/>
      <point x="497" y="433" type="line"/>
      <point x="404" y="365" type="line"/>
      <point x="1002" y="365" type="line"/>
      <point x="906" y="429" type="line"/>
      <point x="1063" y="0" type="line"/>
      <point x="1359" y="0" type="line"/>
      <point x="882" y="1352" type="line"/>
      <point x="527" y="1352" type="line"/>
    </contour>
    <contour>
      <point x="507" y="473" type="line"/>
      <point x="730" y="1178" type="line"/>
      <point x="686" y="1178" type="line"/>
      <point x="895" y="474" type="line"/>
      <point x="945" y="555" type="line"/>
      <point x="458" y="555" type="line"/>
    </contour>
  </outline>
</glyph>
<glyph name="B" format="1">
  <advance width="1293"/>
  <unicode hex="0042"/>
  <outline>
    <contour>
      <point x="156" y="0" type="line"/>
      <point x="705" y="0" type="line" smooth="yes"/>
      <point x="1006" y="0"/>
      <point x="1203" y="138"/>
      <point x="1203" y="398" type="curve" smooth="yes"/>
      <point x="1203" y="606"/>
      <point x="1059" y="708"/>
      <point x="896" y="754" type="curve"/>
      <point x="896" y="692" type="line"/>
      <point x="1063" y="758"/>
      <point x="1155" y="862"/>
      <point x="1155" y="1012" type="curve" smooth="yes"/>
      <point x="1155" y="1266"/>
      <point x="966" y="1352"/>
      <point x="636" y="1352" type="curve" smooth="yes"/>
      <point x="156" y="1352" type="line"/>
    </contour>
    <contour>
      <point x="384" y="216" type="line"/>
      <point x="444" y="153" type="line"/>
      <point x="444" y="690" type="line"/>
      <point x="384" y="616" type="line"/>
      <point x="647" y="616" type="line" smooth="yes"/>
      <point x="832" y="616"/>
      <point x="915" y="559"/>
      <point x="915" y="417" type="curve" smooth="yes"/>
      <point x="915" y="275"/>
      <point x="830" y="216"/>
      <point x="653" y="216" type="curve" smooth="yes"/>
    </contour>
    <contour>
      <point x="384" y="805" type="line"/>
      <point x="444" y="749" type="line"/>
      <point x="444" y="1203" type="line"/>
      <point x="384" y="1142" type="line"/>
      <point x="602" y="1142" type="line" smooth="yes"/>
      <point x="788" y="1142"/>
      <point x="875" y="1109"/>
      <point x="875" y="972" type="curve" smooth="yes"/>
      <point x="875" y="850"/>
      <point x="801" y="805"/>
      <point x="650" y="805" type="curve" smooth="yes"/>
    </contour>
  </outline>
</glyph>
<glyph name="C" format="1">
  <advance width="1236"/>
  <unicode hex="0043"/>
  <outline>
    <contour>
      <point x="772" y="-18" type="curve" smooth="yes"/>
      <point x="891" y="-18"/>
      <point x="1046" y="10"/>
      <point x="1161" y="63" type="curve"/>
      <point x="1108" y="278" type="line"/>
      <point x="1029" y="241"/>
      <point x="896" y="214"/>
      <point x="800" y="214" type="curve" smooth="yes"/>
      <point x="595" y="214"/>
      <point x="396" y="327"/>
      <point x="396" y="678" type="curve" smooth="yes"/>
      <point x="396" y="1017"/>
      <point x="592" y="1142"/>
      <point x="793" y="1142" type="curve" smooth="yes"/>
      <point x="892" y="1142"/>
      <point x="1003" y="1115"/>
      <point x="1088" y="1068" type="curve"/>
      <point x="1164" y="1262" type="line"/>
      <point x="1055" y="1331"/>
      <point x="916" y="1370"/>
      <point x="775" y="1370" type="curve" smooth="yes"/>
      <point x="436" y="1370"/>
      <point x="108" y="1163"/>
      <point x="108" y="681" type="curve" smooth="yes"/>
      <point x="108" y="205"/>
      <point x="403" y="-18"/>
    </contour>
  </outline>
</glyph>
<glyph name="D" format="1">
  <advance width="1455"/>
  <unicode hex="0044"/>
  <outline>
    <contour>
      <point x="444" y="141" type="line"/>
      <point x="444" y="1210" type="line"/>
      <point x="376" y="1142" type="line"/>
      <point x="584" y="1142" type="line" smooth="yes"/>
      <point x="892" y="1142"/>
      <point x="1060" y="999"/>
      <point x="1060" y="678" type="curve" smooth="yes"/>
      <point x="1060" y="384"/>
      <point x="900" y="216"/>
      <point x="610" y="216" type="curve" smooth="yes"/>
      <point x="377" y="216" type="line"/>
    </contour>
    <contour>
      <point x="156" y="0" type="line"/>
      <point x="596" y="0" type="line" smooth="yes"/>
      <point x="1039" y="0"/>
      <point x="1347" y="245"/>
      <point x="1347" y="683" type="curve" smooth="yes"/>
      <point x="1347" y="1137"/>
      <point x="1022" y="1352"/>
      <point x="573" y="1352" type="curve" smooth="yes"/>
      <point x="156" y="1352" type="line"/>
    </contour>
  </outline>
</glyph>
<glyph name="E" format="1">
  <advance width="1174"/>
  <unicode hex="0045"/>
  <outline>
    <contour>
      <point x="156" y="0" type="line"/>
      <point x="1036" y="0" type="line"/>
      <point x="1053" y="216" type="line"/>
      <point x="369" y="216" type="line"/>
      <point x="444" y="143" type="line"/>
      <point x="444" y="686" type="line"/>
      <point x="368" y="605" type="line"/>
      <point x="1005" y="605" type="line"/>
      <point x="1005" y="815" type="line"/>
      <point x="369" y="815" type="line"/>
      <point x="444" y="741" type="line"/>
      <point x="444" y="1218" type="line"/>
      <point x="368" y="1142" type="line"/>
      <point x="1032" y="1142" type="line"/>
      <point x="1043" y="1352" type="line"/>
      <point x="156" y="1352" type="line"/>
    </contour>
  </outline>
</glyph>
<glyph name="F" format="1">
  <advance width="1108"/>
  <unicode hex="0046"/>
  <outline>
    <contour>
      <point x="156" y="0" type="line"/>
      <point x="444" y="0" type="line"/>
      <point x="444" y="668" type="line"/>
      <point x="348" y="572" type="line"/>
      <point x="999" y="572" type="line"/>
      <point x="999" y="781" type="line"/>
      <point x="344" y="781" type="line"/>
      <point x="444" y="706" type="line"/>
      <point x="444" y="1220" type="line"/>
      <point x="339" y="1132" type="line"/>
      <point x="1055" y="1132" type="line"/>
      <point x="1067" y="1352" type="line"/>
      <point x="156" y="1352" type="line"/>
    </contour>
  </outline>
</glyph>
<glyph name="G" format="1">
  <advance width="1373"/>
  <unicode hex="0047"/>
  <outline>
    <contour>
      <point x="110" y="248"/>
      <point x="356" y="-18"/>
      <point x="756" y="-18" type="curve" smooth="yes"/>
      <point x="939" y="-18"/>
      <point x="1088" y="17"/>
      <point x="1236" y="82" type="curve"/>
      <point x="1236" y="727" type="line"/>
      <point x="703" y="727" type="line"/>
      <point x="703" y="519" type="line"/>
      <point x="1057" y="519" type="line"/>
      <point x="989" y="587" type="line"/>
      <point x="989" y="159" type="line"/>
      <point x="1067" y="287" type="line"/>
      <point x="1006" y="254"/>
      <point x="955" y="213"/>
      <point x="767" y="213" type="curve" smooth="yes"/>
      <point x="512" y="213"/>
      <point x="398" y="383"/>
      <point x="398" y="670" type="curve" smooth="yes"/>
      <point x="398" y="964"/>
      <point x="525" y="1139"/>
      <point x="787" y="1129" type="curve" smooth="yes"/>
      <point x="911" y="1124"/>
      <point x="1032" y="1090"/>
      <point x="1129" y="1042" type="curve"/>
      <point x="1218" y="1253" type="line"/>
      <point x="1090" y="1317"/>
      <point x="946" y="1357"/>
      <point x="782" y="1357" type="curve" smooth="yes"/>
      <point x="360" y="1357"/>
      <point x="110" y="1105"/>
      <point x="110" y="672" type="curve" smooth="yes"/>
    </contour>
    <contour>
      <point x="691" y="0" type="move" name="top"/>
    </contour>
    <contour>
      <point x="691" y="0" type="move" name="bottom"/>
    </contour>
  </outline>
</glyph>
<glyph name="H" format="1">
  <advance width="1455"/>
  <unicode hex="0048"/>
  <outline>
    <contour>
      <point x="156" y="0" type="line"/>
      <point x="444" y="0" type="line"/>
      <point x="444" y="666" type="line"/>
      <point x="365" y="588" type="line"/>
      <point x="1092" y="588" type="line"/>
      <point x="1011" y="666" type="line"/>
      <point x="1011" y="0" type="line"/>
      <point x="1299" y="0" type="line"/>
      <point x="1299" y="1352" type="line"/>
      <point x="1011" y="1352" type="line"/>
      <point x="1011" y="725" type="line"/>
      <point x="1086" y="803" type="line"/>
      <point x="364" y="803" type="line"/>
      <point x="444" y="725" type="line"/>
      <point x="444" y="1352" type="line"/>
      <point x="156" y="1352" type="line"/>
    </contour>
  </outline>
</glyph>
<glyph name="I" format="1">
  <advance width="836"/>
  <unicode hex="0049"/>
  <outline>
    <contour>
      <point x="120" y="1352" type="line"/>
      <point x="120" y="1182" type="line"/>
      <point x="353" y="1182" type="line"/>
      <point x="276" y="1241" type="line"/>
      <point x="276" y="107" type="line"/>
      <point x="352" y="170" type="line"/>
      <point x="120" y="170" type="line"/>
      <point x="120" y="0" type="line"/>
      <point x="716" y="0" type="line"/>
      <point x="716" y="170" type="line"/>
      <point x="478" y="170" type="line"/>
      <point x="564" y="106" type="line"/>
      <point x="564" y="1244" type="line"/>
      <point x="478" y="1182" type="line"/>
      <point x="716" y="1182" type="line"/>
      <point x="716" y="1352" type="line"/>
    </contour>
  </outline>
</glyph>
<glyph name="J" format="1">
  <advance width="847"/>
  <unicode hex="004A"/>
  <outline>
    <contour>
      <point x="222" y="-222" type="line" smooth="yes"/>
      <point x="498" y="-222"/>
      <point x="691" y="-14"/>
      <point x="691" y="301" type="curve" smooth="yes"/>
      <point x="691" y="1352" type="line"/>
      <point x="403" y="1352" type="line"/>
      <point x="403" y="293" type="line" smooth="yes"/>
      <point x="403" y="190"/>
      <point x="347" y="7"/>
      <point x="183" y="7" type="curve" smooth="yes"/>
      <point x="22" y="7" type="line"/>
      <point x="22" y="-222" type="line"/>
    </contour>
  </outline>
</glyph>
<glyph name="K" format="1">
  <advance width="1330"/>
  <unicode hex="004B"/>
  <outline>
    <contour>
      <point x="156" y="0" type="line"/>
      <point x="444" y="0" type="line"/>
      <point x="444" y="605" type="line"/>
      <point x="392" y="473" type="line"/>
      <point x="625" y="670" type="line"/>
      <point x="520" y="682" type="line"/>
      <point x="994" y="0" type="line"/>
      <point x="1325" y="0" type="line"/>
      <point x="731" y="823" type="line"/>
      <point x="731" y="677" type="line"/>
      <point x="1293" y="1352" type="line"/>
      <point x="961" y="1352" type="line"/>
      <point x="380" y="683" type="line"/>
      <point x="444" y="674" type="line"/>
      <point x="444" y="1352" type="line"/>
      <point x="156" y="1352" type="line"/>
    </contour>
  </outline>
</glyph>
<glyph name="L" format="1">
  <advance width="1090"/>
  <unicode hex="004C"/>
  <outline>
    <contour>
      <point x="156" y="0" type="line"/>
      <point x="1035" y="0" type="line"/>
      <point x="1049" y="216" type="line"/>
      <point x="350" y="216" type="line"/>
      <point x="444" y="122" type="line"/>
      <point x="444" y="1352" type="line"/>
      <point x="156" y="1352" type="line"/>
    </contour>
  </outline>
</glyph>
<glyph name="N" format="1">
  <advance width="1500"/>
  <unicode hex="004E"/>
  <outline>
    <contour>
      <point x="156" y="0" type="line"/>
      <point x="441" y="0" type="line"/>
      <point x="441" y="409" type="line"/>
      <point x="417" y="1066" type="line"/>
      <point x="360" y="1066" type="line"/>
      <point x="1026" y="0" type="line"/>
      <point x="1344" y="0" type="line"/>
      <point x="1344" y="1352" type="line"/>
      <point x="1059" y="1352" type="line"/>
      <point x="1059" y="811" type="line"/>
      <point x="1079" y="271" type="line"/>
      <point x="1129" y="271" type="line"/>
      <point x="463" y="1352" type="line"/>
      <point x="156" y="1352" type="line"/>
    </contour>
  </outline>
</glyph>
<glyph name="O" format="1">
  <advance width="1558"/>
  <unicode hex="004F"/>
  <outline>
    <contour>
      <point x="780" y="210" type="curve" smooth="yes"/>
      <point x="552" y="210"/>
      <point x="396" y="399"/>
      <point x="396" y="673" type="curve" smooth="yes"/>
      <point x="396" y="952"/>
      <point x="553" y="1140"/>
      <point x="780" y="1140" type="curve" smooth="yes"/>
      <point x="1007" y="1140"/>
      <point x="1162" y="952"/>
      <point x="1162" y="673" type="curve" smooth="yes"/>
      <point x="1162" y="399"/>
      <point x="1008" y="210"/>
    </contour>
    <contour>
      <point x="780" y="-18" type="curve" smooth="yes"/>
      <point x="1173" y="-18"/>
      <point x="1450" y="243"/>
      <point x="1450" y="675" type="curve" smooth="yes"/>
      <point x="1450" y="1111"/>
      <point x="1171" y="1370"/>
      <point x="780" y="1370" type="curve" smooth="yes"/>
      <point x="389" y="1370"/>
      <point x="108" y="1111"/>
      <point x="108" y="675" type="curve" smooth="yes"/>
      <point x="108" y="243"/>
      <point x="387" y="-18"/>
    </contour>
  </outline>
</glyph>
<glyph name="P" format="1">
  <advance width="1257"/>
  <unicode hex="0050"/>
  <outline>
    <contour>
      <point x="156" y="0" type="line"/>
      <point x="444" y="0" type="line"/>
      <point x="444" y="668" type="line"/>
      <point x="378" y="589" type="line"/>
      <point x="680" y="589" type="line" smooth="yes"/>
      <point x="1069" y="589"/>
      <point x="1201" y="750"/>
      <point x="1201" y="992" type="curve" smooth="yes"/>
      <point x="1201" y="1278"/>
      <point x="979" y="1352"/>
      <point x="680" y="1352" type="curve" smooth="yes"/>
      <point x="156" y="1352" type="line"/>
    </contour>
    <contour>
      <point x="654" y="808" type="curve" smooth="yes"/>
      <point x="381" y="808" type="line"/>
      <point x="444" y="737" type="line"/>
      <point x="444" y="1204" type="line"/>
      <point x="381" y="1142" type="line"/>
      <point x="681" y="1142" type="line" smooth="yes"/>
      <point x="842" y="1142"/>
      <point x="913" y="1101"/>
      <point x="913" y="984" type="curve" smooth="yes"/>
      <point x="913" y="871"/>
      <point x="866" y="808"/>
    </contour>
  </outline>
</glyph>
<glyph name="Q" format="1">
  <advance width="1558"/>
  <unicode hex="0051"/>
  <outline>
    <contour>
      <point x="1160" y="-460" type="curve"/>
      <point x="1329" y="-313" type="line"/>
      <point x="1218" y="-202"/>
      <point x="1122" y="-32"/>
      <point x="1077" y="43" type="curve"/>
      <point x="838" y="-16" type="line"/>
      <point x="915" y="-158"/>
      <point x="1050" y="-382"/>
    </contour>
    <component base="O"/>
  </outline>
</glyph>
<glyph name="R" format="1">
  <advance width="1324"/>
  <unicode hex="0052"/>
  <outline>
    <contour>
      <point x="156" y="0" type="line"/>
      <point x="444" y="0" type="line"/>
      <point x="444" y="591" type="line"/>
      <point x="380" y="543" type="line"/>
      <point x="808" y="553" type="line"/>
      <point x="692" y="607" type="line"/>
      <point x="806" y="331" type="line"/>
      <point x="950" y="0" type="line"/>
      <point x="1253" y="0" type="line"/>
      <point x="1075" y="391" type="line"/>
      <point x="940" y="681" type="line"/>
      <point x="920" y="572" type="line"/>
      <point x="1069" y="625"/>
      <point x="1203" y="707"/>
      <point x="1203" y="947" type="curve" smooth="yes"/>
      <point x="1203" y="1258"/>
      <point x="994" y="1336"/>
      <point x="688" y="1336" type="curve" smooth="yes"/>
      <point x="156" y="1336" type="line"/>
    </contour>
    <contour>
      <point x="444.0" y="675.0" type="line"/>
      <point x="444.0" y="1187.0" type="line"/>
      <point x="384.0" y="1126.0" type="line"/>
      <point x="701" y="1126" type="line" smooth="yes"/>
      <point x="865" y="1126"/>
      <point x="915.0" y="1064.0"/>
      <point x="915.0" y="943.0" type="curve" smooth="yes"/>
      <point x="915.0" y="804.0"/>
      <point x="872" y="742"/>
      <point x="691" y="742" type="curve" smooth="yes"/>
      <point x="378.0" y="742.0" type="line"/>
    </contour>
    <contour>
      <point x="659.0" y="0.0" type="move" name="top"/>
    </contour>
    <contour>
      <point x="659.0" y="0.0" type="move" name="bottom"/>
    </contour>
  </outline>
</glyph>
<glyph name="S" format="1">
  <advance width="1171"/>
  <unicode hex="0053"/>
  <outline>
    <contour>
      <point x="573" y="-18" type="curve" smooth="yes"/>
      <point x="862" y="-18"/>
      <point x="1066" y="119"/>
      <point x="1066" y="381" type="curve" smooth="yes"/>
      <point x="1066" y="598"/>
      <point x="961" y="708"/>
      <point x="726" y="787" type="curve" smooth="yes"/>
      <point x="512" y="859" type="line" smooth="yes"/>
      <point x="451" y="879"/>
      <point x="414" y="926"/>
      <point x="414" y="991" type="curve" smooth="yes"/>
      <point x="414" y="1098"/>
      <point x="488" y="1140"/>
      <point x="621" y="1140" type="curve" smooth="yes"/>
      <point x="740" y="1140"/>
      <point x="867" y="1087"/>
      <point x="959" y="1047" type="curve"/>
      <point x="1041" y="1263" type="line"/>
      <point x="920" y="1332"/>
      <point x="770" y="1370"/>
      <point x="610" y="1370" type="curve" smooth="yes"/>
      <point x="342" y="1370"/>
      <point x="145" y="1238"/>
      <point x="145" y="986" type="curve" smooth="yes"/>
      <point x="145" y="796"/>
      <point x="249" y="676"/>
      <point x="411" y="623" type="curve" smooth="yes"/>
      <point x="641" y="548" type="line" smooth="yes"/>
      <point x="738" y="516"/>
      <point x="793" y="464"/>
      <point x="793" y="385" type="curve" smooth="yes"/>
      <point x="793" y="262"/>
      <point x="724" y="210"/>
      <point x="583" y="210" type="curve" smooth="yes"/>
      <point x="451" y="210"/>
      <point x="288" y="253"/>
      <point x="211" y="303" type="curve"/>
      <point x="128" y="87" type="line"/>
      <point x="244" y="21"/>
      <point x="397" y="-18"/>
    </contour>
  </outline>
</glyph>
<glyph name="T" format="1">
  <advance width="1146"/>
  <unicode hex="0054"/>
  <outline>
    <contour>
      <point x="429" y="0" type="line"/>
      <point x="717" y="0" type="line"/>
      <point x="717" y="1214" type="line"/>
      <point x="644" y="1122" type="line"/>
      <point x="1098" y="1122" type="line"/>
      <point x="1098" y="1352" type="line"/>
      <point x="48" y="1352" type="line"/>
      <point x="48" y="1122" type="line"/>
      <point x="502" y="1122" type="line"/>
      <point x="429" y="1215" type="line"/>
    </contour>
  </outline>
</glyph>
<glyph name="U" format="1">
  <advance width="1428"/>
  <unicode hex="0055"/>
  <outline>
    <contour>
      <point x="714" y="-18" type="curve" smooth="yes"/>
      <point x="1061" y="-18"/>
      <point x="1284" y="172"/>
      <point x="1284" y="484" type="curve" smooth="yes"/>
      <point x="1284" y="1352" type="line"/>
      <point x="996" y="1352" type="line"/>
      <point x="996" y="505" type="line" smooth="yes"/>
      <point x="996" y="310"/>
      <point x="896" y="213"/>
      <point x="714" y="213" type="curve" smooth="yes"/>
      <point x="538" y="213"/>
      <point x="432" y="309"/>
      <point x="432" y="504" type="curve" smooth="yes"/>
      <point x="432" y="1352" type="line"/>
      <point x="144" y="1352" type="line"/>
      <point x="144" y="485" type="line" smooth="yes"/>
      <point x="144" y="170"/>
      <point x="366" y="-18"/>
    </contour>
  </outline>
</glyph>
<glyph name="W" format="1">
  <advance width="1906"/>
  <unicode hex="0057"/>
  <outline>
    <contour>
      <point x="398" y="0" type="line"/>
      <point x="668" y="0" type="line"/>
      <point x="978" y="1040" type="line"/>
      <point x="933" y="1040" type="line"/>
      <point x="1219" y="0" type="line"/>
      <point x="1491" y="0" type="line"/>
      <point x="1874" y="1352" type="line"/>
      <point x="1593" y="1352" type="line"/>
      <point x="1332" y="308" type="line"/>
      <point x="1367" y="308" type="line"/>
      <point x="1083" y="1346" type="line"/>
      <point x="824" y="1346" type="line"/>
      <point x="523" y="308" type="line"/>
      <point x="561" y="308" type="line"/>
      <point x="314" y="1352" type="line"/>
      <point x="32" y="1352" type="line"/>
    </contour>
  </outline>
</glyph>
<glyph name="X" format="1">
  <advance width="1316"/>
  <unicode hex="0058"/>
  <outline>
    <contour>
      <point x="40" y="0" type="line"/>
      <point x="336" y="0" type="line"/>
      <point x="674" y="476" type="line"/>
      <point x="808" y="652" type="line"/>
      <point x="1254" y="1336" type="line"/>
      <point x="963" y="1336" type="line"/>
      <point x="666" y="880" type="line"/>
      <point x="519" y="707" type="line"/>
    </contour>
    <contour>
      <point x="964" y="0" type="line"/>
      <point x="1276" y="0" type="line"/>
      <point x="377" y="1336" type="line"/>
      <point x="72" y="1336" type="line"/>
    </contour>
  </outline>
</glyph>
<glyph name="Y" format="1">
  <advance width="1257"/>
  <unicode hex="0059"/>
  <outline>
    <contour>
      <point x="487" y="0" type="line"/>
      <point x="769" y="0" type="line"/>
      <point x="769" y="620" type="line"/>
      <point x="715" y="413" type="line"/>
      <point x="1213" y="1352" type="line"/>
      <point x="915" y="1352" type="line"/>
      <point x="583" y="674" type="line"/>
      <point x="668" y="674" type="line"/>
      <point x="347" y="1352" type="line"/>
      <point x="44" y="1352" type="line"/>
      <point x="547" y="398" type="line"/>
      <point x="487" y="614" type="line"/>
    </contour>
  </outline>
</glyph>
<glyph name="Z" format="1">
  <advance width="1198"/>
  <unicode hex="005A"/>
  <outline>
    <contour>
      <point x="146" y="0" type="line"/>
      <point x="1084" y="0" type="line"/>
      <point x="1084" y="216" type="line"/>
      <point x="429" y="216" type="line"/>
      <point x="466" y="133" type="line"/>
      <point x="1075" y="1166" type="line"/>
      <point x="1075" y="1352" type="line"/>
      <point x="153" y="1352" type="line"/>
      <point x="153" y="1142" type="line"/>
      <point x="830" y="1142" type="line"/>
      <point x="787" y="1228" type="line"/>
      <point x="146" y="172" type="line"/>
    </contour>
  </outline>
</glyph>
<glyph name="bracketleft" format="1">
  <advance width="756"/>
  <unicode hex="005B"/>
  <outline>
    <contour>
      <point x="198" y="-108" type="line"/>
      <point x="630" y="-108" type="line"/>
      <point x="630" y="73" type="line"/>
      <point x="443" y="73" type="line"/>
      <point x="443" y="1254" type="line"/>
      <point x="630" y="1254" type="line"/>
      <point x="630" y="1434" type="line"/>
      <point x="198" y="1434" type="line"/>
    </contour>
  </outline>
</glyph>
<glyph name="backslash" format="1">
  <advance width="843"/>
  <unicode hex="005C"/>
  <outline>
    <contour>
      <point x="539" y="0" type="line"/>
      <point x="98" y="1336" type="line"/>
      <point x="329" y="1336" type="line"/>
      <point x="765" y="0" type="line"/>
    </contour>
  </outline>
</glyph>
<glyph name="bracketright" format="1">
  <advance width="756"/>
  <unicode hex="005D"/>
  <outline>
    <contour>
      <point x="126" y="-108" type="line"/>
      <point x="558" y="-108" type="line"/>
      <point x="558" y="1434" type="line"/>
      <point x="126" y="1434" type="line"/>
      <point x="126" y="1253" type="line"/>
      <point x="313" y="1253" type="line"/>
      <point x="313" y="72" type="line"/>
      <point x="126" y="72" type="line"/>
    </contour>
  </outline>
</glyph>
<glyph name="asciicircum" format="1">
  <advance width="1081"/>
  <unicode hex="005E"/>
  <outline>
    <contour>
      <point x="46" y="491" type="line"/>
      <point x="255" y="491" type="line"/>
      <point x="529" y="1075" type="line"/>
      <point x="826" y="491" type="line"/>
      <point x="1035" y="491" type="line"/>
      <point x="590" y="1347" type="line"/>
      <point x="465" y="1347" type="line"/>
    </contour>
  </outline>
</glyph>
<glyph name="underscore" format="1">
  <advance width="1012"/>
  <unicode hex="005F"/>
  <outline>
    <contour>
      <point x="49" y="-175" type="line"/>
      <point x="963" y="-175" type="line"/>
      <point x="963" y="0" type="line"/>
      <point x="49" y="0" type="line"/>
    </contour>
  </outline>
</glyph>
<glyph name="a" format="1">
  <advance width="1054"/>
  <unicode hex="0061"/>
  <outline>
    <contour>
      <point x="415" y="-18" type="curve" smooth="yes"/>
      <point x="558" y="-18"/>
      <point x="688" y="56"/>
      <point x="751" y="149" type="curve"/>
      <point x="700" y="185" type="line"/>
      <point x="746" y="0" type="line"/>
      <point x="936" y="0" type="line"/>
      <point x="936" y="660" type="line" smooth="yes"/>
      <point x="936" y="934"/>
      <point x="764" y="1040"/>
      <point x="530" y="1040" type="curve" smooth="yes"/>
      <point x="410" y="1040"/>
      <point x="268" y="1013"/>
      <point x="131" y="957" type="curve"/>
      <point x="183" y="786" type="line"/>
      <point x="288" y="823"/>
      <point x="402" y="851"/>
      <point x="493" y="851" type="curve" smooth="yes"/>
      <point x="604" y="851"/>
      <point x="681" y="809"/>
      <point x="681" y="689" type="curve"/>
      <point x="681" y="603" type="line"/>
      <point x="721" y="641" type="line"/>
      <point x="501" y="623" type="line" smooth="yes"/>
      <point x="248" y="602"/>
      <point x="96" y="513"/>
      <point x="96" y="289" type="curve" smooth="yes"/>
      <point x="96" y="82"/>
      <point x="239" y="-18"/>
    </contour>
    <contour>
      <point x="471" y="165" type="curve" smooth="yes"/>
      <point x="387" y="165"/>
      <point x="332" y="211"/>
      <point x="332" y="290" type="curve" smooth="yes"/>
      <point x="332" y="407"/>
      <point x="415" y="446"/>
      <point x="587" y="462" type="curve" smooth="yes"/>
      <point x="707" y="473" type="line"/>
      <point x="680" y="509" type="line"/>
      <point x="680" y="226" type="line"/>
      <point x="720" y="305" type="line"/>
      <point x="703" y="267"/>
      <point x="579" y="165"/>
    </contour>
  </outline>
</glyph>
<glyph name="b" format="1">
  <advance width="1154"/>
  <unicode hex="0062"/>
  <outline>
    <contour>
      <point x="657" y="-18" type="curve" smooth="yes"/>
      <point x="910" y="-18"/>
      <point x="1070" y="202"/>
      <point x="1070" y="519" type="curve" smooth="yes"/>
      <point x="1070" y="819"/>
      <point x="920" y="1041"/>
      <point x="661" y="1041" type="curve" smooth="yes"/>
      <point x="517" y="1041"/>
      <point x="410" y="960"/>
      <point x="348" y="878" type="curve"/>
      <point x="378" y="860" type="line"/>
      <point x="384" y="1079" type="line"/>
      <point x="384" y="1368" type="line"/>
      <point x="128" y="1352" type="line"/>
      <point x="128" y="1" type="line"/>
      <point x="349" y="1" type="line"/>
      <point x="377" y="171" type="line"/>
      <point x="335" y="153" type="line"/>
      <point x="394" y="57"/>
      <point x="524" y="-18"/>
    </contour>
    <contour>
      <point x="594" y="179" type="curve" smooth="yes"/>
      <point x="466" y="179"/>
      <point x="379" y="277"/>
      <point x="379" y="527" type="curve"/>
      <point x="381" y="757"/>
      <point x="474" y="845"/>
      <point x="599" y="845" type="curve" smooth="yes"/>
      <point x="724" y="845"/>
      <point x="814" y="751"/>
      <point x="814" y="516" type="curve" smooth="yes"/>
      <point x="814" y="281"/>
      <point x="719" y="179"/>
    </contour>
  </outline>
</glyph>
<glyph name="c" format="1">
  <advance width="945"/>
  <unicode hex="0063"/>
  <outline>
    <contour>
      <point x="578" y="-18" type="curve" smooth="yes"/>
      <point x="763" y="-18"/>
      <point x="840" y="41"/>
      <point x="872" y="64" type="curve"/>
      <point x="839" y="247" type="line"/>
      <point x="768" y="207"/>
      <point x="694" y="178"/>
      <point x="604" y="183" type="curve" smooth="yes"/>
      <point x="459" y="190"/>
      <point x="340" y="292"/>
      <point x="340" y="513" type="curve" smooth="yes"/>
      <point x="340" y="735"/>
      <point x="467" y="840"/>
      <point x="611" y="840" type="curve" smooth="yes"/>
      <point x="720" y="840"/>
      <point x="792" y="799"/>
      <point x="822" y="781" type="curve"/>
      <point x="882" y="959" type="line"/>
      <point x="800" y="1015"/>
      <point x="704" y="1041"/>
      <point x="581" y="1041" type="curve" smooth="yes"/>
      <point x="304" y="1041"/>
      <point x="84" y="856"/>
      <point x="84" y="516" type="curve" smooth="yes"/>
      <point x="84" y="170"/>
      <point x="283" y="-18"/>
    </contour>
  </outline>
</glyph>
<glyph name="d" format="1">
  <advance width="1154"/>
  <unicode hex="0064"/>
  <outline>
    <contour>
      <point x="505" y="-17" type="curve" smooth="yes"/>
      <point x="704" y="-17"/>
      <point x="780" y="88"/>
      <point x="822" y="162" type="curve"/>
      <point x="772" y="162" type="line"/>
      <point x="806" y="0" type="line"/>
      <point x="1026" y="0" type="line"/>
      <point x="1026" y="1368" type="line"/>
      <point x="770" y="1352" type="line"/>
      <point x="770" y="1052" type="line"/>
      <point x="780" y="869" type="line"/>
      <point x="818" y="890" type="line"/>
      <point x="761" y="985"/>
      <point x="657" y="1041"/>
      <point x="505" y="1041" type="curve" smooth="yes"/>
      <point x="243" y="1041"/>
      <point x="84" y="826"/>
      <point x="84" y="517" type="curve" smooth="yes"/>
      <point x="84" y="200"/>
      <point x="244" y="-17"/>
    </contour>
    <contour>
      <point x="561" y="179" type="curve" smooth="yes"/>
      <point x="425" y="179"/>
      <point x="340" y="275"/>
      <point x="340" y="512" type="curve" smooth="yes"/>
      <point x="340" y="754"/>
      <point x="447" y="843"/>
      <point x="572" y="843" type="curve" smooth="yes"/>
      <point x="704" y="843"/>
      <point x="781" y="759"/>
      <point x="781" y="497" type="curve"/>
      <point x="779" y="267"/>
      <point x="697" y="179"/>
    </contour>
  </outline>
</glyph>
<glyph name="e" format="1">
  <advance width="1120"/>
  <unicode hex="0065"/>
  <outline>
    <contour>
      <point x="623" y="-18" type="curve" smooth="yes"/>
      <point x="779" y="-18"/>
      <point x="907" y="9"/>
      <point x="1003" y="70" type="curve"/>
      <point x="968" y="250" type="line"/>
      <point x="926" y="231"/>
      <point x="810" y="174"/>
      <point x="647" y="174" type="curve" smooth="yes"/>
      <point x="474" y="174"/>
      <point x="342" y="273"/>
      <point x="343" y="492" type="curve"/>
      <point x="294" y="448" type="line"/>
      <point x="1023" y="448" type="line"/>
      <point x="1023" y="448"/>
      <point x="1030" y="543"/>
      <point x="1030" y="558" type="curve" smooth="yes"/>
      <point x="1030" y="840"/>
      <point x="864" y="1041"/>
      <point x="585" y="1041" type="curve" smooth="yes"/>
      <point x="296" y="1040"/>
      <point x="84" y="830"/>
      <point x="84" y="512" type="curve" smooth="yes"/>
      <point x="84" y="183"/>
      <point x="308" y="-18"/>
    </contour>
    <contour>
      <point x="349" y="570" type="line"/>
      <point x="349" y="769"/>
      <point x="484" y="854"/>
      <point x="587" y="854" type="curve" smooth="yes"/>
      <point x="704" y="854"/>
      <point x="786" y="763"/>
      <point x="790" y="573" type="curve"/>
      <point x="829" y="613" type="line"/>
      <point x="296" y="613" type="line"/>
    </contour>
    <contour>
      <point x="1042" y="10" type="move" smooth="yes"/>
    </contour>
    <contour>
      <point x="564" y="0" type="move" smooth="yes"/>
    </contour>
    <contour>
      <point x="564" y="0" type="move" smooth="yes"/>
    </contour>
  </outline>
</glyph>
<glyph name="f" format="1">
  <advance width="749"/>
  <unicode hex="0066"/>
  <outline>
    <contour>
      <point x="219" y="0" type="line"/>
      <point x="475" y="0" type="line"/>
      <point x="475" y="898" type="line"/>
      <point x="435" y="839" type="line"/>
      <point x="712" y="839" type="line"/>
      <point x="712" y="1016" type="line"/>
      <point x="425" y="1016" type="line"/>
      <point x="475" y="965" type="line"/>
      <point x="475" y="1067" type="line" smooth="yes"/>
      <point x="475" y="1194"/>
      <point x="524" y="1212"/>
      <point x="606" y="1212" type="curve" smooth="yes"/>
      <point x="646" y="1212"/>
      <point x="695" y="1206"/>
      <point x="725" y="1201" type="curve"/>
      <point x="748" y="1386" type="line"/>
      <point x="681" y="1399"/>
      <point x="619" y="1405"/>
      <point x="560" y="1405" type="curve" smooth="yes"/>
      <point x="365" y="1405"/>
      <point x="219" y="1335"/>
      <point x="219" y="1046" type="curve" smooth="yes"/>
      <point x="219" y="963" type="line"/>
      <point x="264" y="1020" type="line"/>
      <point x="78" y="998" type="line"/>
      <point x="73" y="839" type="line"/>
      <point x="259" y="839" type="line"/>
      <point x="219" y="902" type="line"/>
    </contour>
  </outline>
</glyph>
<glyph name="g" format="1">
  <advance width="1149"/>
  <unicode hex="0067"/>
  <outline>
    <contour>
      <point x="555" y="195" type="curve" smooth="yes"/>
      <point x="384" y="195"/>
      <point x="321" y="333"/>
      <point x="321" y="526" type="curve" smooth="yes"/>
      <point x="321" y="716"/>
      <point x="398" y="843"/>
      <point x="564" y="843" type="curve"/>
      <point x="721" y="843"/>
      <point x="782" y="733"/>
      <point x="782" y="536" type="curve" smooth="yes"/>
      <point x="782" y="508" type="line"/>
      <point x="780" y="323"/>
      <point x="725" y="195"/>
    </contour>
    <contour>
      <point x="448" y="-484" type="curve" smooth="yes"/>
      <point x="815" y="-484"/>
      <point x="1027" y="-264"/>
      <point x="1027" y="112" type="curve" smooth="yes"/>
      <point x="1027" y="1016" type="line"/>
      <point x="800" y="1016" type="line"/>
      <point x="782" y="844" type="line"/>
      <point x="817" y="853" type="line"/>
      <point x="760" y="995"/>
      <point x="648" y="1041"/>
      <point x="516" y="1041" type="curve" smooth="yes"/>
      <point x="281" y="1041"/>
      <point x="65" y="854"/>
      <point x="65" y="519" type="curve" smooth="yes"/>
      <point x="65" y="213"/>
      <point x="248" y="0"/>
      <point x="508" y="0" type="curve" smooth="yes"/>
      <point x="646" y="0"/>
      <point x="777" y="39"/>
      <point x="827" y="239" type="curve"/>
      <point x="779" y="249" type="line"/>
      <point x="779" y="10" type="line" smooth="yes"/>
      <point x="779" y="-158"/>
      <point x="656" y="-282"/>
      <point x="446" y="-282" type="curve" smooth="yes"/>
      <point x="441" y="-282"/>
      <point x="405.998322947" y="-282.129490232"/>
      <point x="208" y="-277" type="curve"/>
      <point x="208" y="-479" type="line"/>
      <point x="432.998159551" y="-484.160508247"/>
      <point x="441" y="-484"/>
    </contour>
  </outline>
</glyph>
<glyph name="h" format="1">
  <advance width="1138"/>
  <unicode hex="0068"/>
  <outline>
    <contour>
      <point x="128" y="0" type="line"/>
      <point x="381" y="0" type="line"/>
      <point x="381" y="491" type="line" smooth="yes"/>
      <point x="381" y="699"/>
      <point x="422" y="844"/>
      <point x="611" y="844" type="curve" smooth="yes"/>
      <point x="726" y="844"/>
      <point x="764" y="775"/>
      <point x="764" y="618" type="curve" smooth="yes"/>
      <point x="764" y="0" type="line"/>
      <point x="1020" y="0" type="line"/>
      <point x="1020" y="641" type="line" smooth="yes"/>
      <point x="1020" y="918"/>
      <point x="881" y="1041"/>
      <point x="667" y="1041" type="curve" smooth="yes"/>
      <point x="523" y="1041"/>
      <point x="394" y="966"/>
      <point x="325" y="858" type="curve"/>
      <point x="374" y="838" type="line"/>
      <point x="384" y="1102" type="line"/>
      <point x="384" y="1368" type="line"/>
      <point x="128" y="1352" type="line"/>
    </contour>
  </outline>
</glyph>
<glyph name="i" format="1">
  <advance width="521"/>
  <unicode hex="0069"/>
  <outline>
    <contour>
      <point x="137" y="0" type="line"/>
      <point x="393" y="0" type="line"/>
      <point x="393" y="1016" type="line"/>
      <point x="137" y="1016" type="line"/>
    </contour>
    <contour>
      <point x="137" y="1157" type="line"/>
      <point x="393" y="1157" type="line"/>
      <point x="393" y="1375" type="line"/>
      <point x="137" y="1375" type="line"/>
    </contour>
  </outline>
</glyph>
<glyph name="j" format="1">
  <advance width="562"/>
  <unicode hex="006A"/>
  <outline>
    <contour>
      <point x="-4" y="-379" type="line"/>
      <point x="56" y="-379" type="line" smooth="yes"/>
      <point x="374" y="-379"/>
      <point x="436" y="-240"/>
      <point x="436" y="40" type="curve" smooth="yes"/>
      <point x="436" y="1017" type="line"/>
      <point x="183" y="1017" type="line"/>
      <point x="183" y="-4" type="line" smooth="yes"/>
      <point x="183" y="-149"/>
      <point x="170" y="-187"/>
      <point x="29" y="-187" type="curve" smooth="yes"/>
      <point x="-33" y="-187" type="line"/>
    </contour>
    <contour>
      <point x="183" y="1157" type="line"/>
      <point x="436" y="1157" type="line"/>
      <point x="436" y="1352" type="line"/>
      <point x="183" y="1352" type="line"/>
    </contour>
  </outline>
</glyph>
<glyph name="k" format="1">
  <advance width="1098"/>
  <unicode hex="006B"/>
  <outline>
    <contour>
      <point x="128" y="0" type="line"/>
      <point x="384" y="0" type="line"/>
      <point x="384" y="421" type="line"/>
      <point x="324" y="294" type="line"/>
      <point x="512" y="473" type="line"/>
      <point x="439" y="473" type="line"/>
      <point x="787" y="0" type="line"/>
      <point x="1088" y="0" type="line"/>
      <point x="631" y="615" type="line"/>
      <point x="631" y="501" type="line"/>
      <point x="1064" y="1016" type="line"/>
      <point x="741" y="1016" type="line"/>
      <point x="334" y="529" type="line"/>
      <point x="377" y="529" type="line"/>
      <point x="384" y="785" type="line"/>
      <point x="384" y="1368" type="line"/>
      <point x="128" y="1352" type="line"/>
    </contour>
  </outline>
</glyph>
<glyph name="l" format="1">
  <advance width="680"/>
  <unicode hex="006C"/>
  <outline>
    <contour>
      <point x="514" y="-13" type="curve" smooth="yes"/>
      <point x="589" y="-13"/>
      <point x="656" y="5"/>
      <point x="663" y="8" type="curve"/>
      <point x="663" y="188" type="line"/>
      <point x="642" y="186"/>
      <point x="583" y="178"/>
      <point x="554" y="178" type="curve" smooth="yes"/>
      <point x="469" y="178"/>
      <point x="386" y="199"/>
      <point x="386" y="391" type="curve" smooth="yes"/>
      <point x="386" y="1368" type="line"/>
      <point x="130" y="1352" type="line"/>
      <point x="130" y="401" type="line" smooth="yes"/>
      <point x="130" y="124"/>
      <point x="237" y="-13"/>
    </contour>
  </outline>
</glyph>
<glyph name="m" format="1">
  <advance width="1697"/>
  <unicode hex="006D"/>
  <outline>
    <contour>
      <point x="128" y="0" type="line"/>
      <point x="384" y="0" type="line"/>
      <point x="384" y="494" type="line" smooth="yes"/>
      <point x="384" y="694"/>
      <point x="407" y="844"/>
      <point x="591" y="844" type="curve" smooth="yes"/>
      <point x="708" y="844"/>
      <point x="728" y="754"/>
      <point x="728" y="590" type="curve" smooth="yes"/>
      <point x="728" y="0" type="line"/>
      <point x="984" y="0" type="line"/>
      <point x="984" y="596" type="line"/>
      <point x="1001" y="738"/>
      <point x="1040" y="844"/>
      <point x="1181" y="844" type="curve" smooth="yes"/>
      <point x="1296" y="844"/>
      <point x="1323" y="762"/>
      <point x="1323" y="579" type="curve" smooth="yes"/>
      <point x="1323" y="0" type="line"/>
      <point x="1579" y="0" type="line"/>
      <point x="1579" y="646" type="line" smooth="yes"/>
      <point x="1579" y="897"/>
      <point x="1475" y="1041"/>
      <point x="1241" y="1041" type="curve" smooth="yes"/>
      <point x="1111" y="1041"/>
      <point x="991" y="981"/>
      <point x="910" y="847" type="curve"/>
      <point x="967" y="847" type="line"/>
      <point x="905" y="980"/>
      <point x="821" y="1041"/>
      <point x="666" y="1041" type="curve" smooth="yes"/>
      <point x="487" y="1041"/>
      <point x="378" y="950"/>
      <point x="320" y="851" type="curve"/>
      <point x="373" y="845" type="line"/>
      <point x="336" y="1016" type="line"/>
      <point x="128" y="1016" type="line"/>
    </contour>
  </outline>
</glyph>
<glyph name="n" format="1">
  <advance width="1175"/>
  <unicode hex="006E"/>
  <outline>
    <contour>
      <point x="128" y="0" type="line"/>
      <point x="384" y="0" type="line"/>
      <point x="384" y="496" type="line" smooth="yes"/>
      <point x="384" y="709"/>
      <point x="449" y="844"/>
      <point x="644" y="844" type="curve" smooth="yes"/>
      <point x="770" y="844"/>
      <point x="800" y="761"/>
      <point x="801" y="612" type="curve"/>
      <point x="801" y="0" type="line"/>
      <point x="1057" y="0" type="line"/>
      <point x="1057" y="640" type="line" smooth="yes"/>
      <point x="1057" y="891"/>
      <point x="944" y="1041"/>
      <point x="709" y="1041" type="curve" smooth="yes"/>
      <point x="532" y="1041"/>
      <point x="408" y="963"/>
      <point x="320" y="841" type="curve"/>
      <point x="372" y="841" type="line"/>
      <point x="336" y="1016" type="line"/>
      <point x="128" y="1016" type="line"/>
    </contour>
  </outline>
</glyph>
<glyph name="p" format="1">
  <advance width="1157"/>
  <unicode hex="0070"/>
  <outline>
    <contour>
      <point x="131" y="-408" type="line"/>
      <point x="387" y="-395" type="line"/>
      <point x="387" y="-15" type="line"/>
      <point x="381" y="183" type="line"/>
      <point x="332" y="159" type="line"/>
      <point x="369" y="96"/>
      <point x="480" y="-18"/>
      <point x="655" y="-18" type="curve" smooth="yes"/>
      <point x="915" y="-18"/>
      <point x="1073" y="207"/>
      <point x="1073" y="513" type="curve" smooth="yes"/>
      <point x="1073" y="806"/>
      <point x="924" y="1041"/>
      <point x="676" y="1041" type="curve" smooth="yes"/>
      <point x="548" y="1041"/>
      <point x="409" y="983"/>
      <point x="324" y="843" type="curve"/>
      <point x="387" y="843" type="line"/>
      <point x="352" y="1016" type="line"/>
      <point x="131" y="1016" type="line"/>
    </contour>
    <contour>
      <point x="607" y="179" type="curve" smooth="yes"/>
      <point x="463" y="179"/>
      <point x="385" y="277"/>
      <point x="385" y="530" type="curve"/>
      <point x="387" y="755"/>
      <point x="467" y="844"/>
      <point x="603" y="844" type="curve" smooth="yes"/>
      <point x="730" y="844"/>
      <point x="817" y="746"/>
      <point x="817" y="515" type="curve" smooth="yes"/>
      <point x="817" y="291"/>
      <point x="733" y="179"/>
    </contour>
  </outline>
</glyph>
<glyph name="q" format="1">
  <advance width="1154"/>
  <unicode hex="0071"/>
  <outline>
    <contour>
      <point x="770" y="-408" type="line"/>
      <point x="1026" y="-393" type="line"/>
      <point x="1026" y="1016" type="line"/>
      <point x="801" y="1016" type="line"/>
      <point x="776" y="841" type="line"/>
      <point x="826" y="858" type="line"/>
      <point x="775" y="941"/>
      <point x="689" y="1041"/>
      <point x="507" y="1041" type="curve" smooth="yes"/>
      <point x="235" y="1041"/>
      <point x="84" y="817"/>
      <point x="84" y="513" type="curve" smooth="yes"/>
      <point x="84" y="202"/>
      <point x="252" y="-18"/>
      <point x="511" y="-18" type="curve" smooth="yes"/>
      <point x="657" y="-18"/>
      <point x="759" y="52"/>
      <point x="833" y="177" type="curve"/>
      <point x="776" y="197" type="line"/>
      <point x="770" y="16" type="line"/>
    </contour>
    <contour>
      <point x="777" y="263"/>
      <point x="696" y="177"/>
      <point x="557" y="177" type="curve" smooth="yes"/>
      <point x="424" y="177"/>
      <point x="340" y="283"/>
      <point x="340" y="511" type="curve" smooth="yes"/>
      <point x="340" y="744"/>
      <point x="427" y="843"/>
      <point x="554" y="843" type="curve" smooth="yes"/>
      <point x="699" y="843"/>
      <point x="780" y="746"/>
      <point x="780" y="495" type="curve"/>
    </contour>
  </outline>
</glyph>
<glyph name="r" format="1">
  <advance width="785"/>
  <unicode hex="0072"/>
  <outline>
    <contour>
      <point x="130.0" y="0.0" type="line"/>
      <point x="386.0" y="0.0" type="line"/>
      <point x="386.0" y="551.0" type="line" smooth="yes"/>
      <point x="386.0" y="707.0"/>
      <point x="489.0" y="807.0"/>
      <point x="661.0" y="807.0" type="curve" smooth="yes"/>
      <point x="687.0" y="807.0"/>
      <point x="712.0" y="805.0"/>
      <point x="745.0" y="799.0" type="curve"/>
      <point x="749.0" y="1015.0" type="line"/>
      <point x="722.0" y="1021.0"/>
      <point x="701.0" y="1021.0"/>
      <point x="678.0" y="1021.0" type="curve" smooth="yes"/>
      <point x="560.0" y="1021.0"/>
      <point x="423.0" y="954.0"/>
      <point x="328.0" y="805.0" type="curve"/>
      <point x="386.0" y="794.0" type="line"/>
      <point x="346.0" y="1016.0" type="line"/>
      <point x="130.0" y="1016.0" type="line"/>
    </contour>
  </outline>
</glyph>
<glyph name="s" format="1">
  <advance width="942"/>
  <unicode hex="0073"/>
  <outline>
    <contour>
      <point x="481" y="-17" type="curve" smooth="yes"/>
      <point x="719" y="-17"/>
      <point x="856" y="99"/>
      <point x="856" y="306" type="curve" smooth="yes"/>
      <point x="856" y="466"/>
      <point x="754" y="536"/>
      <point x="586" y="612" type="curve" smooth="yes"/>
      <point x="531" y="637" type="line" smooth="yes"/>
      <point x="405" y="694"/>
      <point x="358" y="709"/>
      <point x="358" y="768" type="curve" smooth="yes"/>
      <point x="358" y="827"/>
      <point x="412" y="854"/>
      <point x="498" y="854" type="curve" smooth="yes"/>
      <point x="587" y="854"/>
      <point x="692" y="818"/>
      <point x="766" y="781" type="curve"/>
      <point x="824" y="953" type="line"/>
      <point x="721" y="1005"/>
      <point x="611" y="1041"/>
      <point x="489" y="1041" type="curve" smooth="yes"/>
      <point x="265" y="1041"/>
      <point x="131" y="940"/>
      <point x="131" y="748" type="curve"/>
      <point x="132" y="586"/>
      <point x="209" y="526"/>
      <point x="377" y="447" type="curve"/>
      <point x="429" y="421" type="line" smooth="yes"/>
      <point x="549" y="361"/>
      <point x="614" y="340"/>
      <point x="614" y="275" type="curve"/>
      <point x="612" y="204"/>
      <point x="577" y="170"/>
      <point x="481" y="167" type="curve" smooth="yes"/>
      <point x="381" y="164"/>
      <point x="241" y="227"/>
      <point x="166" y="277" type="curve"/>
      <point x="121" y="99" type="line"/>
      <point x="141" y="83"/>
      <point x="286" y="-17"/>
    </contour>
  </outline>
</glyph>
<glyph name="u" format="1">
  <advance width="1175"/>
  <unicode hex="0075"/>
  <outline>
    <component base="n" xScale="-1" yScale="-1" xOffset="1175" yOffset="1016"/>
    <contour>
      <point x="1051" y="10" type="move" smooth="yes"/>
    </contour>
    <contour>
      <point x="554" y="0" type="move" smooth="yes"/>
    </contour>
  </outline>
</glyph>
<glyph name="v" format="1">
  <advance width="1070"/>
  <unicode hex="0076"/>
  <outline>
    <contour>
      <point x="423" y="0" type="line"/>
      <point x="669" y="0" type="line"/>
      <point x="1044" y="1016" type="line"/>
      <point x="776" y="1016" type="line"/>
      <point x="600" y="471" type="line"/>
      <point x="529" y="207" type="line"/>
      <point x="572" y="207" type="line"/>
      <point x="487" y="472" type="line"/>
      <point x="297" y="1016" type="line"/>
      <point x="26" y="1016" type="line"/>
    </contour>
  </outline>
</glyph>
<glyph name="w" format="1">
  <advance width="1553"/>
  <unicode hex="0077"/>
  <outline>
    <contour>
      <point x="317" y="0" type="line"/>
      <point x="561" y="0" type="line"/>
      <point x="799" y="827" type="line"/>
      <point x="754" y="827" type="line"/>
      <point x="978" y="0" type="line"/>
      <point x="1224" y="0" type="line"/>
      <point x="1527" y="1016" type="line"/>
      <point x="1281" y="1016" type="line"/>
      <point x="1077" y="235" type="line"/>
      <point x="1115" y="235" type="line"/>
      <point x="907" y="1016" type="line"/>
      <point x="653" y="1016" type="line"/>
      <point x="435" y="235" type="line"/>
      <point x="469" y="235" type="line"/>
      <point x="275" y="1016" type="line"/>
      <point x="26" y="1016" type="line"/>
    </contour>
  </outline>
</glyph>
<glyph name="y" format="1">
  <advance width="1056"/>
  <unicode hex="0079"/>
  <outline>
    <contour>
      <point x="521" y="-376" type="line"/>
      <point x="1030" y="1016" type="line"/>
      <point x="764" y="1016" type="line"/>
      <point x="530" y="244" type="line"/>
      <point x="580" y="244" type="line"/>
      <point x="309" y="1016" type="line"/>
      <point x="44" y="1016" type="line"/>
      <point x="459" y="-46" type="line"/>
      <point x="459" y="101" type="line"/>
      <point x="286" y="-345" type="line"/>
    </contour>
  </outline>
</glyph>
<glyph name="z" format="1">
  <advance width="963"/>
  <unicode hex="007A"/>
  <outline>
    <contour>
      <point x="104" y="0" type="line"/>
      <point x="874" y="0" type="line"/>
      <point x="874" y="192" type="line"/>
      <point x="348" y="192" type="line"/>
      <point x="366" y="121" type="line"/>
      <point x="858" y="840" type="line"/>
      <point x="858" y="1016" type="line"/>
      <point x="126" y="1016" type="line"/>
      <point x="126" y="832" type="line"/>
      <point x="641" y="832" type="line"/>
      <point x="615" y="895" type="line"/>
      <point x="104" y="158" type="line"/>
    </contour>
  </outline>
</glyph>
<glyph name="bar" format="1">
  <advance width="605"/>
  <unicode hex="007C"/>
  <outline>
    <contour>
      <point x="213" y="-256" type="line"/>
      <point x="414" y="-256" type="line"/>
      <point x="414" y="1456" type="line"/>
      <point x="213" y="1456" type="line"/>
    </contour>
  </outline>
</glyph>
<glyph name="braceright" format="1">
  <advance width="691"/>
  <unicode hex="007D"/>
  <outline>
    <contour>
      <point x="80" y="-245" type="line"/>
      <point x="339" y="-245"/>
      <point x="469" y="-189"/>
      <point x="469" y="22" type="curve" smooth="yes"/>
      <point x="469" y="277" type="line" smooth="yes"/>
      <point x="469" y="416"/>
      <point x="506" y="458"/>
      <point x="661" y="458" type="curve"/>
      <point x="661" y="671" type="line"/>
      <point x="500" y="672"/>
      <point x="469" y="712"/>
      <point x="469" y="848" type="curve" smooth="yes"/>
      <point x="469" y="1104" type="line" smooth="yes"/>
      <point x="469" y="1326"/>
      <point x="336" y="1383"/>
      <point x="80" y="1383" type="curve"/>
      <point x="80" y="1183" type="line"/>
      <point x="207" y="1181"/>
      <point x="224" y="1151"/>
      <point x="224" y="1037" type="curve" smooth="yes"/>
      <point x="224" y="796" type="line"/>
      <point x="226" y="675"/>
      <point x="281" y="605"/>
      <point x="392" y="564" type="curve"/>
      <point x="282" y="525"/>
      <point x="224" y="462"/>
      <point x="224" y="340" type="curve" smooth="yes"/>
      <point x="224" y="97" type="line" smooth="yes"/>
      <point x="224" y="-17"/>
      <point x="206" y="-45"/>
      <point x="80" y="-47" type="curve"/>
    </contour>
  </outline>
</glyph>
<glyph name="asciitilde" format="1">
  <advance width="1139"/>
  <unicode hex="007E"/>
  <outline>
    <contour>
      <point x="196" y="433" type="line"/>
      <point x="232" y="500"/>
      <point x="289" y="561"/>
      <point x="367" y="561" type="curve" smooth="yes"/>
      <point x="431" y="561"/>
      <point x="482" y="539"/>
      <point x="547" y="508" type="curve"/>
      <point x="632" y="470"/>
      <point x="696" y="443"/>
      <point x="783" y="443" type="curve" smooth="yes"/>
      <point x="915" y="443"/>
      <point x="1029" y="530"/>
      <point x="1077" y="620" type="curve"/>
      <point x="999" y="753" type="line"/>
      <point x="925" y="670"/>
      <point x="864" y="635"/>
      <point x="797" y="635" type="curve" smooth="yes"/>
      <point x="747" y="635"/>
      <point x="689" y="656"/>
      <point x="610" y="691" type="curve" smooth="yes"/>
      <point x="534" y="724"/>
      <point x="453" y="750"/>
      <point x="375" y="750" type="curve" smooth="yes"/>
      <point x="237" y="750"/>
      <point x="159" y="667"/>
      <point x="112" y="571" type="curve"/>
    </contour>
  </outline>
</glyph>
<glyph name="cent" format="1">
  <advance width="937"/>
  <unicode hex="00A2"/>
  <outline>
    <component base="c"/>
    <contour>
      <point x="573" y="-146" type="line"/>
      <point x="657" y="-146" type="line"/>
      <point x="657" y="1156" type="line"/>
      <point x="573" y="1156" type="line"/>
    </contour>
  </outline>
</glyph>
<glyph name="sterling" format="1">
  <advance width="1006"/>
  <unicode hex="00A3"/>
  <outline>
    <contour>
      <point x="71" y="19" type="line"/>
      <point x="62" y="208" type="line"/>
      <point x="218" y="229" type="line" smooth="yes"/>
      <point x="218" y="605" type="line"/>
      <point x="53" y="605" type="line"/>
      <point x="53" y="785" type="line"/>
      <point x="218" y="785" type="line"/>
      <point x="218" y="869" type="line"/>
      <point x="218" y="1153"/>
      <point x="329" y="1361"/>
      <point x="623" y="1361" type="curve" smooth="yes"/>
      <point x="763" y="1361"/>
      <point x="880" y="1311"/>
      <point x="971" y="1234" type="curve"/>
      <point x="867" y="1069" type="line"/>
      <point x="790" y="1122"/>
      <point x="720" y="1155"/>
      <point x="633" y="1155" type="curve" smooth="yes"/>
      <point x="507" y="1155"/>
      <point x="457" y="1075"/>
      <point x="457" y="934" type="curve" smooth="yes"/>
      <point x="457" y="785" type="line"/>
      <point x="800" y="785" type="line"/>
      <point x="800" y="606" type="line"/>
      <point x="457" y="606" type="line"/>
      <point x="457" y="230" type="line"/>
      <point x="989" y="230" type="line"/>
      <point x="983" y="19" type="line"/>
    </contour>
  </outline>
</glyph>
<glyph name="brokenbar" format="1">
  <advance width="718"/>
  <unicode hex="00A6"/>
  <outline>
    <contour>
      <point x="266" y="-337" type="line"/>
      <point x="266" y="331" type="line"/>
      <point x="467" y="331" type="line"/>
      <point x="467" y="-337" type="line"/>
    </contour>
    <contour>
      <point x="266" y="739" type="line"/>
      <point x="266" y="1406" type="line"/>
      <point x="467" y="1406" type="line"/>
      <point x="467" y="739" type="line"/>
    </contour>
  </outline>
</glyph>
<glyph name="dieresis" format="1">
  <advance width="679"/>
  <unicode hex="00A8"/>
  <outline>
    <contour>
      <point x="63" y="1119" type="line"/>
      <point x="257" y="1119" type="line"/>
      <point x="257" y="1364" type="line"/>
      <point x="63" y="1364" type="line"/>
    </contour>
    <contour>
      <point x="439" y="1119" type="line"/>
      <point x="632" y="1119" type="line"/>
      <point x="632" y="1364" type="line"/>
      <point x="439" y="1364" type="line"/>
    </contour>
  </outline>
</glyph>
<glyph name="ordfeminine" format="1">
  <advance width="664"/>
  <unicode hex="00AA"/>
  <outline>
    <contour>
      <point x="269" y="686" type="curve" smooth="yes"/>
      <point x="337" y="686"/>
      <point x="417" y="717"/>
      <point x="459" y="762" type="curve"/>
      <point x="472" y="698" type="line"/>
      <point x="611" y="698" type="line"/>
      <point x="611" y="698"/>
      <point x="609" y="810"/>
      <point x="609" y="813" type="curve" smooth="yes"/>
      <point x="609" y="1156" type="line" smooth="yes"/>
      <point x="609" y="1325"/>
      <point x="493" y="1384"/>
      <point x="358" y="1384" type="curve" smooth="yes"/>
      <point x="264" y="1384"/>
      <point x="163" y="1359"/>
      <point x="79" y="1315" type="curve"/>
      <point x="125" y="1200" type="line"/>
      <point x="213" y="1236"/>
      <point x="286" y="1250"/>
      <point x="343" y="1250" type="curve" smooth="yes"/>
      <point x="413" y="1250"/>
      <point x="442" y="1222"/>
      <point x="443" y="1134" type="curve"/>
      <point x="443" y="1114" type="line"/>
      <point x="280" y="1096"/>
      <point x="60" y="1079"/>
      <point x="60" y="885" type="curve" smooth="yes"/>
      <point x="60" y="754"/>
      <point x="157" y="686"/>
    </contour>
    <contour>
      <point x="94" y="486" type="line"/>
      <point x="613" y="486" type="line"/>
      <point x="613" y="611" type="line"/>
      <point x="94" y="611" type="line"/>
    </contour>
    <contour>
      <point x="286" y="813" type="curve" smooth="yes"/>
      <point x="248" y="813"/>
      <point x="219" y="834"/>
      <point x="219" y="883" type="curve" smooth="yes"/>
      <point x="219" y="958"/>
      <point x="302" y="977"/>
      <point x="443" y="996" type="curve"/>
      <point x="443" y="909" type="line"/>
      <point x="399" y="846"/>
      <point x="341" y="813"/>
    </contour>
  </outline>
</glyph>
<glyph name="guillemotleft" format="1">
  <advance width="948"/>
  <unicode hex="00AB"/>
  <outline>
    <contour>
      <point x="344" y="120" type="line"/>
      <point x="544" y="173" type="line"/>
      <point x="299" y="519" type="line"/>
      <point x="547" y="866" type="line"/>
      <point x="347" y="918" type="line"/>
      <point x="70" y="547" type="line"/>
      <point x="59" y="504" type="line"/>
    </contour>
    <contour>
      <point x="715" y="120" type="line"/>
      <point x="914" y="173" type="line"/>
      <point x="669" y="519" type="line"/>
      <point x="918" y="866" type="line"/>
      <point x="717" y="918" type="line"/>
      <point x="424" y="516" type="line"/>
    </contour>
  </outline>
</glyph>
<glyph name="macron" format="1">
  <advance width="801"/>
  <unicode hex="00AF"/>
  <outline>
    <contour>
      <point x="89" y="1239" type="line"/>
      <point x="738" y="1239" type="line"/>
      <point x="738" y="1398" type="line"/>
      <point x="89" y="1398" type="line"/>
    </contour>
  </outline>
</glyph>
<glyph name="degree" format="1">
  <advance width="748"/>
  <unicode hex="00B0"/>
  <outline>
    <contour>
      <point x="519" y="961"/>
      <point x="454" y="908"/>
      <point x="384" y="908" type="curve" smooth="yes"/>
      <point x="314" y="908"/>
      <point x="247" y="961"/>
      <point x="247" y="1052" type="curve" smooth="yes"/>
      <point x="247" y="1141"/>
      <point x="314" y="1191"/>
      <point x="385" y="1191" type="curve" smooth="yes"/>
      <point x="454" y="1191"/>
      <point x="519" y="1141"/>
      <point x="519" y="1052" type="curve" smooth="yes"/>
    </contour>
    <contour>
      <point x="93" y="913"/>
      <point x="197" y="774"/>
      <point x="384" y="774" type="curve" smooth="yes"/>
      <point x="570" y="774"/>
      <point x="673" y="914"/>
      <point x="673" y="1057" type="curve" smooth="yes"/>
      <point x="673" y="1204"/>
      <point x="565" y="1332"/>
      <point x="384" y="1332" type="curve" smooth="yes"/>
      <point x="200" y="1332"/>
      <point x="93" y="1204"/>
      <point x="93" y="1057" type="curve" smooth="yes"/>
    </contour>
  </outline>
</glyph>
<glyph name="paragraph" format="1">
  <advance width="1054"/>
  <unicode hex="00B6"/>
  <outline>
    <contour>
      <point x="367" y="-134" type="line"/>
      <point x="555" y="-134" type="line"/>
      <point x="555" y="1188" type="line"/>
      <point x="679" y="1188" type="line"/>
      <point x="679" y="-134" type="line"/>
      <point x="847" y="-134" type="line"/>
      <point x="847" y="1188" type="line"/>
      <point x="920" y="1188" type="line"/>
      <point x="920" y="1360" type="line"/>
      <point x="541" y="1360" type="line" smooth="yes"/>
      <point x="278" y="1360"/>
      <point x="64" y="1276"/>
      <point x="64" y="1036" type="curve" smooth="yes"/>
      <point x="64" y="861"/>
      <point x="186" y="724"/>
      <point x="367" y="705" type="curve"/>
    </contour>
  </outline>
</glyph>
<glyph name="cedilla" format="1">
  <advance width="514"/>
  <unicode hex="00B8"/>
  <outline>
    <contour>
      <point x="46" y="-297" type="line"/>
      <point x="255" y="-297" type="line"/>
      <point x="309" y="60" type="line"/>
      <point x="162" y="60" type="line"/>
    </contour>
    <contour>
      <point x="177.5" y="0" type="move" name="_bottom"/>
    </contour>
  </outline>
</glyph>
<glyph name="uni00B9" format="1">
  <advance width="655"/>
  <unicode hex="00B9"/>
  <outline>
    <contour>
      <point x="129" y="534" type="line"/>
      <point x="570" y="534" type="line"/>
      <point x="570" y="686" type="line"/>
      <point x="445" y="686" type="line"/>
      <point x="445" y="1358" type="line"/>
      <point x="302" y="1359" type="line"/>
      <point x="299" y="1354" type="line"/>
      <point x="283" y="1343"/>
      <point x="130" y="1266"/>
      <point x="117" y="1260" type="curve"/>
      <point x="112" y="1257" type="line"/>
      <point x="112" y="1095" type="line"/>
      <point x="126" y="1102" type="line" smooth="yes"/>
      <point x="132" y="1105"/>
      <point x="221" y="1147"/>
      <point x="255" y="1163" type="curve"/>
      <point x="255" y="686" type="line"/>
      <point x="129" y="686" type="line"/>
    </contour>
  </outline>
</glyph>
<glyph name="threequarters" format="1">
  <advance width="1482"/>
  <unicode hex="00BE"/>
  <outline>
    <contour>
      <point x="310" y="562" type="curve" smooth="yes"/>
      <point x="456" y="562"/>
      <point x="594" y="644"/>
      <point x="594" y="808" type="curve" smooth="yes"/>
      <point x="594" y="889"/>
      <point x="542" y="954"/>
      <point x="483" y="986" type="curve"/>
      <point x="567" y="1027"/>
      <point x="576" y="1114"/>
      <point x="576" y="1132" type="curve" smooth="yes"/>
      <point x="576" y="1280"/>
      <point x="448" y="1346"/>
      <point x="321" y="1346" type="curve" smooth="yes"/>
      <point x="228" y="1346"/>
      <point x="132" y="1314"/>
      <point x="69" y="1261" type="curve"/>
      <point x="136" y="1151" type="line"/>
      <point x="172" y="1177"/>
      <point x="245" y="1201"/>
      <point x="308" y="1201" type="curve" smooth="yes"/>
      <point x="374" y="1201"/>
      <point x="402" y="1170"/>
      <point x="402" y="1126" type="curve" smooth="yes"/>
      <point x="402" y="1077"/>
      <point x="371" y="1043"/>
      <point x="273" y="1043" type="curve" smooth="yes"/>
      <point x="193" y="1043" type="line"/>
      <point x="193" y="902" type="line"/>
      <point x="272" y="903" type="line"/>
      <point x="371" y="903"/>
      <point x="423" y="874"/>
      <point x="423" y="810" type="curve" smooth="yes"/>
      <point x="423" y="739"/>
      <point x="377" y="706"/>
      <point x="303" y="706" type="curve" smooth="yes"/>
      <point x="247" y="706"/>
      <point x="171" y="725"/>
      <point x="133" y="759" type="curve"/>
      <point x="77" y="636" type="line"/>
      <point x="144" y="587"/>
      <point x="229" y="562"/>
    </contour>
    <contour>
      <point x="1179" y="19" type="line"/>
      <point x="1338" y="19" type="line"/>
      <point x="1339" y="179" type="line"/>
      <point x="1444" y="179" type="line"/>
      <point x="1442" y="318" type="line"/>
      <point x="1340" y="318" type="line"/>
      <point x="1340" y="820" type="line"/>
      <point x="1169" y="820" type="line"/>
      <point x="823" y="317" type="line"/>
      <point x="823" y="179" type="line"/>
      <point x="1179" y="179" type="line"/>
    </contour>
    <contour>
      <point x="235" y="19" type="line"/>
      <point x="439" y="19" type="line"/>
      <point x="1347" y="1347" type="line"/>
      <point x="1149" y="1347" type="line"/>
    </contour>
    <contour>
      <point x="1019" y="318" type="line"/>
      <point x="1177" y="575" type="line"/>
      <point x="1177" y="318" type="line"/>
    </contour>
  </outline>
</glyph>
<glyph name="questiondown" format="1">
  <advance width="901"/>
  <unicode hex="00BF"/>
  <outline>
    <contour>
      <point x="116" y="51"/>
      <point x="305" y="-47"/>
      <point x="467" y="-47" type="curve" smooth="yes"/>
      <point x="613" y="-47"/>
      <point x="713" y="-11"/>
      <point x="803" y="49" type="curve"/>
      <point x="810" y="53" type="line"/>
      <point x="740" y="218" type="line"/>
      <point x="731" y="213" type="line"/>
      <point x="679" y="181"/>
      <point x="606" y="139"/>
      <point x="491" y="139" type="curve" smooth="yes"/>
      <point x="384" y="139"/>
      <point x="322" y="200"/>
      <point x="321" y="297" type="curve"/>
      <point x="321" y="455"/>
      <point x="532" y="628"/>
      <point x="565" y="887" type="curve"/>
      <point x="567" y="898" type="line"/>
      <point x="456" y="898" type="line"/>
      <point x="453" y="893" type="line"/>
      <point x="320" y="625"/>
      <point x="116" y="486"/>
      <point x="116" y="266" type="curve" smooth="yes"/>
    </contour>
    <contour>
      <point x="370" y="1098"/>
      <point x="430" y="1030"/>
      <point x="510" y="1030" type="curve" smooth="yes"/>
      <point x="592" y="1030"/>
      <point x="657" y="1098"/>
      <point x="657" y="1177" type="curve" smooth="yes"/>
      <point x="657" y="1256"/>
      <point x="591" y="1323"/>
      <point x="510" y="1323" type="curve" smooth="yes"/>
      <point x="430" y="1323"/>
      <point x="370" y="1255"/>
      <point x="370" y="1177" type="curve" smooth="yes"/>
    </contour>
  </outline>
</glyph>
<glyph name="Aring" format="1">
  <advance width="1427"/>
  <unicode hex="00C5"/>
  <outline>
    <contour>
      <point x="90" y="0" type="line"/>
      <point x="378" y="0" type="line"/>
      <point x="498" y="365" type="line"/>
      <point x="924" y="365" type="line"/>
      <point x="1051" y="0" type="line"/>
      <point x="1337" y="0" type="line"/>
      <point x="883" y="1336" type="line"/>
      <point x="545" y="1336" type="line"/>
    </contour>
    <contour>
      <point x="800" y="1489"/>
      <point x="769" y="1445"/>
      <point x="714" y="1445" type="curve" smooth="yes"/>
      <point x="657" y="1445"/>
      <point x="628" y="1488"/>
      <point x="628" y="1540" type="curve" smooth="yes"/>
      <point x="628" y="1588"/>
      <point x="661" y="1635"/>
      <point x="714" y="1635" type="curve" smooth="yes"/>
      <point x="769" y="1635"/>
      <point x="800" y="1589"/>
      <point x="800" y="1540" type="curve" smooth="yes"/>
    </contour>
    <contour>
      <point x="508" y="1437"/>
      <point x="585" y="1344"/>
      <point x="714" y="1344" type="curve" smooth="yes"/>
      <point x="843" y="1344"/>
      <point x="920" y="1437"/>
      <point x="920" y="1540" type="curve" smooth="yes"/>
      <point x="920" y="1642"/>
      <point x="845" y="1735"/>
      <point x="714" y="1735" type="curve" smooth="yes"/>
      <point x="584" y="1735"/>
      <point x="508" y="1643"/>
      <point x="508" y="1540" type="curve" smooth="yes"/>
    </contour>
    <contour>
      <point x="556" y="555" type="line"/>
      <point x="718" y="1093" type="line"/>
      <point x="868" y="555" type="line"/>
    </contour>
  </outline>
</glyph>
<glyph name="Edieresis" format="1">
  <advance width="1164"/>
  <unicode hex="00CB"/>
  <outline>
    <contour>
      <point x="202" y="0" type="line"/>
      <point x="1025" y="0" type="line"/>
      <point x="1042" y="216" type="line"/>
      <point x="490" y="216" type="line"/>
      <point x="490" y="595" type="line"/>
      <point x="994" y="595" type="line"/>
      <point x="994" y="805" type="line"/>
      <point x="490" y="805" type="line"/>
      <point x="490" y="1126" type="line"/>
      <point x="1021" y="1126" type="line"/>
      <point x="1032" y="1336" type="line"/>
      <point x="202" y="1336" type="line"/>
    </contour>
    <contour>
      <point x="338" y="1479" type="line"/>
      <point x="532" y="1479" type="line"/>
      <point x="532" y="1724" type="line"/>
      <point x="338" y="1724" type="line"/>
    </contour>
    <contour>
      <point x="714" y="1479" type="line"/>
      <point x="906" y="1479" type="line"/>
      <point x="906" y="1724" type="line"/>
      <point x="714" y="1724" type="line"/>
    </contour>
  </outline>
</glyph>
<glyph name="Igrave" format="1">
  <advance width="692"/>
  <unicode hex="00CC"/>
  <outline>
    <contour>
      <point x="264" y="1479" type="line"/>
      <point x="428" y="1479" type="line"/>
      <point x="252" y="1840" type="line"/>
      <point x="-48" y="1840" type="line"/>
    </contour>
    <contour>
      <point x="202" y="0" type="line"/>
      <point x="490" y="0" type="line"/>
      <point x="490" y="1336" type="line"/>
      <point x="202" y="1336" type="line"/>
    </contour>
  </outline>
</glyph>
<glyph name="Icircumflex" format="1">
  <advance width="692"/>
  <unicode hex="00CE"/>
  <outline>
    <contour>
      <point x="12" y="1479" type="line"/>
      <point x="194" y="1479" type="line"/>
      <point x="336" y="1673" type="line"/>
      <point x="494" y="1479" type="line"/>
      <point x="680" y="1479" type="line"/>
      <point x="444" y="1847" type="line"/>
      <point x="248" y="1847" type="line"/>
    </contour>
    <contour>
      <point x="202" y="0" type="line"/>
      <point x="490" y="0" type="line"/>
      <point x="490" y="1336" type="line"/>
      <point x="202" y="1336" type="line"/>
    </contour>
  </outline>
</glyph>
<glyph name="Ocircumflex" format="1">
  <advance width="1566"/>
  <unicode hex="00D4"/>
  <outline>
    <contour>
      <point x="450" y="1479" type="line"/>
      <point x="630" y="1479" type="line"/>
      <point x="772" y="1673" type="line"/>
      <point x="930" y="1479" type="line"/>
      <point x="1116" y="1479" type="line"/>
      <point x="880" y="1847" type="line"/>
      <point x="684" y="1847" type="line"/>
    </contour>
    <contour>
      <point x="1146" y="393"/>
      <point x="1012" y="210"/>
      <point x="784" y="210" type="curve" smooth="yes"/>
      <point x="556" y="210"/>
      <point x="420" y="393"/>
      <point x="420" y="667" type="curve" smooth="yes"/>
      <point x="420" y="946"/>
      <point x="557" y="1127"/>
      <point x="784" y="1127" type="curve" smooth="yes"/>
      <point x="1011" y="1127"/>
      <point x="1146" y="946"/>
      <point x="1146" y="667" type="curve" smooth="yes"/>
    </contour>
    <contour>
      <point x="132" y="237"/>
      <point x="391" y="-18"/>
      <point x="784" y="-18" type="curve" smooth="yes"/>
      <point x="1177" y="-18"/>
      <point x="1434" y="237"/>
      <point x="1434" y="669" type="curve" smooth="yes"/>
      <point x="1434" y="1105"/>
      <point x="1175" y="1357"/>
      <point x="784" y="1357" type="curve" smooth="yes"/>
      <point x="393" y="1357"/>
      <point x="132" y="1105"/>
      <point x="132" y="669" type="curve" smooth="yes"/>
    </contour>
  </outline>
</glyph>
<glyph name="Oslash" format="1">
  <advance width="1553"/>
  <unicode hex="00D8"/>
  <outline>
    <component base="O"/>
    <contour>
      <point x="519" y="-228" type="line"/>
      <point x="1200" y="1512" type="line"/>
      <point x="1069" y="1562" type="line"/>
      <point x="393" y="-183" type="line"/>
    </contour>
    <contour>
      <point x="827" y="1349" type="move" smooth="yes"/>
    </contour>
  </outline>
</glyph>
<glyph name="Ucircumflex" format="1">
  <advance width="1440"/>
  <unicode hex="00DB"/>
  <outline>
    <contour>
      <point x="169" y="170"/>
      <point x="372" y="-18"/>
      <point x="720" y="-18" type="curve" smooth="yes"/>
      <point x="1067" y="-18"/>
      <point x="1271" y="172"/>
      <point x="1271" y="484" type="curve" smooth="yes"/>
      <point x="1271" y="1336" type="line"/>
      <point x="983" y="1336" type="line"/>
      <point x="983" y="505" type="line" smooth="yes"/>
      <point x="983" y="310"/>
      <point x="902" y="213"/>
      <point x="720" y="213" type="curve" smooth="yes"/>
      <point x="544" y="213"/>
      <point x="457" y="309"/>
      <point x="457" y="504" type="curve" smooth="yes"/>
      <point x="457" y="1336" type="line"/>
      <point x="169" y="1336" type="line"/>
      <point x="169" y="485" type="line" smooth="yes"/>
    </contour>
    <contour>
      <point x="386" y="1479" type="line"/>
      <point x="568" y="1479" type="line"/>
      <point x="710" y="1673" type="line"/>
      <point x="868" y="1479" type="line"/>
      <point x="1054" y="1479" type="line"/>
      <point x="818" y="1847" type="line"/>
      <point x="622" y="1847" type="line"/>
    </contour>
  </outline>
</glyph>
<glyph name="Thorn" format="1">
  <advance width="1164"/>
  <unicode hex="00DE"/>
  <outline>
    <contour>
      <point x="153" y="16" type="line"/>
      <point x="370" y="16" type="line"/>
      <point x="370" y="311" type="line"/>
      <point x="423" y="311"/>
      <point x="643" y="310"/>
      <point x="645" y="310" type="curve" smooth="yes"/>
      <point x="924" y="310"/>
      <point x="1140" y="454"/>
      <point x="1140" y="720" type="curve" smooth="yes"/>
      <point x="1140" y="1016"/>
      <point x="908" y="1126"/>
      <point x="613" y="1126" type="curve" smooth="yes"/>
      <point x="370" y="1126" type="line"/>
      <point x="370" y="1326" type="line"/>
      <point x="153" y="1326" type="line"/>
    </contour>
    <contour>
      <point x="371" y="505" type="line"/>
      <point x="370" y="946" type="line"/>
      <point x="632" y="946" type="line" smooth="yes"/>
      <point x="823" y="946"/>
      <point x="921" y="882"/>
      <point x="921" y="725" type="curve" smooth="yes"/>
      <point x="921" y="585"/>
      <point x="826" y="505"/>
      <point x="657" y="505" type="curve" smooth="yes"/>
    </contour>
  </outline>
</glyph>
<glyph name="germandbls" format="1">
  <advance width="1162"/>
  <unicode hex="00DF"/>
  <outline>
    <contour>
      <point x="380" y="0" type="line"/>
      <point x="131" y="0" type="line"/>
      <point x="131" y="934" type="line" smooth="yes"/>
      <point x="131" y="1202"/>
      <point x="284" y="1363"/>
      <point x="561" y="1363" type="curve" smooth="yes"/>
      <point x="776" y="1363"/>
      <point x="969" y="1269"/>
      <point x="969" y="1054" type="curve" smooth="yes"/>
      <point x="969" y="824"/>
      <point x="805" y="786"/>
      <point x="805" y="719" type="curve" smooth="yes"/>
      <point x="805" y="628"/>
      <point x="1134" y="579"/>
      <point x="1134" y="291" type="curve" smooth="yes"/>
      <point x="1134" y="92"/>
      <point x="999" y="-21"/>
      <point x="791" y="-21" type="curve" smooth="yes"/>
      <point x="701" y="-21"/>
      <point x="598" y="1"/>
      <point x="486" y="45" type="curve"/>
      <point x="486" y="45"/>
      <point x="544" y="220"/>
      <point x="544" y="220" type="curve"/>
      <point x="583" y="200"/>
      <point x="666" y="172"/>
      <point x="740" y="172" type="curve" smooth="yes"/>
      <point x="816" y="172"/>
      <point x="882" y="202"/>
      <point x="882" y="300" type="curve" smooth="yes"/>
      <point x="882" y="469"/>
      <point x="560" y="518"/>
      <point x="560" y="692" type="curve" smooth="yes"/>
      <point x="560" y="848"/>
      <point x="743" y="892"/>
      <point x="743" y="1046" type="curve" smooth="yes"/>
      <point x="743" y="1125"/>
      <point x="675" y="1175"/>
      <point x="575" y="1175" type="curve" smooth="yes"/>
      <point x="425" y="1175"/>
      <point x="380" y="1083"/>
      <point x="380" y="929" type="curve" smooth="yes"/>
    </contour>
  </outline>
</glyph>
<glyph name="ae" format="1">
  <advance width="1607"/>
  <unicode hex="00E6"/>
  <outline>
    <contour>
      <point x="405" y="-19" type="curve" smooth="yes"/>
      <point x="573" y="-19"/>
      <point x="730" y="45"/>
      <point x="813" y="119" type="curve"/>
      <point x="885" y="32"/>
      <point x="977" y="-18"/>
      <point x="1138" y="-18" type="curve" smooth="yes"/>
      <point x="1301" y="-18"/>
      <point x="1402" y="17"/>
      <point x="1483" y="84" type="curve"/>
      <point x="1411" y="247" type="line"/>
      <point x="1356" y="209"/>
      <point x="1266" y="168"/>
      <point x="1154" y="168" type="curve"/>
      <point x="998" y="170"/>
      <point x="927" y="245"/>
      <point x="917" y="426" type="curve"/>
      <point x="1404" y="426"/>
      <point x="1517" y="584"/>
      <point x="1517" y="723" type="curve" smooth="yes"/>
      <point x="1517.0" y="876.587168342"/>
      <point x="1432.72842216" y="1049.0"/>
      <point x="1152" y="1049" type="curve" smooth="yes"/>
      <point x="1015" y="1049"/>
      <point x="892" y="983"/>
      <point x="826" y="901" type="curve"/>
      <point x="784" y="998"/>
      <point x="687" y="1049"/>
      <point x="546" y="1049" type="curve" smooth="yes"/>
      <point x="389.948726375" y="1049.0"/>
      <point x="220.764114689" y="1003.99966499"/>
      <point x="129" y="952" type="curve"/>
      <point x="197" y="788" type="line"/>
      <point x="258" y="812"/>
      <point x="401" y="861"/>
      <point x="512" y="861" type="curve"/>
      <point x="637" y="855"/>
      <point x="677" y="802"/>
      <point x="677" y="687" type="curve" smooth="yes"/>
      <point x="677" y="592" type="line"/>
      <point x="581" y="592" type="line" smooth="yes"/>
      <point x="292" y="592"/>
      <point x="96" y="526"/>
      <point x="96" y="297" type="curve" smooth="yes"/>
      <point x="96" y="119"/>
      <point x="215" y="-19"/>
    </contour>
    <contour>
      <point x="439" y="153" type="curve" smooth="yes"/>
      <point x="362" y="153"/>
      <point x="324" y="196"/>
      <point x="324" y="281" type="curve" smooth="yes"/>
      <point x="324" y="369"/>
      <point x="386" y="426"/>
      <point x="563" y="426" type="curve" smooth="yes"/>
      <point x="682" y="426" type="line"/>
      <point x="686" y="363"/>
      <point x="708" y="283"/>
      <point x="719" y="256" type="curve"/>
      <point x="642" y="197"/>
      <point x="526" y="153"/>
    </contour>
    <contour>
      <point x="918" y="592" type="curve"/>
      <point x="940" y="823"/>
      <point x="1070" y="881"/>
      <point x="1173" y="881" type="curve" smooth="yes"/>
      <point x="1267" y="881"/>
      <point x="1322" y="833"/>
      <point x="1322" y="739" type="curve" smooth="yes"/>
      <point x="1322" y="651"/>
      <point x="1233" y="592"/>
    </contour>
  </outline>
</glyph>
<glyph name="ccedilla" format="1">
  <advance width="993"/>
  <unicode hex="00E7"/>
  <outline>
    <contour>
      <point x="322" y="-363" type="line"/>
      <point x="532" y="-363" type="line"/>
      <point x="584" y="-18" type="line"/>
      <point x="601" y="-18" type="line" smooth="yes"/>
      <point x="792" y="-18"/>
      <point x="859" y="45"/>
      <point x="895" y="64" type="curve"/>
      <point x="862" y="247" type="line"/>
      <point x="791" y="207"/>
      <point x="717" y="178"/>
      <point x="627" y="183" type="curve" smooth="yes"/>
      <point x="482" y="190"/>
      <point x="375" y="292"/>
      <point x="375" y="513" type="curve" smooth="yes"/>
      <point x="375" y="735"/>
      <point x="490" y="833"/>
      <point x="634" y="840" type="curve"/>
      <point x="768" y="840"/>
      <point x="807" y="797"/>
      <point x="845" y="781" type="curve"/>
      <point x="905" y="959" type="line"/>
      <point x="819" y="1013"/>
      <point x="722" y="1041"/>
      <point x="604" y="1041" type="curve" smooth="yes"/>
      <point x="327" y="1041"/>
      <point x="119" y="856"/>
      <point x="119" y="516" type="curve" smooth="yes"/>
      <point x="119" y="220"/>
      <point x="255" y="40"/>
      <point x="479" y="-6" type="curve"/>
      <point x="438" y="-6" type="line"/>
    </contour>
  </outline>
</glyph>
<glyph name="otilde" format="1">
  <advance width="1198"/>
  <unicode hex="00F5"/>
  <outline>
    <contour>
      <point x="430" y="1163" type="line"/>
      <point x="430" y="1163"/>
      <point x="445" y="1253"/>
      <point x="466" y="1253" type="curve" smooth="yes"/>
      <point x="523" y="1253"/>
      <point x="655" y="1163"/>
      <point x="756" y="1163" type="curve" smooth="yes"/>
      <point x="904" y="1163"/>
      <point x="914" y="1405"/>
      <point x="914" y="1405" type="curve"/>
      <point x="764" y="1405" type="line"/>
      <point x="764" y="1405"/>
      <point x="752" y="1321"/>
      <point x="732" y="1320" type="curve"/>
      <point x="701" y="1320"/>
      <point x="567" y="1405"/>
      <point x="446" y="1405" type="curve" smooth="yes"/>
      <point x="298" y="1405"/>
      <point x="284" y="1267"/>
      <point x="284" y="1173" type="curve"/>
    </contour>
    <contour>
      <point x="823" y="289"/>
      <point x="749" y="178"/>
      <point x="599" y="178" type="curve" smooth="yes"/>
      <point x="448" y="178"/>
      <point x="375" y="290"/>
      <point x="375" y="511" type="curve" smooth="yes"/>
      <point x="375" y="729"/>
      <point x="450" y="844"/>
      <point x="599" y="844" type="curve" smooth="yes"/>
      <point x="750" y="844"/>
      <point x="823" y="730"/>
      <point x="823" y="512" type="curve" smooth="yes"/>
    </contour>
    <contour>
      <point x="119" y="190"/>
      <point x="304" y="-18"/>
      <point x="599" y="-18" type="curve" smooth="yes"/>
      <point x="907" y="-18"/>
      <point x="1079" y="185"/>
      <point x="1079" y="512" type="curve" smooth="yes"/>
      <point x="1079" y="835"/>
      <point x="896" y="1041"/>
      <point x="599" y="1041" type="curve" smooth="yes"/>
      <point x="291" y="1041"/>
      <point x="119" y="843"/>
      <point x="119" y="512" type="curve" smooth="yes"/>
    </contour>
  </outline>
</glyph>
<glyph name="oslash" format="1">
  <advance width="1150"/>
  <unicode hex="00F8"/>
  <outline>
    <contour>
      <point x="276" y="-141" type="line"/>
      <point x="957" y="1108" type="line"/>
      <point x="882" y="1152" type="line"/>
      <point x="207" y="-96" type="line"/>
    </contour>
    <component base="o"/>
  </outline>
</glyph>
<glyph name="ucircumflex" format="1">
  <advance width="1198"/>
  <unicode hex="00FB"/>
  <outline>
    <contour>
      <point x="143" y="126"/>
      <point x="256" y="-24"/>
      <point x="491" y="-24" type="curve" smooth="yes"/>
      <point x="632" y="-24"/>
      <point x="735" y="40"/>
      <point x="811" y="125" type="curve"/>
      <point x="835" y="0" type="line"/>
      <point x="1039" y="0" type="line"/>
      <point x="1039" y="1016" type="line"/>
      <point x="783" y="1016" type="line"/>
      <point x="783" y="520" type="line" smooth="yes"/>
      <point x="783" y="305"/>
      <point x="753" y="172"/>
      <point x="556" y="172" type="curve" smooth="yes"/>
      <point x="430" y="172"/>
      <point x="399" y="253"/>
      <point x="399" y="404" type="curve" smooth="yes"/>
      <point x="399" y="1016" type="line"/>
      <point x="143" y="1016" type="line"/>
      <point x="143" y="377" type="line" smooth="yes"/>
    </contour>
    <contour>
      <point x="258" y="1163" type="line"/>
      <point x="438" y="1163" type="line"/>
      <point x="580" y="1357" type="line"/>
      <point x="738" y="1163" type="line"/>
      <point x="924" y="1163" type="line"/>
      <point x="688" y="1531" type="line"/>
      <point x="492" y="1531" type="line"/>
    </contour>
  </outline>
</glyph>
<glyph name="udieresis" format="1">
  <advance width="1198"/>
  <unicode hex="00FC"/>
  <outline>
    <contour>
      <point x="143" y="126"/>
      <point x="256" y="-24"/>
      <point x="491" y="-24" type="curve" smooth="yes"/>
      <point x="632" y="-24"/>
      <point x="735" y="40"/>
      <point x="811" y="125" type="curve"/>
      <point x="835" y="0" type="line"/>
      <point x="1039" y="0" type="line"/>
      <point x="1039" y="1016" type="line"/>
      <point x="783" y="1016" type="line"/>
      <point x="783" y="520" type="line" smooth="yes"/>
      <point x="783" y="305"/>
      <point x="753" y="172"/>
      <point x="556" y="172" type="curve" smooth="yes"/>
      <point x="430" y="172"/>
      <point x="399" y="253"/>
      <point x="399" y="404" type="curve" smooth="yes"/>
      <point x="399" y="1016" type="line"/>
      <point x="143" y="1016" type="line"/>
      <point x="143" y="377" type="line" smooth="yes"/>
    </contour>
    <contour>
      <point x="306" y="1163" type="line"/>
      <point x="500" y="1163" type="line"/>
      <point x="500" y="1408" type="line"/>
      <point x="306" y="1408" type="line"/>
    </contour>
    <contour>
      <point x="682" y="1163" type="line"/>
      <point x="876" y="1163" type="line"/>
      <point x="876" y="1408" type="line"/>
      <point x="682" y="1408" type="line"/>
    </contour>
  </outline>
</glyph>
<glyph name="yacute" format="1">
  <advance width="1103"/>
  <unicode hex="00FD"/>
  <outline>
    <contour>
      <point x="170" y="-398"/>
      <point x="212" y="-404"/>
      <point x="252" y="-404" type="curve" smooth="yes"/>
      <point x="449" y="-404"/>
      <point x="557" y="-323"/>
      <point x="641" y="-99" type="curve" smooth="yes"/>
      <point x="645" y="-90"/>
      <point x="1042" y="1002"/>
      <point x="1046" y="1016" type="curve"/>
      <point x="780" y="1016" type="line"/>
      <point x="566" y="297" type="line"/>
      <point x="325" y="1016" type="line"/>
      <point x="60" y="1016" type="line"/>
      <point x="446" y="28" type="line"/>
      <point x="433" y="-11"/>
      <point x="417" y="-39"/>
      <point x="406" y="-68" type="curve" smooth="yes"/>
      <point x="364" y="-178"/>
      <point x="323" y="-209"/>
      <point x="223" y="-209" type="curve" smooth="yes"/>
      <point x="189" y="-209"/>
      <point x="141" y="-205"/>
      <point x="111" y="-201" type="curve"/>
      <point x="123" y="-392" type="line"/>
    </contour>
    <contour>
      <point x="474" y="1163" type="line"/>
      <point x="632" y="1163" type="line"/>
      <point x="926" y="1524" type="line"/>
      <point x="634" y="1524" type="line"/>
    </contour>
  </outline>
</glyph>
<glyph name="thorn" format="1">
  <advance width="1157"/>
  <unicode hex="00FE"/>
  <outline>
    <contour>
      <point x="131" y="806" type="line"/>
      <point x="376" y="806" type="line"/>
      <point x="376" y="1326" type="line"/>
      <point x="131" y="1326" type="line"/>
    </contour>
    <component base="p"/>
  </outline>
</glyph>
<glyph name="Abreve" format="1">
  <advance width="1427"/>
  <unicode hex="0102"/>
  <outline>
    <contour>
      <point x="90" y="0" type="line"/>
      <point x="378" y="0" type="line"/>
      <point x="498" y="365" type="line"/>
      <point x="924" y="365" type="line"/>
      <point x="1051" y="0" type="line"/>
      <point x="1337" y="0" type="line"/>
      <point x="883" y="1336" type="line"/>
      <point x="545" y="1336" type="line"/>
    </contour>
    <contour>
      <point x="444" y="1557"/>
      <point x="560" y="1479"/>
      <point x="712" y="1479" type="curve" smooth="yes"/>
      <point x="865" y="1479"/>
      <point x="982" y="1556"/>
      <point x="982" y="1722" type="curve"/>
      <point x="814" y="1722" type="line"/>
      <point x="814" y="1661"/>
      <point x="786" y="1637"/>
      <point x="712" y="1637" type="curve" smooth="yes"/>
      <point x="638" y="1637"/>
      <point x="612" y="1661"/>
      <point x="612" y="1722" type="curve"/>
      <point x="444" y="1722" type="line"/>
    </contour>
    <contour>
      <point x="556" y="555" type="line"/>
      <point x="718" y="1093" type="line"/>
      <point x="868" y="555" type="line"/>
    </contour>
  </outline>
</glyph>
<glyph name="Cacute" format="1">
  <advance width="1253"/>
  <unicode hex="0106"/>
  <outline>
    <contour>
      <point x="132" y="236"/>
      <point x="406" y="-18"/>
      <point x="788" y="-18" type="curve" smooth="yes"/>
      <point x="933" y="-18"/>
      <point x="1025" y="13"/>
      <point x="1149" y="75" type="curve"/>
      <point x="1094" y="293" type="line"/>
      <point x="994" y="236"/>
      <point x="902" y="210"/>
      <point x="803" y="213" type="curve" smooth="yes"/>
      <point x="568" y="220"/>
      <point x="420" y="380"/>
      <point x="420" y="671" type="curve" smooth="yes"/>
      <point x="420" y="963"/>
      <point x="598" y="1110"/>
      <point x="765" y="1123" type="curve" smooth="yes"/>
      <point x="883" y="1132"/>
      <point x="996" y="1088"/>
      <point x="1092" y="1033" type="curve"/>
      <point x="1175" y="1247" type="line"/>
      <point x="1053" y="1318"/>
      <point x="918" y="1357"/>
      <point x="779" y="1357" type="curve" smooth="yes"/>
      <point x="404" y="1357"/>
      <point x="132" y="1114"/>
      <point x="132" y="677" type="curve" smooth="yes"/>
    </contour>
    <contour>
      <point x="575" y="1479" type="line"/>
      <point x="732" y="1479" type="line"/>
      <point x="1027" y="1840" type="line"/>
      <point x="735" y="1840" type="line"/>
    </contour>
  </outline>
</glyph>
<glyph name="cacute" format="1">
  <advance width="993"/>
  <unicode hex="0107"/>
  <outline>
    <contour>
      <point x="119" y="170"/>
      <point x="306" y="-18"/>
      <point x="601" y="-18" type="curve" smooth="yes"/>
      <point x="792" y="-18"/>
      <point x="859" y="45"/>
      <point x="895" y="64" type="curve"/>
      <point x="862" y="247" type="line"/>
      <point x="791" y="207"/>
      <point x="717" y="178"/>
      <point x="627" y="183" type="curve" smooth="yes"/>
      <point x="482" y="190"/>
      <point x="375" y="292"/>
      <point x="375" y="513" type="curve" smooth="yes"/>
      <point x="375" y="735"/>
      <point x="490" y="833"/>
      <point x="634" y="840" type="curve"/>
      <point x="768" y="840"/>
      <point x="807" y="797"/>
      <point x="845" y="781" type="curve"/>
      <point x="905" y="959" type="line"/>
      <point x="819" y="1013"/>
      <point x="722" y="1041"/>
      <point x="604" y="1041" type="curve" smooth="yes"/>
      <point x="327" y="1041"/>
      <point x="119" y="856"/>
      <point x="119" y="516" type="curve" smooth="yes"/>
    </contour>
    <contour>
      <point x="434" y="1163" type="line"/>
      <point x="590" y="1163" type="line"/>
      <point x="886" y="1524" type="line"/>
      <point x="594" y="1524" type="line"/>
    </contour>
  </outline>
</glyph>
<glyph name="ccaron" format="1">
  <advance width="993"/>
  <unicode hex="010D"/>
  <outline>
    <contour>
      <point x="119" y="170"/>
      <point x="306" y="-18"/>
      <point x="601" y="-18" type="curve" smooth="yes"/>
      <point x="792" y="-18"/>
      <point x="859" y="45"/>
      <point x="895" y="64" type="curve"/>
      <point x="862" y="247" type="line"/>
      <point x="791" y="207"/>
      <point x="717" y="178"/>
      <point x="627" y="183" type="curve" smooth="yes"/>
      <point x="482" y="190"/>
      <point x="375" y="292"/>
      <point x="375" y="513" type="curve" smooth="yes"/>
      <point x="375" y="735"/>
      <point x="490" y="833"/>
      <point x="634" y="840" type="curve"/>
      <point x="768" y="840"/>
      <point x="807" y="797"/>
      <point x="845" y="781" type="curve"/>
      <point x="905" y="959" type="line"/>
      <point x="819" y="1013"/>
      <point x="722" y="1041"/>
      <point x="604" y="1041" type="curve" smooth="yes"/>
      <point x="327" y="1041"/>
      <point x="119" y="856"/>
      <point x="119" y="516" type="curve" smooth="yes"/>
    </contour>
    <contour>
      <point x="417" y="1163" type="line"/>
      <point x="607" y="1163" type="line"/>
      <point x="855" y="1500" type="line"/>
      <point x="650" y="1500" type="line"/>
      <point x="500" y="1329" type="line"/>
      <point x="370" y="1500" type="line"/>
      <point x="169" y="1500" type="line"/>
    </contour>
  </outline>
</glyph>
<glyph name="Dcroat" format="1">
  <advance width="1450"/>
  <unicode hex="0110"/>
  <outline>
    <component base="D"/>
    <contour>
      <point x="57" y="652" type="line"/>
      <point x="544" y="652" type="line"/>
      <point x="544" y="737" type="line"/>
      <point x="57" y="737" type="line"/>
    </contour>
  </outline>
</glyph>
<glyph name="ebreve" format="1">
  <advance width="1119"/>
  <unicode hex="0115"/>
  <outline>
    <contour>
      <point x="119" y="183"/>
      <point x="308" y="-18"/>
      <point x="623" y="-18" type="curve" smooth="yes"/>
      <point x="779" y="-18"/>
      <point x="883" y="2"/>
      <point x="979" y="63" type="curve"/>
      <point x="944" y="243" type="line"/>
      <point x="902" y="224"/>
      <point x="810" y="174"/>
      <point x="647" y="174" type="curve" smooth="yes"/>
      <point x="474" y="174"/>
      <point x="391" y="273"/>
      <point x="378" y="448" type="curve"/>
      <point x="1011" y="448" type="line"/>
      <point x="1011" y="448"/>
      <point x="1018" y="543"/>
      <point x="1018" y="558" type="curve" smooth="yes"/>
      <point x="1018" y="840"/>
      <point x="865" y="1041"/>
      <point x="586" y="1041" type="curve" smooth="yes"/>
      <point x="297" y="1040"/>
      <point x="119" y="830"/>
      <point x="119" y="512" type="curve" smooth="yes"/>
    </contour>
    <contour>
      <point x="300" y="1241"/>
      <point x="416" y="1163"/>
      <point x="568" y="1163" type="curve" smooth="yes"/>
      <point x="721" y="1163"/>
      <point x="838" y="1240"/>
      <point x="838" y="1406" type="curve"/>
      <point x="668" y="1406" type="line"/>
      <point x="668" y="1345"/>
      <point x="642" y="1321"/>
      <point x="568" y="1321" type="curve" smooth="yes"/>
      <point x="494" y="1321"/>
      <point x="468" y="1345"/>
      <point x="468" y="1406" type="curve"/>
      <point x="300" y="1406" type="line"/>
    </contour>
    <contour>
      <point x="384" y="613" type="line"/>
      <point x="403" y="774"/>
      <point x="484" y="854"/>
      <point x="587" y="854" type="curve" smooth="yes"/>
      <point x="704" y="854"/>
      <point x="774" y="760"/>
      <point x="778" y="613" type="curve"/>
    </contour>
  </outline>
</glyph>
<glyph name="eogonek" format="1">
  <advance width="1119"/>
  <unicode hex="0119"/>
  <outline>
    <contour>
      <point x="604" y="-18" type="line" smooth="yes"/>
      <point x="623" y="-18" type="line" smooth="yes"/>
      <point x="779" y="-18"/>
      <point x="883" y="2"/>
      <point x="979" y="63" type="curve"/>
      <point x="944" y="243" type="line"/>
      <point x="902" y="224"/>
      <point x="810" y="174"/>
      <point x="647" y="174" type="curve" smooth="yes"/>
      <point x="474" y="174"/>
      <point x="391" y="273"/>
      <point x="378" y="448" type="curve"/>
      <point x="1011" y="448" type="line"/>
      <point x="1011" y="448"/>
      <point x="1018" y="543"/>
      <point x="1018" y="558" type="curve" smooth="yes"/>
      <point x="1018" y="840"/>
      <point x="865" y="1041"/>
      <point x="586" y="1041" type="curve" smooth="yes"/>
      <point x="297" y="1040"/>
      <point x="119" y="830"/>
      <point x="119" y="512" type="curve" smooth="yes"/>
      <point x="119" y="225"/>
      <point x="262" y="36"/>
      <point x="508" y="-8" type="curve"/>
      <point x="510" y="-7"/>
      <point x="513" y="-5"/>
      <point x="515" y="-4" type="curve"/>
    </contour>
    <contour>
      <point x="341" y="-357"/>
      <point x="432" y="-411"/>
      <point x="536" y="-411" type="curve" smooth="yes"/>
      <point x="595" y="-411"/>
      <point x="656" y="-396"/>
      <point x="711" y="-375" type="curve"/>
      <point x="711" y="-375"/>
      <point x="704" y="-234"/>
      <point x="703" y="-234" type="curve" smooth="yes"/>
      <point x="691" y="-239"/>
      <point x="632" y="-265"/>
      <point x="580" y="-265" type="curve" smooth="yes"/>
      <point x="542" y="-265"/>
      <point x="516" y="-230"/>
      <point x="516" y="-196" type="curve" smooth="yes"/>
      <point x="516" y="-141"/>
      <point x="548" y="-77"/>
      <point x="622" y="-20" type="curve"/>
      <point x="604" y="-18" type="line"/>
      <point x="571" y="-17"/>
      <point x="538" y="-13"/>
      <point x="508" y="-8" type="curve"/>
      <point x="437" y="-50"/>
      <point x="341" y="-124"/>
      <point x="341" y="-243" type="curve" smooth="yes"/>
    </contour>
    <contour>
      <point x="384" y="613" type="line"/>
      <point x="403" y="774"/>
      <point x="484" y="854"/>
      <point x="587" y="854" type="curve" smooth="yes"/>
      <point x="704" y="854"/>
      <point x="774" y="760"/>
      <point x="778" y="613" type="curve"/>
    </contour>
  </outline>
</glyph>
<glyph name="Ecaron" format="1">
  <advance width="1164"/>
  <unicode hex="011A"/>
  <outline>
    <contour>
      <point x="202" y="0" type="line"/>
      <point x="1025" y="0" type="line"/>
      <point x="1042" y="216" type="line"/>
      <point x="490" y="216" type="line"/>
      <point x="490" y="595" type="line"/>
      <point x="994" y="595" type="line"/>
      <point x="994" y="805" type="line"/>
      <point x="490" y="805" type="line"/>
      <point x="490" y="1126" type="line"/>
      <point x="1021" y="1126" type="line"/>
      <point x="1032" y="1336" type="line"/>
      <point x="202" y="1336" type="line"/>
    </contour>
    <contour>
      <point x="527" y="1479" type="line"/>
      <point x="717" y="1479" type="line"/>
      <point x="965" y="1816" type="line"/>
      <point x="760" y="1816" type="line"/>
      <point x="610" y="1645" type="line"/>
      <point x="480" y="1816" type="line"/>
      <point x="279" y="1816" type="line"/>
    </contour>
  </outline>
</glyph>
<glyph name="hbar" format="1">
  <advance width="1138"/>
  <unicode hex="0127"/>
  <outline>
    <contour>
      <point x="595" y="1108" type="line"/>
      <point x="595" y="1249" type="line"/>
      <point x="-1" y="1249" type="line"/>
      <point x="-1" y="1108" type="line"/>
    </contour>
    <component base="h"/>
  </outline>
</glyph>
<glyph name="Iogonek" format="1">
  <advance width="692"/>
  <unicode hex="012E"/>
  <outline>
    <contour>
      <point x="118" y="-339"/>
      <point x="210" y="-393"/>
      <point x="314" y="-393" type="curve" smooth="yes"/>
      <point x="373" y="-393"/>
      <point x="433" y="-378"/>
      <point x="488" y="-357" type="curve"/>
      <point x="488" y="-357"/>
      <point x="481" y="-216"/>
      <point x="480" y="-216" type="curve" smooth="yes"/>
      <point x="468" y="-221"/>
      <point x="410" y="-247"/>
      <point x="358" y="-247" type="curve" smooth="yes"/>
      <point x="320" y="-247"/>
      <point x="294" y="-212"/>
      <point x="294" y="-178" type="curve" smooth="yes"/>
      <point x="294" y="-123"/>
      <point x="326" y="-59"/>
      <point x="400" y="-2" type="curve"/>
      <point x="383" y="0" type="line"/>
      <point x="490" y="0" type="line"/>
      <point x="490" y="1336" type="line"/>
      <point x="202" y="1336" type="line"/>
      <point x="202" y="0" type="line"/>
      <point x="270" y="0" type="line"/>
      <point x="202" y="-43"/>
      <point x="118" y="-114"/>
      <point x="118" y="-225" type="curve" smooth="yes"/>
    </contour>
  </outline>
</glyph>
<glyph name="dotlessi" format="1">
  <advance width="521"/>
  <unicode hex="0131"/>
  <outline>
    <contour>
      <point x="137" y="0" type="line"/>
      <point x="393" y="0" type="line"/>
      <point x="393" y="1016" type="line"/>
      <point x="137" y="1016" type="line"/>
    </contour>
  </outline>
</glyph>
<glyph name="Jcircumflex" format="1">
  <advance width="780"/>
  <unicode hex="0134"/>
  <outline>
    <contour>
      <point x="-30" y="1479" type="line"/>
      <point x="150" y="1479" type="line"/>
      <point x="292" y="1673" type="line"/>
      <point x="450" y="1479" type="line"/>
      <point x="636" y="1479" type="line"/>
      <point x="400" y="1847" type="line"/>
      <point x="204" y="1847" type="line"/>
    </contour>
    <contour>
      <point x="40" y="-285" type="line"/>
      <point x="401" y="-282"/>
      <point x="578" y="-153"/>
      <point x="578" y="144" type="curve" smooth="yes"/>
      <point x="578" y="1336" type="line"/>
      <point x="290" y="1336" type="line"/>
      <point x="290" y="126" type="line" smooth="yes"/>
      <point x="290" y="-21"/>
      <point x="207" y="-69"/>
      <point x="28" y="-75" type="curve"/>
    </contour>
  </outline>
</glyph>
<glyph name="jcircumflex" format="1">
  <advance width="461"/>
  <unicode hex="0135"/>
  <outline>
    <contour>
      <point x="-39" y="-322" type="line"/>
      <point x="6" y="-322" type="line" smooth="yes"/>
      <point x="310" y="-322"/>
      <point x="379" y="-183"/>
      <point x="379" y="99" type="curve" smooth="yes"/>
      <point x="379" y="988" type="line"/>
      <point x="148" y="988" type="line"/>
      <point x="148" y="61" type="line" smooth="yes"/>
      <point x="148" y="-88"/>
      <point x="137" y="-127"/>
      <point x="-3" y="-127" type="curve" smooth="yes"/>
      <point x="-44" y="-127" type="line"/>
    </contour>
    <contour>
      <point x="-166" y="1163" type="line"/>
      <point x="15" y="1163" type="line"/>
      <point x="157" y="1357" type="line"/>
      <point x="315" y="1163" type="line"/>
      <point x="501" y="1163" type="line"/>
      <point x="265" y="1531" type="line"/>
      <point x="69" y="1531" type="line"/>
    </contour>
  </outline>
</glyph>
<glyph name="kcommaaccent" format="1">
  <advance width="1158"/>
  <unicode hex="0137"/>
  <outline>
    <contour>
      <point x="159" y="0" type="line"/>
      <point x="415" y="0" type="line"/>
      <point x="415" y="354" type="line"/>
      <point x="499" y="432" type="line"/>
      <point x="818" y="0" type="line"/>
      <point x="1119" y="0" type="line"/>
      <point x="706" y="555" type="line"/>
      <point x="1095" y="1016" type="line"/>
      <point x="772" y="1016" type="line"/>
      <point x="410" y="582" type="line"/>
      <point x="415" y="785" type="line"/>
      <point x="415" y="1392" type="line"/>
      <point x="159" y="1376" type="line"/>
    </contour>
    <contour>
      <point x="478" y="-601" type="line"/>
      <point x="646" y="-601" type="line"/>
      <point x="800" y="-122" type="line"/>
      <point x="578" y="-122" type="line"/>
    </contour>
  </outline>
</glyph>
<glyph name="kgreenlandic" format="1">
  <advance width="1098"/>
  <unicode hex="0138"/>
  <outline>
    <contour>
      <point x="128" y="0" type="line"/>
      <point x="384" y="0" type="line"/>
      <point x="384" y="421" type="line"/>
      <point x="324" y="294" type="line"/>
      <point x="512" y="473" type="line"/>
      <point x="439" y="473" type="line"/>
      <point x="789" y="0" type="line"/>
      <point x="1088" y="0" type="line"/>
      <point x="621" y="615" type="line"/>
      <point x="621" y="501" type="line"/>
      <point x="1074" y="1016" type="line"/>
      <point x="765" y="1016" type="line"/>
      <point x="334" y="529" type="line"/>
      <point x="377" y="529" type="line"/>
      <point x="384" y="785" type="line"/>
      <point x="384" y="1016" type="line"/>
      <point x="128" y="1016" type="line"/>
    </contour>
  </outline>
</glyph>
<glyph name="lcommaaccent" format="1">
  <advance width="729"/>
  <unicode hex="013C"/>
  <outline>
    <contour>
      <point x="159" y="124"/>
      <point x="222" y="-13"/>
      <point x="499" y="-13" type="curve" smooth="yes"/>
      <point x="574" y="-13"/>
      <point x="642" y="4"/>
      <point x="649" y="7" type="curve"/>
      <point x="618" y="187" type="line"/>
      <point x="597" y="185"/>
      <point x="564" y="178"/>
      <point x="535" y="178" type="curve" smooth="yes"/>
      <point x="450" y="178"/>
      <point x="415" y="205"/>
      <point x="415" y="404" type="curve" smooth="yes"/>
      <point x="415" y="1393" type="line"/>
      <point x="159" y="1376" type="line"/>
      <point x="159" y="401" type="line" smooth="yes"/>
    </contour>
    <contour>
      <point x="242" y="-614" type="line"/>
      <point x="410" y="-614" type="line"/>
      <point x="566" y="-135" type="line"/>
      <point x="344" y="-135" type="line"/>
    </contour>
  </outline>
</glyph>
<glyph name="lcaron" format="1">
  <advance width="729"/>
  <unicode hex="013E"/>
  <outline>
    <contour>
      <point x="159" y="124"/>
      <point x="222" y="-13"/>
      <point x="499" y="-13" type="curve" smooth="yes"/>
      <point x="574" y="-13"/>
      <point x="642" y="4"/>
      <point x="649" y="7" type="curve"/>
      <point x="618" y="187" type="line"/>
      <point x="597" y="185"/>
      <point x="564" y="178"/>
      <point x="535" y="178" type="curve" smooth="yes"/>
      <point x="450" y="178"/>
      <point x="415" y="205"/>
      <point x="415" y="404" type="curve" smooth="yes"/>
      <point x="415" y="1393" type="line"/>
      <point x="159" y="1376" type="line"/>
      <point x="159" y="401" type="line" smooth="yes"/>
    </contour>
    <contour>
      <point x="838" y="913" type="line"/>
      <point x="983" y="913" type="line"/>
      <point x="1034" y="1393" type="line"/>
      <point x="832" y="1393" type="line"/>
    </contour>
  </outline>
</glyph>
<glyph name="lslash" format="1">
  <advance width="678"/>
  <unicode hex="0142"/>
  <outline>
    <contour>
      <point x="567" y="859" type="line"/>
      <point x="567" y="1049" type="line"/>
      <point x="11" y="747" type="line"/>
      <point x="11" y="559" type="line"/>
    </contour>
    <component base="l"/>
  </outline>
</glyph>
<glyph name="nacute" format="1">
  <advance width="1203"/>
  <unicode hex="0144"/>
  <outline>
    <contour>
      <point x="159" y="0" type="line"/>
      <point x="415" y="0" type="line"/>
      <point x="415" y="496" type="line" smooth="yes"/>
      <point x="415" y="709"/>
      <point x="452" y="844"/>
      <point x="647" y="844" type="curve" smooth="yes"/>
      <point x="773" y="844"/>
      <point x="803" y="761"/>
      <point x="804" y="612" type="curve"/>
      <point x="804" y="0" type="line"/>
      <point x="1060" y="0" type="line"/>
      <point x="1060" y="640" type="line" smooth="yes"/>
      <point x="1060" y="891"/>
      <point x="947" y="1041"/>
      <point x="712" y="1041" type="curve" smooth="yes"/>
      <point x="571" y="1041"/>
      <point x="471" y="979"/>
      <point x="391" y="902" type="curve"/>
      <point x="367" y="1016" type="line"/>
      <point x="159" y="1016" type="line"/>
    </contour>
    <contour>
      <point x="531" y="1163" type="line"/>
      <point x="688" y="1163" type="line"/>
      <point x="983" y="1524" type="line"/>
      <point x="691" y="1524" type="line"/>
    </contour>
  </outline>
</glyph>
<glyph name="Ncaron" format="1">
  <advance width="1541"/>
  <unicode hex="0147"/>
  <outline>
    <contour>
      <point x="202" y="0" type="line"/>
      <point x="479" y="0" type="line"/>
      <point x="479" y="409" type="line" smooth="yes"/>
      <point x="479" y="430"/>
      <point x="451" y="961"/>
      <point x="451" y="961" type="curve"/>
      <point x="1036" y="0" type="line"/>
      <point x="1339" y="0" type="line"/>
      <point x="1339" y="1336" type="line"/>
      <point x="1068" y="1336" type="line"/>
      <point x="1068" y="795" type="line" smooth="yes"/>
      <point x="1068" y="787"/>
      <point x="1087" y="350"/>
      <point x="1087" y="350" type="curve"/>
      <point x="494" y="1336" type="line"/>
      <point x="202" y="1336" type="line"/>
    </contour>
    <contour>
      <point x="676" y="1479" type="line"/>
      <point x="866" y="1479" type="line"/>
      <point x="1114" y="1816" type="line"/>
      <point x="908" y="1816" type="line"/>
      <point x="758" y="1645" type="line"/>
      <point x="628" y="1816" type="line"/>
      <point x="428" y="1816" type="line"/>
    </contour>
  </outline>
</glyph>
<glyph name="eng" format="1">
  <advance width="1175"/>
  <unicode hex="014B"/>
  <outline>
    <contour>
      <point x="616.0" y="-332.0" type="line"/>
      <point x="679.0" y="-332.0" type="line" smooth="yes"/>
      <point x="996.0" y="-332.0"/>
      <point x="1056.0" y="-185.0"/>
      <point x="1057.0" y="101.0" type="curve"/>
      <point x="1057.0" y="380.0" type="line" smooth="yes"/>
      <point x="801.0" y="352.0" type="line"/>
      <point x="801.0" y="54.0" type="line" smooth="yes"/>
      <point x="801.0" y="-109.0"/>
      <point x="786.0" y="-141.0"/>
      <point x="650.0" y="-141.0" type="curve" smooth="yes"/>
      <point x="590.0" y="-141.0" type="line"/>
    </contour>
    <component base="n"/>
  </outline>
</glyph>
<glyph name="oe" format="1">
  <advance width="1836"/>
  <unicode hex="0153"/>
  <outline>
    <contour>
      <point x="1082.0" y="570.0" type="line"/>
      <point x="1082.0" y="769.0"/>
      <point x="1212" y="854"/>
      <point x="1315" y="854" type="curve" smooth="yes"/>
      <point x="1432" y="854"/>
      <point x="1502" y="763"/>
      <point x="1506" y="573" type="curve"/>
      <point x="1545" y="613" type="line"/>
      <point x="1029.0" y="613.0" type="line"/>
    </contour>
    <contour>
      <point x="573.0" y="178.0" type="curve" smooth="yes"/>
      <point x="422.0" y="178.0"/>
      <point x="340" y="291"/>
      <point x="340" y="512" type="curve" smooth="yes"/>
      <point x="340" y="730"/>
      <point x="424.0" y="844.0"/>
      <point x="573.0" y="844.0" type="curve" smooth="yes"/>
      <point x="724.0" y="844.0"/>
      <point x="817.0" y="730.0"/>
      <point x="817.0" y="512.0" type="curve" smooth="yes"/>
      <point x="817.0" y="289.0"/>
      <point x="723.0" y="178.0"/>
    </contour>
    <contour>
      <point x="1719" y="70" type="curve"/>
      <point x="1684" y="250" type="line"/>
      <point x="1642" y="231"/>
      <point x="1538" y="174"/>
      <point x="1375" y="174" type="curve" smooth="yes"/>
      <point x="1214" y="174"/>
      <point x="1094" y="260"/>
      <point x="1078" y="448" type="curve"/>
      <point x="1739" y="448" type="line"/>
      <point x="1739" y="448"/>
      <point x="1746" y="543"/>
      <point x="1746" y="558" type="curve" smooth="yes"/>
      <point x="1746" y="840"/>
      <point x="1592" y="1041"/>
      <point x="1313" y="1041" type="curve" smooth="yes"/>
      <point x="1132" y="1041"/>
      <point x="1012" y="968"/>
      <point x="911" y="787" type="curve"/>
      <point x="982" y="787" type="line"/>
      <point x="903" y="966"/>
      <point x="756" y="1041"/>
      <point x="573" y="1041" type="curve" smooth="yes"/>
      <point x="265" y="1041"/>
      <point x="84" y="843"/>
      <point x="84" y="512" type="curve" smooth="yes"/>
      <point x="84" y="190"/>
      <point x="278" y="-18"/>
      <point x="573" y="-18" type="curve" smooth="yes"/>
      <point x="802" y="-18"/>
      <point x="913" y="95"/>
      <point x="986" y="254" type="curve"/>
      <point x="907" y="254" type="line"/>
      <point x="966" y="107"/>
      <point x="1086" y="-18"/>
      <point x="1351" y="-18" type="curve" smooth="yes"/>
      <point x="1507" y="-18"/>
      <point x="1623" y="9"/>
    </contour>
  </outline>
</glyph>
<glyph name="Tcaron" format="1">
  <advance width="1164"/>
  <unicode hex="0164"/>
  <outline>
    <contour>
      <point x="440" y="0" type="line"/>
      <point x="728" y="0" type="line"/>
      <point x="728" y="1126" type="line"/>
      <point x="1099" y="1126" type="line"/>
      <point x="1099" y="1336" type="line"/>
      <point x="65" y="1336" type="line"/>
      <point x="65" y="1126" type="line"/>
      <point x="440" y="1126" type="line"/>
    </contour>
    <contour>
      <point x="487" y="1479" type="line"/>
      <point x="677" y="1479" type="line"/>
      <point x="925" y="1816" type="line"/>
      <point x="720" y="1816" type="line"/>
      <point x="570" y="1645" type="line"/>
      <point x="440" y="1816" type="line"/>
      <point x="239" y="1816" type="line"/>
    </contour>
  </outline>
</glyph>
<glyph name="Utilde" format="1">
  <advance width="1440"/>
  <unicode hex="0168"/>
  <outline>
    <contour>
      <point x="169" y="170"/>
      <point x="372" y="-18"/>
      <point x="720" y="-18" type="curve" smooth="yes"/>
      <point x="1067" y="-18"/>
      <point x="1271" y="172"/>
      <point x="1271" y="484" type="curve" smooth="yes"/>
      <point x="1271" y="1336" type="line"/>
      <point x="983" y="1336" type="line"/>
      <point x="983" y="505" type="line" smooth="yes"/>
      <point x="983" y="310"/>
      <point x="902" y="213"/>
      <point x="720" y="213" type="curve" smooth="yes"/>
      <point x="544" y="213"/>
      <point x="457" y="309"/>
      <point x="457" y="504" type="curve" smooth="yes"/>
      <point x="457" y="1336" type="line"/>
      <point x="169" y="1336" type="line"/>
      <point x="169" y="485" type="line" smooth="yes"/>
    </contour>
    <contour>
      <point x="552" y="1479" type="line"/>
      <point x="552" y="1479"/>
      <point x="565" y="1569"/>
      <point x="586" y="1569" type="curve" smooth="yes"/>
      <point x="643" y="1569"/>
      <point x="777" y="1479"/>
      <point x="878" y="1479" type="curve" smooth="yes"/>
      <point x="1026" y="1479"/>
      <point x="1036" y="1721"/>
      <point x="1036" y="1721" type="curve"/>
      <point x="886" y="1721" type="line"/>
      <point x="886" y="1721"/>
      <point x="874" y="1637"/>
      <point x="854" y="1636" type="curve"/>
      <point x="823" y="1636"/>
      <point x="687" y="1721"/>
      <point x="566" y="1721" type="curve" smooth="yes"/>
      <point x="418" y="1721"/>
      <point x="404" y="1583"/>
      <point x="404" y="1489" type="curve"/>
    </contour>
  </outline>
</glyph>
<glyph name="Umacron" format="1">
  <advance width="1440"/>
  <unicode hex="016A"/>
  <outline>
    <contour>
      <point x="169" y="170"/>
      <point x="372" y="-18"/>
      <point x="720" y="-18" type="curve" smooth="yes"/>
      <point x="1067" y="-18"/>
      <point x="1271" y="172"/>
      <point x="1271" y="484" type="curve" smooth="yes"/>
      <point x="1271" y="1336" type="line"/>
      <point x="983" y="1336" type="line"/>
      <point x="983" y="505" type="line" smooth="yes"/>
      <point x="983" y="310"/>
      <point x="902" y="213"/>
      <point x="720" y="213" type="curve" smooth="yes"/>
      <point x="544" y="213"/>
      <point x="457" y="309"/>
      <point x="457" y="504" type="curve" smooth="yes"/>
      <point x="457" y="1336" type="line"/>
      <point x="169" y="1336" type="line"/>
      <point x="169" y="485" type="line" smooth="yes"/>
    </contour>
    <contour>
      <point x="396" y="1479" type="line"/>
      <point x="1044" y="1479" type="line"/>
      <point x="1044" y="1638" type="line"/>
      <point x="396" y="1638" type="line"/>
    </contour>
  </outline>
</glyph>
<glyph name="Uogonek" format="1">
  <advance width="1440"/>
  <unicode hex="0172"/>
  <outline>
    <contour>
      <point x="492" y="-357"/>
      <point x="584" y="-411"/>
      <point x="688" y="-411" type="curve" smooth="yes"/>
      <point x="747" y="-411"/>
      <point x="807" y="-396"/>
      <point x="862" y="-375" type="curve"/>
      <point x="862" y="-375"/>
      <point x="855" y="-234"/>
      <point x="854" y="-234" type="curve" smooth="yes"/>
      <point x="842" y="-239"/>
      <point x="784" y="-265"/>
      <point x="732" y="-265" type="curve" smooth="yes"/>
      <point x="694" y="-265"/>
      <point x="668" y="-230"/>
      <point x="668" y="-196" type="curve" smooth="yes"/>
      <point x="668" y="-141"/>
      <point x="700" y="-77"/>
      <point x="774" y="-20" type="curve"/>
      <point x="753" y="-17" type="line"/>
      <point x="1080" y="-5"/>
      <point x="1271" y="182"/>
      <point x="1271" y="484" type="curve" smooth="yes"/>
      <point x="1271" y="1336" type="line"/>
      <point x="983" y="1336" type="line"/>
      <point x="983" y="505" type="line" smooth="yes"/>
      <point x="983" y="310"/>
      <point x="902" y="213"/>
      <point x="720" y="213" type="curve" smooth="yes"/>
      <point x="544" y="213"/>
      <point x="457" y="309"/>
      <point x="457" y="504" type="curve" smooth="yes"/>
      <point x="457" y="1336" type="line"/>
      <point x="169" y="1336" type="line"/>
      <point x="169" y="485" type="line" smooth="yes"/>
      <point x="169" y="192"/>
      <point x="344" y="9"/>
      <point x="648" y="-15" type="curve"/>
      <point x="579" y="-58"/>
      <point x="492" y="-130"/>
      <point x="492" y="-243" type="curve" smooth="yes"/>
    </contour>
  </outline>
</glyph>
<glyph name="Ycircumflex" format="1">
  <advance width="1231"/>
  <unicode hex="0176"/>
  <outline>
    <contour>
      <point x="482" y="0" type="line"/>
      <point x="764" y="0" type="line"/>
      <point x="764" y="499" type="line"/>
      <point x="1208" y="1336" type="line"/>
      <point x="910" y="1336" type="line"/>
      <point x="623" y="749" type="line"/>
      <point x="342" y="1336" type="line"/>
      <point x="39" y="1336" type="line"/>
      <point x="482" y="495" type="line"/>
    </contour>
    <contour>
      <point x="290" y="1479" type="line"/>
      <point x="471" y="1479" type="line"/>
      <point x="613" y="1673" type="line"/>
      <point x="771" y="1479" type="line"/>
      <point x="957" y="1479" type="line"/>
      <point x="721" y="1847" type="line"/>
      <point x="525" y="1847" type="line"/>
    </contour>
  </outline>
</glyph>
<glyph name="Ydieresis" format="1">
  <advance width="1231"/>
  <unicode hex="0178"/>
  <outline>
    <contour>
      <point x="482" y="0" type="line"/>
      <point x="764" y="0" type="line"/>
      <point x="764" y="499" type="line"/>
      <point x="1208" y="1336" type="line"/>
      <point x="910" y="1336" type="line"/>
      <point x="623" y="749" type="line"/>
      <point x="342" y="1336" type="line"/>
      <point x="39" y="1336" type="line"/>
      <point x="482" y="495" type="line"/>
    </contour>
    <contour>
      <point x="339" y="1479" type="line"/>
      <point x="533" y="1479" type="line"/>
      <point x="533" y="1724" type="line"/>
      <point x="339" y="1724" type="line"/>
    </contour>
    <contour>
      <point x="715" y="1479" type="line"/>
      <point x="908" y="1479" type="line"/>
      <point x="908" y="1724" type="line"/>
      <point x="715" y="1724" type="line"/>
    </contour>
  </outline>
</glyph>
<glyph name="Zacute" format="1">
  <advance width="1202"/>
  <unicode hex="0179"/>
  <outline>
    <contour>
      <point x="133" y="0" type="line"/>
      <point x="1071" y="0" type="line"/>
      <point x="1071" y="216" type="line"/>
      <point x="503" y="216" type="line"/>
      <point x="1062" y="1150" type="line"/>
      <point x="1062" y="1336" type="line"/>
      <point x="140" y="1336" type="line"/>
      <point x="140" y="1126" type="line"/>
      <point x="722" y="1126" type="line"/>
      <point x="133" y="172" type="line"/>
    </contour>
    <contour>
      <point x="524" y="1479" type="line"/>
      <point x="680" y="1479" type="line"/>
      <point x="976" y="1840" type="line"/>
      <point x="684" y="1840" type="line"/>
    </contour>
  </outline>
</glyph>
<glyph name="Zdotaccent" format="1">
  <advance width="1202"/>
  <unicode hex="017B"/>
  <outline>
    <contour>
      <point x="133" y="0" type="line"/>
      <point x="1071" y="0" type="line"/>
      <point x="1071" y="216" type="line"/>
      <point x="503" y="216" type="line"/>
      <point x="1062" y="1150" type="line"/>
      <point x="1062" y="1336" type="line"/>
      <point x="140" y="1336" type="line"/>
      <point x="140" y="1126" type="line"/>
      <point x="722" y="1126" type="line"/>
      <point x="133" y="172" type="line"/>
    </contour>
    <contour>
      <point x="503" y="1479" type="line"/>
      <point x="701" y="1479" type="line"/>
      <point x="701" y="1691" type="line"/>
      <point x="503" y="1691" type="line"/>
    </contour>
  </outline>
</glyph>
<glyph name="Ohorn" format="1">
  <advance width="1566"/>
  <unicode hex="01A0"/>
  <outline>
    <contour>
      <point x="1531" y="1034"/>
      <point x="1559" y="1031"/>
      <point x="1586" y="1031" type="curve" smooth="yes"/>
      <point x="1683" y="1031"/>
      <point x="1730" y="1119"/>
      <point x="1730" y="1215" type="curve" smooth="yes"/>
      <point x="1730" y="1259"/>
      <point x="1719" y="1307"/>
      <point x="1701" y="1351" type="curve"/>
      <point x="1700" y="1357" type="line"/>
      <point x="1575" y="1357" type="line"/>
      <point x="1580" y="1344" type="line" smooth="yes"/>
      <point x="1593" y="1308"/>
      <point x="1606" y="1257"/>
      <point x="1606" y="1216" type="curve" smooth="yes"/>
      <point x="1606" y="1169"/>
      <point x="1592" y="1138"/>
      <point x="1548" y="1138" type="curve" smooth="yes"/>
      <point x="1534" y="1138"/>
      <point x="1518" y="1139"/>
      <point x="1504" y="1139" type="curve" smooth="yes"/>
      <point x="1495" y="1139" type="line"/>
      <point x="1495" y="1038" type="line"/>
      <point x="1503" y="1037" type="line" smooth="yes"/>
    </contour>
    <contour>
      <point x="1146" y="393"/>
      <point x="1012" y="210"/>
      <point x="784" y="210" type="curve" smooth="yes"/>
      <point x="556" y="210"/>
      <point x="420" y="393"/>
      <point x="420" y="667" type="curve" smooth="yes"/>
      <point x="420" y="946"/>
      <point x="557" y="1127"/>
      <point x="784" y="1127" type="curve" smooth="yes"/>
      <point x="1011" y="1127"/>
      <point x="1146" y="946"/>
      <point x="1146" y="667" type="curve" smooth="yes"/>
    </contour>
    <contour>
      <point x="132" y="237"/>
      <point x="391" y="-18"/>
      <point x="784" y="-18" type="curve" smooth="yes"/>
      <point x="1177" y="-18"/>
      <point x="1434" y="237"/>
      <point x="1434" y="669" type="curve" smooth="yes"/>
      <point x="1434" y="1105"/>
      <point x="1175" y="1357"/>
      <point x="784" y="1357" type="curve" smooth="yes"/>
      <point x="393" y="1357"/>
      <point x="132" y="1105"/>
      <point x="132" y="669" type="curve" smooth="yes"/>
    </contour>
  </outline>
</glyph>
<glyph name="Uhorn" format="1">
  <advance width="1440"/>
  <unicode hex="01AF"/>
  <outline>
    <contour>
      <point x="1368" y="1034"/>
      <point x="1396" y="1031"/>
      <point x="1423" y="1031" type="curve" smooth="yes"/>
      <point x="1520" y="1031"/>
      <point x="1567" y="1119"/>
      <point x="1567" y="1215" type="curve" smooth="yes"/>
      <point x="1567" y="1259"/>
      <point x="1556" y="1307"/>
      <point x="1538" y="1351" type="curve"/>
      <point x="1537" y="1357" type="line"/>
      <point x="1412" y="1357" type="line"/>
      <point x="1417" y="1344" type="line" smooth="yes"/>
      <point x="1430" y="1308"/>
      <point x="1443" y="1257"/>
      <point x="1443" y="1216" type="curve" smooth="yes"/>
      <point x="1443" y="1169"/>
      <point x="1429" y="1138"/>
      <point x="1385" y="1138" type="curve" smooth="yes"/>
      <point x="1371" y="1138"/>
      <point x="1355" y="1139"/>
      <point x="1341" y="1139" type="curve" smooth="yes"/>
      <point x="1332" y="1139" type="line"/>
      <point x="1332" y="1038" type="line"/>
      <point x="1340" y="1037" type="line" smooth="yes"/>
    </contour>
    <contour>
      <point x="169" y="170"/>
      <point x="372" y="-18"/>
      <point x="720" y="-18" type="curve" smooth="yes"/>
      <point x="1067" y="-18"/>
      <point x="1271" y="172"/>
      <point x="1271" y="484" type="curve" smooth="yes"/>
      <point x="1271" y="1336" type="line"/>
      <point x="983" y="1336" type="line"/>
      <point x="983" y="505" type="line" smooth="yes"/>
      <point x="983" y="310"/>
      <point x="902" y="213"/>
      <point x="720" y="213" type="curve" smooth="yes"/>
      <point x="544" y="213"/>
      <point x="457" y="309"/>
      <point x="457" y="504" type="curve" smooth="yes"/>
      <point x="457" y="1336" type="line"/>
      <point x="169" y="1336" type="line"/>
      <point x="169" y="485" type="line" smooth="yes"/>
    </contour>
  </outline>
</glyph>
<glyph name="uni01C4" format="1">
  <advance width="2688"/>
  <unicode hex="01C4"/>
  <outline>
    <contour>
      <point x="1619" y="0" type="line"/>
      <point x="2557" y="0" type="line"/>
      <point x="2557" y="216" type="line"/>
      <point x="1989" y="216" type="line"/>
      <point x="2548" y="1150" type="line"/>
      <point x="2548" y="1336" type="line"/>
      <point x="1626" y="1336" type="line"/>
      <point x="1626" y="1126" type="line"/>
      <point x="2208" y="1126" type="line"/>
      <point x="1619" y="172" type="line"/>
    </contour>
    <contour>
      <point x="1993" y="1479" type="line"/>
      <point x="2183" y="1479" type="line"/>
      <point x="2431" y="1816" type="line"/>
      <point x="2226" y="1816" type="line"/>
      <point x="2076" y="1645" type="line"/>
      <point x="1946" y="1816" type="line"/>
      <point x="1745" y="1816" type="line"/>
    </contour>
    <contour>
      <point x="490" y="216" type="line"/>
      <point x="490" y="1126" type="line"/>
      <point x="611" y="1126" type="line" smooth="yes"/>
      <point x="919" y="1126"/>
      <point x="1067" y="992"/>
      <point x="1067" y="671" type="curve" smooth="yes"/>
      <point x="1067" y="377"/>
      <point x="927" y="216"/>
      <point x="637" y="216" type="curve" smooth="yes"/>
    </contour>
    <contour>
      <point x="202" y="0" type="line"/>
      <point x="623" y="0" type="line" smooth="yes"/>
      <point x="1066" y="0"/>
      <point x="1354" y="238"/>
      <point x="1354" y="676" type="curve" smooth="yes"/>
      <point x="1354" y="1130"/>
      <point x="1049" y="1336"/>
      <point x="600" y="1336" type="curve" smooth="yes"/>
      <point x="202" y="1336" type="line"/>
    </contour>
  </outline>
</glyph>
<glyph name="uni01C8" format="1">
  <advance width="1732"/>
  <unicode hex="01C8"/>
  <outline>
    <contour>
      <point x="1133" y="-379" type="line"/>
      <point x="1193" y="-379" type="line" smooth="yes"/>
      <point x="1511" y="-379"/>
      <point x="1573" y="-240"/>
      <point x="1573" y="40" type="curve" smooth="yes"/>
      <point x="1573" y="1017" type="line"/>
      <point x="1320" y="1017" type="line"/>
      <point x="1320" y="-4" type="line" smooth="yes"/>
      <point x="1320" y="-149"/>
      <point x="1307" y="-187"/>
      <point x="1166" y="-187" type="curve" smooth="yes"/>
      <point x="1104" y="-187" type="line"/>
    </contour>
    <contour>
      <point x="202" y="0" type="line"/>
      <point x="1009" y="0" type="line"/>
      <point x="1023" y="216" type="line"/>
      <point x="490" y="216" type="line"/>
      <point x="490" y="1336" type="line"/>
      <point x="202" y="1336" type="line"/>
    </contour>
    <contour>
      <point x="1320" y="1157" type="line"/>
      <point x="1573" y="1157" type="line"/>
      <point x="1573" y="1375" type="line"/>
      <point x="1320" y="1375" type="line"/>
    </contour>
  </outline>
</glyph>
<glyph name="uni01C9" format="1">
  <advance width="1358"/>
  <unicode hex="01C9"/>
  <outline>
    <contour>
      <point x="159" y="124"/>
      <point x="222" y="-13"/>
      <point x="499" y="-13" type="curve" smooth="yes"/>
      <point x="574" y="-13"/>
      <point x="642" y="4"/>
      <point x="649" y="7" type="curve"/>
      <point x="618" y="187" type="line"/>
      <point x="597" y="185"/>
      <point x="564" y="178"/>
      <point x="535" y="178" type="curve" smooth="yes"/>
      <point x="450" y="178"/>
      <point x="415" y="205"/>
      <point x="415" y="404" type="curve" smooth="yes"/>
      <point x="415" y="1393" type="line"/>
      <point x="159" y="1376" type="line"/>
      <point x="159" y="401" type="line" smooth="yes"/>
    </contour>
    <contour>
      <point x="759" y="-379" type="line"/>
      <point x="819" y="-379" type="line" smooth="yes"/>
      <point x="1137" y="-379"/>
      <point x="1199" y="-240"/>
      <point x="1199" y="40" type="curve" smooth="yes"/>
      <point x="1199" y="1017" type="line"/>
      <point x="946" y="1017" type="line"/>
      <point x="946" y="-4" type="line" smooth="yes"/>
      <point x="946" y="-149"/>
      <point x="933" y="-187"/>
      <point x="792" y="-187" type="curve" smooth="yes"/>
      <point x="730" y="-187" type="line"/>
    </contour>
    <contour>
      <point x="946" y="1157" type="line"/>
      <point x="1199" y="1157" type="line"/>
      <point x="1199" y="1375" type="line"/>
      <point x="946" y="1375" type="line"/>
    </contour>
  </outline>
</glyph>
<glyph name="uni01CF" format="1">
  <advance width="692"/>
  <unicode hex="01CF"/>
  <outline>
    <contour>
      <point x="251" y="1479" type="line"/>
      <point x="441" y="1479" type="line"/>
      <point x="689" y="1816" type="line"/>
      <point x="484" y="1816" type="line"/>
      <point x="334" y="1645" type="line"/>
      <point x="204" y="1816" type="line"/>
      <point x="3" y="1816" type="line"/>
    </contour>
    <contour>
      <point x="202" y="0" type="line"/>
      <point x="490" y="0" type="line"/>
      <point x="490" y="1336" type="line"/>
      <point x="202" y="1336" type="line"/>
    </contour>
  </outline>
</glyph>
<glyph name="uni01D4" format="1">
  <advance width="1198"/>
  <unicode hex="01D4"/>
  <outline>
    <contour>
      <point x="143" y="126"/>
      <point x="256" y="-24"/>
      <point x="491" y="-24" type="curve" smooth="yes"/>
      <point x="632" y="-24"/>
      <point x="735" y="40"/>
      <point x="811" y="125" type="curve"/>
      <point x="835" y="0" type="line"/>
      <point x="1039" y="0" type="line"/>
      <point x="1039" y="1016" type="line"/>
      <point x="783" y="1016" type="line"/>
      <point x="783" y="520" type="line" smooth="yes"/>
      <point x="783" y="305"/>
      <point x="753" y="172"/>
      <point x="556" y="172" type="curve" smooth="yes"/>
      <point x="430" y="172"/>
      <point x="399" y="253"/>
      <point x="399" y="404" type="curve" smooth="yes"/>
      <point x="399" y="1016" type="line"/>
      <point x="143" y="1016" type="line"/>
      <point x="143" y="377" type="line" smooth="yes"/>
    </contour>
    <contour>
      <point x="496" y="1163" type="line"/>
      <point x="686" y="1163" type="line"/>
      <point x="934" y="1500" type="line"/>
      <point x="729" y="1500" type="line"/>
      <point x="579" y="1329" type="line"/>
      <point x="449" y="1500" type="line"/>
      <point x="248" y="1500" type="line"/>
    </contour>
  </outline>
</glyph>
<glyph name="uni01E2" format="1">
  <advance width="1781"/>
  <unicode hex="01E2"/>
  <outline>
    <contour>
      <point x="23" y="0" type="line"/>
      <point x="316" y="0" type="line"/>
      <point x="495" y="334" type="line"/>
      <point x="944" y="334" type="line"/>
      <point x="971" y="0" type="line"/>
      <point x="1709" y="0" type="line"/>
      <point x="1723" y="194" type="line"/>
      <point x="1221" y="194" type="line"/>
      <point x="1188" y="592" type="line"/>
      <point x="1655" y="592" type="line"/>
      <point x="1655" y="785" type="line"/>
      <point x="1168" y="785" type="line"/>
      <point x="1141" y="1161" type="line"/>
      <point x="1676" y="1161" type="line"/>
      <point x="1692" y="1355" type="line"/>
      <point x="781" y="1355" type="line"/>
    </contour>
    <contour>
      <point x="548" y="1479" type="line"/>
      <point x="1198" y="1479" type="line"/>
      <point x="1198" y="1638" type="line"/>
      <point x="548" y="1638" type="line"/>
    </contour>
    <contour>
      <point x="589" y="538" type="line"/>
      <point x="887" y="1087" type="line"/>
      <point x="928" y="538" type="line"/>
    </contour>
  </outline>
</glyph>
<glyph name="uni01F8" format="1">
  <advance width="1541"/>
  <unicode hex="01F8"/>
  <outline>
    <contour>
      <point x="202" y="0" type="line"/>
      <point x="479" y="0" type="line"/>
      <point x="479" y="409" type="line" smooth="yes"/>
      <point x="479" y="430"/>
      <point x="451" y="961"/>
      <point x="451" y="961" type="curve"/>
      <point x="1036" y="0" type="line"/>
      <point x="1339" y="0" type="line"/>
      <point x="1339" y="1336" type="line"/>
      <point x="1068" y="1336" type="line"/>
      <point x="1068" y="795" type="line" smooth="yes"/>
      <point x="1068" y="787"/>
      <point x="1087" y="350"/>
      <point x="1087" y="350" type="curve"/>
      <point x="494" y="1336" type="line"/>
      <point x="202" y="1336" type="line"/>
    </contour>
    <contour>
      <point x="688" y="1479" type="line"/>
      <point x="853" y="1479" type="line"/>
      <point x="676" y="1840" type="line"/>
      <point x="377" y="1840" type="line"/>
    </contour>
  </outline>
</glyph>
<glyph name="uni0202" format="1">
  <advance width="1427"/>
  <unicode hex="0202"/>
  <outline>
    <contour>
      <point x="90" y="0" type="line"/>
      <point x="378" y="0" type="line"/>
      <point x="498" y="365" type="line"/>
      <point x="924" y="365" type="line"/>
      <point x="1051" y="0" type="line"/>
      <point x="1337" y="0" type="line"/>
      <point x="883" y="1336" type="line"/>
      <point x="545" y="1336" type="line"/>
    </contour>
    <contour>
      <point x="582" y="1701"/>
      <point x="444" y="1629"/>
      <point x="444" y="1479" type="curve"/>
      <point x="612" y="1479" type="line"/>
      <point x="612" y="1537"/>
      <point x="661" y="1564"/>
      <point x="712" y="1564" type="curve" smooth="yes"/>
      <point x="764" y="1564"/>
      <point x="814" y="1538"/>
      <point x="814" y="1479" type="curve"/>
      <point x="982" y="1479" type="line"/>
      <point x="982" y="1630"/>
      <point x="848" y="1701"/>
      <point x="716" y="1701" type="curve" smooth="yes"/>
    </contour>
    <contour>
      <point x="556" y="555" type="line"/>
      <point x="718" y="1093" type="line"/>
      <point x="868" y="555" type="line"/>
    </contour>
  </outline>
</glyph>
<glyph name="uni0204" format="1">
  <advance width="1164"/>
  <unicode hex="0204"/>
  <outline>
    <contour>
      <point x="202" y="0" type="line"/>
      <point x="1025" y="0" type="line"/>
      <point x="1042" y="216" type="line"/>
      <point x="490" y="216" type="line"/>
      <point x="490" y="595" type="line"/>
      <point x="994" y="595" type="line"/>
      <point x="994" y="805" type="line"/>
      <point x="490" y="805" type="line"/>
      <point x="490" y="1126" type="line"/>
      <point x="1021" y="1126" type="line"/>
      <point x="1032" y="1336" type="line"/>
      <point x="202" y="1336" type="line"/>
    </contour>
    <contour>
      <point x="362" y="1479" type="line"/>
      <point x="534" y="1479" type="line"/>
      <point x="340" y="1801" type="line"/>
      <point x="68" y="1801" type="line"/>
    </contour>
    <contour>
      <point x="690" y="1479" type="line"/>
      <point x="882" y="1479" type="line"/>
      <point x="666" y="1801" type="line"/>
      <point x="404" y="1801" type="line"/>
    </contour>
  </outline>
</glyph>
<glyph name="uni0209" format="1">
  <advance width="480"/>
  <unicode hex="0209"/>
  <outline>
    <contour>
      <point x="-27" y="1163" type="line"/>
      <point x="145" y="1163" type="line"/>
      <point x="-50" y="1485" type="line"/>
      <point x="-322" y="1485" type="line"/>
    </contour>
    <contour>
      <point x="109" y="0" type="line"/>
      <point x="356" y="0" type="line"/>
      <point x="356" y="1016" type="line"/>
      <point x="109" y="1016" type="line"/>
    </contour>
    <contour>
      <point x="301" y="1163" type="line"/>
      <point x="492" y="1163" type="line"/>
      <point x="276" y="1485" type="line"/>
      <point x="14" y="1485" type="line"/>
    </contour>
  </outline>
</glyph>
<glyph name="Scommaaccent" format="1">
  <advance width="1182"/>
  <unicode hex="0218"/>
  <outline>
    <contour>
      <point x="241" y="21"/>
      <point x="394" y="-18"/>
      <point x="570" y="-18" type="curve" smooth="yes"/>
      <point x="859" y="-18"/>
      <point x="1063" y="119"/>
      <point x="1063" y="381" type="curve" smooth="yes"/>
      <point x="1063" y="598"/>
      <point x="958" y="705"/>
      <point x="723" y="783" type="curve"/>
      <point x="515" y="853" type="line" smooth="yes"/>
      <point x="454" y="873"/>
      <point x="417" y="915"/>
      <point x="417" y="980" type="curve" smooth="yes"/>
      <point x="417" y="1087"/>
      <point x="491" y="1128"/>
      <point x="624" y="1128" type="curve" smooth="yes"/>
      <point x="743" y="1128"/>
      <point x="870" y="1075"/>
      <point x="962" y="1035" type="curve"/>
      <point x="1044" y="1251" type="line"/>
      <point x="923" y="1320"/>
      <point x="773" y="1358"/>
      <point x="613" y="1358" type="curve" smooth="yes"/>
      <point x="345" y="1358"/>
      <point x="148" y="1227"/>
      <point x="148" y="975" type="curve" smooth="yes"/>
      <point x="148" y="785"/>
      <point x="252" y="670"/>
      <point x="414" y="617" type="curve" smooth="yes"/>
      <point x="638" y="544" type="line" smooth="yes"/>
      <point x="735" y="512"/>
      <point x="790" y="464"/>
      <point x="790" y="385" type="curve" smooth="yes"/>
      <point x="790" y="262"/>
      <point x="721" y="210"/>
      <point x="580" y="210" type="curve" smooth="yes"/>
      <point x="448" y="210"/>
      <point x="285" y="253"/>
      <point x="208" y="303" type="curve"/>
      <point x="125" y="87" type="line"/>
    </contour>
    <contour>
      <point x="432" y="-619" type="line"/>
      <point x="600" y="-619" type="line"/>
      <point x="756" y="-140" type="line"/>
      <point x="534" y="-140" type="line"/>
    </contour>
  </outline>
</glyph>
<glyph name="uni021A" format="1">
  <advance width="1164"/>
  <unicode hex="021A"/>
  <outline>
    <contour>
      <point x="440" y="0" type="line"/>
      <point x="728" y="0" type="line"/>
      <point x="728" y="1126" type="line"/>
      <point x="1099" y="1126" type="line"/>
      <point x="1099" y="1336" type="line"/>
      <point x="65" y="1336" type="line"/>
      <point x="65" y="1126" type="line"/>
      <point x="440" y="1126" type="line"/>
    </contour>
    <contour>
      <point x="420" y="-601" type="line"/>
      <point x="588" y="-601" type="line"/>
      <point x="744" y="-122" type="line"/>
      <point x="522" y="-122" type="line"/>
    </contour>
  </outline>
</glyph>
<glyph name="uni0228" format="1">
  <advance width="1164"/>
  <unicode hex="0228"/>
  <outline>
    <contour>
      <point x="432" y="-345" type="line"/>
      <point x="642" y="-345" type="line"/>
      <point x="694" y="0" type="line"/>
      <point x="1025" y="0" type="line"/>
      <point x="1042" y="216" type="line"/>
      <point x="490" y="216" type="line"/>
      <point x="490" y="595" type="line"/>
      <point x="994" y="595" type="line"/>
      <point x="994" y="805" type="line"/>
      <point x="490" y="805" type="line"/>
      <point x="490" y="1126" type="line"/>
      <point x="1021" y="1126" type="line"/>
      <point x="1032" y="1336" type="line"/>
      <point x="202" y="1336" type="line"/>
      <point x="202" y="0" type="line"/>
      <point x="545" y="0" type="line"/>
    </contour>
  </outline>
</glyph>
<glyph name="uni0237" format="1">
  <advance width="461"/>
  <unicode hex="0237"/>
  <outline>
    <contour>
      <point x="-39" y="-322" type="line"/>
      <point x="6" y="-322" type="line" smooth="yes"/>
      <point x="310" y="-322"/>
      <point x="379" y="-183"/>
      <point x="379" y="99" type="curve" smooth="yes"/>
      <point x="379" y="988" type="line"/>
      <point x="148" y="988" type="line"/>
      <point x="148" y="61" type="line" smooth="yes"/>
      <point x="148" y="-88"/>
      <point x="137" y="-127"/>
      <point x="-3" y="-127" type="curve" smooth="yes"/>
      <point x="-44" y="-127" type="line"/>
    </contour>
    <contour>
      <point x="231" y="0" type="move" name="top"/>
    </contour>
  </outline>
</glyph>
<glyph name="uni02BC" format="1">
  <advance width="334"/>
  <unicode hex="02BC"/>
  <outline>
    <contour>
      <point x="91" y="877" type="line"/>
      <point x="236" y="877" type="line"/>
      <point x="287" y="1357" type="line"/>
      <point x="85" y="1357" type="line"/>
    </contour>
  </outline>
</glyph>
<glyph name="dotaccent" format="1">
  <advance width="473"/>
  <unicode hex="02D9"/>
  <outline>
    <contour>
      <point x="135" y="1129" type="line"/>
      <point x="333" y="1129" type="line"/>
      <point x="333" y="1342" type="line"/>
      <point x="135" y="1342" type="line"/>
    </contour>
    <contour>
      <point x="234" y="0" type="move" smooth="yes"/>
    </contour>
  </outline>
</glyph>
<glyph name="ring" format="1">
  <advance width="581"/>
  <unicode hex="02DA"/>
  <outline>
    <contour>
      <point x="297" y="1140" type="curve" smooth="yes"/>
      <point x="240" y="1140"/>
      <point x="212" y="1183"/>
      <point x="212" y="1235" type="curve" smooth="yes"/>
      <point x="212" y="1283"/>
      <point x="244" y="1330"/>
      <point x="297" y="1330" type="curve" smooth="yes"/>
      <point x="352" y="1330"/>
      <point x="383" y="1284"/>
      <point x="383" y="1235" type="curve" smooth="yes"/>
      <point x="383" y="1184"/>
      <point x="352" y="1140"/>
    </contour>
    <contour>
      <point x="297" y="1039" type="curve" smooth="yes"/>
      <point x="426" y="1039"/>
      <point x="503" y="1132"/>
      <point x="503" y="1235" type="curve" smooth="yes"/>
      <point x="503" y="1337"/>
      <point x="428" y="1430"/>
      <point x="297" y="1430" type="curve" smooth="yes"/>
      <point x="167" y="1430"/>
      <point x="91" y="1338"/>
      <point x="91" y="1235" type="curve" smooth="yes"/>
      <point x="91" y="1132"/>
      <point x="168" y="1039"/>
    </contour>
    <contour>
      <point x="297" y="0" type="move" smooth="yes"/>
    </contour>
  </outline>
</glyph>
<glyph name="ogonek" format="1">
  <advance width="504"/>
  <unicode hex="02DB"/>
  <outline>
    <contour>
      <point x="95" y="-286"/>
      <point x="186" y="-340"/>
      <point x="290" y="-340" type="curve" smooth="yes"/>
      <point x="349" y="-340"/>
      <point x="410" y="-325"/>
      <point x="465" y="-304" type="curve"/>
      <point x="465" y="-304"/>
      <point x="458" y="-163"/>
      <point x="457" y="-163" type="curve" smooth="yes"/>
      <point x="445" y="-168"/>
      <point x="386" y="-194"/>
      <point x="334" y="-194" type="curve" smooth="yes"/>
      <point x="296" y="-194"/>
      <point x="270" y="-159"/>
      <point x="270" y="-125" type="curve" smooth="yes"/>
      <point x="270" y="-70"/>
      <point x="302" y="-6"/>
      <point x="376" y="51" type="curve"/>
      <point x="269" y="67" type="line"/>
      <point x="198" y="26"/>
      <point x="95" y="-49"/>
      <point x="95" y="-172" type="curve" smooth="yes"/>
    </contour>
    <contour>
      <point x="465" y="10" type="move" name="_ogonek"/>
    </contour>
  </outline>
</glyph>
<glyph name="tilde" format="1">
  <advance width="690"/>
  <unicode hex="02DC"/>
  <outline>
    <contour>
      <point x="161" y="1106" type="line"/>
      <point x="176" y="1172"/>
      <point x="200" y="1194"/>
      <point x="231" y="1194" type="curve" smooth="yes"/>
      <point x="292" y="1194"/>
      <point x="383" y="1106"/>
      <point x="488" y="1106" type="curve"/>
      <point x="624" y="1106"/>
      <point x="666" y="1242"/>
      <point x="666" y="1345" type="curve"/>
      <point x="540" y="1345" type="line"/>
      <point x="527" y="1289"/>
      <point x="509" y="1271"/>
      <point x="484" y="1271" type="curve" smooth="yes"/>
      <point x="433" y="1271"/>
      <point x="353" y="1345"/>
      <point x="227" y="1345" type="curve" smooth="yes"/>
      <point x="79" y="1345"/>
      <point x="35" y="1216"/>
      <point x="35" y="1106" type="curve"/>
    </contour>
  </outline>
</glyph>
<glyph name="hungarumlaut" format="1">
  <advance width="867"/>
  <unicode hex="02DD"/>
  <outline>
    <contour>
      <point x="123" y="1046" type="line"/>
      <point x="266" y="1046" type="line"/>
      <point x="581" y="1386" type="line"/>
      <point x="355" y="1386" type="line"/>
    </contour>
    <contour>
      <point x="397" y="1046" type="line"/>
      <point x="538" y="1046" type="line"/>
      <point x="863" y="1386" type="line"/>
      <point x="634" y="1386" type="line"/>
    </contour>
  </outline>
</glyph>
<glyph name="dblgravecmb" format="1">
  <advance width="866"/>
  <unicode hex="030F"/>
  <outline>
    <contour>
      <point x="282" y="1083" type="line"/>
      <point x="454" y="1083" type="line"/>
      <point x="259" y="1405" type="line"/>
      <point x="-13" y="1405" type="line"/>
    </contour>
    <contour>
      <point x="610" y="1083" type="line"/>
      <point x="801" y="1083" type="line"/>
      <point x="585" y="1405" type="line"/>
      <point x="323" y="1405" type="line"/>
    </contour>
  </outline>
</glyph>
<glyph name="uni0311" format="1">
  <advance width="625"/>
  <unicode hex="0311"/>
  <outline>
    <contour>
      <point x="49" y="1122" type="curve"/>
      <point x="217" y="1122" type="line"/>
      <point x="217" y="1180"/>
      <point x="265" y="1207"/>
      <point x="316" y="1207" type="curve" smooth="yes"/>
      <point x="368" y="1207"/>
      <point x="418" y="1181"/>
      <point x="418" y="1122" type="curve"/>
      <point x="587" y="1122" type="line"/>
      <point x="587" y="1273"/>
      <point x="452" y="1344"/>
      <point x="320" y="1344" type="curve" smooth="yes"/>
      <point x="186" y="1344"/>
      <point x="49" y="1272"/>
    </contour>
  </outline>
</glyph>
<glyph name="uni031B" format="1">
  <advance width="516"/>
  <unicode hex="031B"/>
  <outline>
    <contour>
      <point x="191" y="484" type="line"/>
      <point x="208" y="441"/>
      <point x="220" y="396"/>
      <point x="220" y="358" type="curve" smooth="yes"/>
      <point x="220" y="305"/>
      <point x="195" y="266"/>
      <point x="119" y="266" type="curve" smooth="yes"/>
      <point x="111" y="266" type="line"/>
      <point x="111" y="165" type="line"/>
      <point x="129" y="163"/>
      <point x="146" y="162"/>
      <point x="163" y="162" type="curve" smooth="yes"/>
      <point x="298" y="162"/>
      <point x="352" y="220"/>
      <point x="352" y="310" type="curve" smooth="yes"/>
      <point x="352" y="359"/>
      <point x="335" y="419"/>
      <point x="306" y="484" type="curve"/>
    </contour>
  </outline>
</glyph>
<glyph name="commaaccentcomb" format="1">
  <advance width="490"/>
  <unicode hex="0326"/>
  <outline>
    <contour>
      <point x="69" y="-599" type="line"/>
      <point x="237" y="-599" type="line"/>
      <point x="392" y="-120" type="line"/>
      <point x="170" y="-120" type="line"/>
    </contour>
    <contour>
      <point x="230.5" y="0" type="move" name="_bottom"/>
    </contour>
  </outline>
</glyph>
<glyph name="Rho" format="1">
  <advance width="1075"/>
  <unicode hex="03A1"/>
  <outline>
    <contour>
      <point x="128" y="0" type="line"/>
      <point x="416" y="0" type="line"/>
      <point x="416" y="489" type="line"/>
      <point x="483" y="483"/>
      <point x="547" y="482"/>
      <point x="599" y="482" type="curve" smooth="yes"/>
      <point x="988" y="482"/>
      <point x="1120" y="677"/>
      <point x="1120" y="919" type="curve" smooth="yes"/>
      <point x="1120" y="1205"/>
      <point x="898" y="1342"/>
      <point x="599" y="1342" type="curve" smooth="yes"/>
      <point x="128" y="1342" type="line"/>
    </contour>
    <contour>
      <point x="573" y="677" type="curve" smooth="yes"/>
      <point x="527" y="677"/>
      <point x="444" y="677"/>
      <point x="416" y="678" type="curve"/>
      <point x="416" y="1122" type="line"/>
      <point x="600" y="1122" type="line" smooth="yes"/>
      <point x="761" y="1122"/>
      <point x="832" y="1053"/>
      <point x="832" y="911" type="curve" smooth="yes"/>
      <point x="832" y="798"/>
      <point x="818" y="677"/>
    </contour>
  </outline>
</glyph>
<glyph name="Phi" format="1">
  <advance width="1462"/>
  <unicode hex="03A6"/>
  <outline>
    <contour>
      <point x="649" y="0" type="line"/>
      <point x="824" y="0" type="line"/>
      <point x="824" y="154" type="line"/>
      <point x="1197" y="185"/>
      <point x="1394" y="412"/>
      <point x="1394" y="706" type="curve" smooth="yes"/>
      <point x="1394" y="1007"/>
      <point x="1182" y="1215"/>
      <point x="824" y="1244" type="curve"/>
      <point x="824" y="1370" type="line"/>
      <point x="649" y="1370" type="line"/>
      <point x="649" y="1244" type="line"/>
      <point x="290" y="1214"/>
      <point x="84" y="1004"/>
      <point x="84" y="706" type="curve" smooth="yes"/>
      <point x="84" y="411"/>
      <point x="282" y="186"/>
      <point x="649" y="154" type="curve"/>
    </contour>
    <contour>
      <point x="649" y="317" type="line"/>
      <point x="385" y="347"/>
      <point x="271" y="508"/>
      <point x="271" y="706" type="curve" smooth="yes"/>
      <point x="271" y="913"/>
      <point x="398" y="1054"/>
      <point x="649" y="1081" type="curve"/>
    </contour>
    <contour>
      <point x="824" y="317" type="curve"/>
      <point x="824" y="1081" type="line"/>
      <point x="1081" y="1055"/>
      <point x="1206" y="910"/>
      <point x="1206" y="706" type="curve" smooth="yes"/>
      <point x="1206" y="505"/>
      <point x="1087" y="346"/>
    </contour>
  </outline>
</glyph>
<glyph name="omicron" format="1">
  <advance width="1071"/>
  <unicode hex="03BF"/>
  <outline>
    <contour>
      <point x="550" y="178" type="curve" smooth="yes"/>
      <point x="399" y="178"/>
      <point x="324" y="296"/>
      <point x="324" y="511" type="curve" smooth="yes"/>
      <point x="324" y="729"/>
      <point x="400" y="844"/>
      <point x="549" y="844" type="curve" smooth="yes"/>
      <point x="700" y="844"/>
      <point x="774" y="730"/>
      <point x="774" y="512" type="curve" smooth="yes"/>
      <point x="774" y="296"/>
      <point x="700" y="178"/>
    </contour>
    <contour>
      <point x="545" y="-18" type="curve" smooth="yes"/>
      <point x="853" y="-18"/>
      <point x="1027" y="195"/>
      <point x="1027" y="512" type="curve" smooth="yes"/>
      <point x="1027" y="825"/>
      <point x="851" y="1041"/>
      <point x="554" y="1041" type="curve" smooth="yes"/>
      <point x="246" y="1041"/>
      <point x="72" y="833"/>
      <point x="72" y="512" type="curve" smooth="yes"/>
      <point x="72" y="200"/>
      <point x="250" y="-18"/>
    </contour>
    <contour>
      <point x="536" y="0" type="move" smooth="yes"/>
    </contour>
  </outline>
</glyph>
<glyph name="pi" format="1">
  <advance width="1247"/>
  <unicode hex="03C0"/>
  <outline>
    <contour>
      <point x="1023" y="-6" type="curve" smooth="yes"/>
      <point x="1065" y="-6"/>
      <point x="1103" y="-1"/>
      <point x="1143" y="6" type="curve"/>
      <point x="1151" y="7" type="line"/>
      <point x="1151" y="14" type="line" smooth="yes"/>
      <point x="1151" y="16"/>
      <point x="1160" y="160"/>
      <point x="1162" y="203" type="curve"/>
      <point x="1163" y="216" type="line"/>
      <point x="1150" y="213" type="line"/>
      <point x="1121" y="204"/>
      <point x="1087" y="191"/>
      <point x="1060" y="191" type="curve" smooth="yes"/>
      <point x="1013" y="191"/>
      <point x="1007" y="222"/>
      <point x="1007" y="298" type="curve" smooth="yes"/>
      <point x="1007" y="841" type="line"/>
      <point x="1181" y="841" type="line"/>
      <point x="1181" y="1024" type="line"/>
      <point x="381" y="1024" type="line" smooth="yes"/>
      <point x="227" y="1024"/>
      <point x="133" y="1017"/>
      <point x="50" y="954" type="curve"/>
      <point x="45" y="950" type="line"/>
      <point x="71" y="772" type="line"/>
      <point x="83" y="779" type="line"/>
      <point x="146" y="817"/>
      <point x="207" y="839"/>
      <point x="300" y="846" type="curve"/>
      <point x="295" y="740"/>
      <point x="256" y="199"/>
      <point x="167" y="14" type="curve"/>
      <point x="161" y="1" type="line"/>
      <point x="371" y="1" type="line"/>
      <point x="374" y="6" type="line"/>
      <point x="470" y="191"/>
      <point x="502" y="531"/>
      <point x="514" y="825" type="curve"/>
      <point x="808" y="825" type="line"/>
      <point x="805" y="288" type="line" smooth="yes"/>
      <point x="805" y="121"/>
      <point x="844" y="-6"/>
    </contour>
  </outline>
</glyph>
<glyph name="uni0404" format="1">
  <advance width="1226"/>
  <unicode hex="0404"/>
  <outline>
    <contour>
      <point x="724" y="-17" type="curve" smooth="yes"/>
      <point x="866" y="-17"/>
      <point x="1010" y="24"/>
      <point x="1145" y="103" type="curve"/>
      <point x="1152" y="108" type="line"/>
      <point x="1069" y="300" type="line"/>
      <point x="1059" y="293" type="line"/>
      <point x="964" y="229"/>
      <point x="850" y="187"/>
      <point x="741" y="187" type="curve" smooth="yes"/>
      <point x="529" y="187"/>
      <point x="375" y="334"/>
      <point x="340" y="583" type="curve"/>
      <point x="929" y="583" type="line"/>
      <point x="929" y="786" type="line"/>
      <point x="343" y="786" type="line"/>
      <point x="384" y="1008"/>
      <point x="530" y="1160"/>
      <point x="742" y="1160" type="curve" smooth="yes"/>
      <point x="851" y="1160"/>
      <point x="963" y="1117"/>
      <point x="1060" y="1048" type="curve" smooth="yes"/>
      <point x="1070" y="1041" type="line"/>
      <point x="1152" y="1236" type="line"/>
      <point x="1145" y="1240" type="line"/>
      <point x="1018" y="1323"/>
      <point x="872" y="1363"/>
      <point x="729" y="1363" type="curve" smooth="yes"/>
      <point x="371" y="1363"/>
      <point x="83" y="1090"/>
      <point x="83" y="677" type="curve" smooth="yes"/>
      <point x="83" y="265"/>
      <point x="364" y="-17"/>
    </contour>
  </outline>
</glyph>
<glyph name="uni0408" format="1">
  <advance width="556"/>
  <unicode hex="0408"/>
  <outline>
    <contour>
      <point x="5" y="-292"/>
      <point x="37" y="-293"/>
      <point x="67" y="-293" type="curve" smooth="yes"/>
      <point x="383" y="-293"/>
      <point x="512" y="-153"/>
      <point x="512" y="144" type="curve" smooth="yes"/>
      <point x="512" y="1342" type="line"/>
      <point x="224" y="1342" type="line"/>
      <point x="224" y="126" type="line" smooth="yes"/>
      <point x="224" y="-21"/>
      <point x="197" y="-84"/>
      <point x="65" y="-84" type="curve" smooth="yes"/>
      <point x="42" y="-84"/>
      <point x="1" y="-82"/>
      <point x="-38" y="-75" type="curve"/>
      <point x="-26" y="-285" type="line"/>
    </contour>
  </outline>
</glyph>
<glyph name="uni040A" format="1">
  <advance width="2054"/>
  <unicode hex="040A"/>
  <outline>
    <contour>
      <point x="990" y="0" type="line"/>
      <point x="1508" y="0" type="line" smooth="yes"/>
      <point x="1785" y="0"/>
      <point x="2008" y="111"/>
      <point x="2008" y="395" type="curve" smooth="yes"/>
      <point x="2008" y="684"/>
      <point x="1812" y="790"/>
      <point x="1514" y="790" type="curve" smooth="yes"/>
      <point x="1192" y="790" type="line"/>
      <point x="1278" y="700" type="line"/>
      <point x="1278" y="1336" type="line"/>
      <point x="990" y="1336" type="line"/>
      <point x="990" y="715" type="line"/>
      <point x="1064" y="790" type="line"/>
      <point x="364" y="790" type="line"/>
      <point x="444" y="715" type="line"/>
      <point x="444" y="1336" type="line"/>
      <point x="156" y="1336" type="line"/>
      <point x="156" y="0" type="line"/>
      <point x="444" y="0" type="line"/>
      <point x="444" y="656" type="line"/>
      <point x="364" y="578" type="line"/>
      <point x="1070" y="578" type="line"/>
      <point x="990" y="656" type="line"/>
    </contour>
    <contour>
      <point x="1279" y="664" type="line"/>
      <point x="1194" y="578" type="line"/>
      <point x="1497" y="578" type="line" smooth="yes"/>
      <point x="1647" y="578"/>
      <point x="1720" y="533"/>
      <point x="1720" y="398" type="curve" smooth="yes"/>
      <point x="1720" y="259"/>
      <point x="1621" y="216"/>
      <point x="1471" y="216" type="curve" smooth="yes"/>
      <point x="1187" y="216" type="line"/>
      <point x="1279" y="103" type="line"/>
    </contour>
  </outline>
</glyph>
<glyph name="uni040E" format="1">
  <advance width="1141"/>
  <unicode hex="040E"/>
  <outline>
    <contour>
      <point x="294" y="1528"/>
      <point x="410" y="1450"/>
      <point x="562" y="1450" type="curve" smooth="yes"/>
      <point x="715" y="1450"/>
      <point x="832" y="1527"/>
      <point x="832" y="1693" type="curve" smooth="yes"/>
      <point x="832" y="1702" type="line"/>
      <point x="663" y="1702" type="line"/>
      <point x="663" y="1693" type="line" smooth="yes"/>
      <point x="663" y="1632"/>
      <point x="636" y="1608"/>
      <point x="562" y="1608" type="curve" smooth="yes"/>
      <point x="488" y="1608"/>
      <point x="462" y="1632"/>
      <point x="462" y="1693" type="curve" smooth="yes"/>
      <point x="462" y="1702" type="line"/>
      <point x="294" y="1702" type="line"/>
      <point x="294" y="1693" type="line" smooth="yes"/>
    </contour>
  </outline>
</glyph>
<glyph name="uni0411" format="1">
  <advance width="1230"/>
  <unicode hex="0411"/>
  <outline>
    <contour>
      <point x="156" y="0" type="line"/>
      <point x="695" y="0" type="line" smooth="yes"/>
      <point x="972" y="0"/>
      <point x="1195" y="111"/>
      <point x="1195" y="395" type="curve" smooth="yes"/>
      <point x="1195" y="684"/>
      <point x="999" y="791"/>
      <point x="701" y="791" type="curve" smooth="yes"/>
      <point x="344" y="791" type="line"/>
      <point x="444" y="710" type="line"/>
      <point x="444" y="1208" type="line"/>
      <point x="362" y="1126" type="line"/>
      <point x="1049" y="1126" type="line"/>
      <point x="1049" y="1336" type="line"/>
      <point x="156" y="1336" type="line"/>
    </contour>
    <contour>
      <point x="444" y="103" type="line"/>
      <point x="444" y="670" type="line"/>
      <point x="344" y="578" type="line"/>
      <point x="684" y="578" type="line" smooth="yes"/>
      <point x="834" y="578"/>
      <point x="907" y="533"/>
      <point x="907" y="398" type="curve" smooth="yes"/>
      <point x="907" y="259"/>
      <point x="808" y="216"/>
      <point x="658" y="216" type="curve" smooth="yes"/>
      <point x="352" y="216" type="line"/>
    </contour>
  </outline>
</glyph>
<glyph name="uni0412" format="1">
  <advance width="1283"/>
  <unicode hex="0412"/>
  <outline>
    <contour>
      <point x="156" y="0" type="line"/>
      <point x="695" y="0" type="line" smooth="yes"/>
      <point x="996" y="0"/>
      <point x="1193" y="133"/>
      <point x="1193" y="393" type="curve" smooth="yes"/>
      <point x="1193" y="601"/>
      <point x="1059" y="692"/>
      <point x="896" y="738" type="curve"/>
      <point x="896" y="676" type="line"/>
      <point x="1077" y="732"/>
      <point x="1157" y="848"/>
      <point x="1157" y="998" type="curve" smooth="yes"/>
      <point x="1157" y="1252"/>
      <point x="966" y="1336"/>
      <point x="636" y="1336" type="curve" smooth="yes"/>
      <point x="156" y="1336" type="line"/>
    </contour>
    <contour>
      <point x="384" y="216" type="line"/>
      <point x="444" y="153" type="line"/>
      <point x="444" y="673" type="line"/>
      <point x="384" y="599" type="line"/>
      <point x="637" y="599" type="line" smooth="yes"/>
      <point x="822" y="599"/>
      <point x="905" y="553"/>
      <point x="905" y="411" type="curve" smooth="yes"/>
      <point x="905" y="269"/>
      <point x="820" y="216"/>
      <point x="643" y="216" type="curve" smooth="yes"/>
    </contour>
    <contour>
      <point x="384" y="790" type="line"/>
      <point x="444" y="734" type="line"/>
      <point x="444" y="1187" type="line"/>
      <point x="384" y="1126" type="line"/>
      <point x="622" y="1126" type="line" smooth="yes"/>
      <point x="808" y="1126"/>
      <point x="877" y="1086"/>
      <point x="877" y="959" type="curve" smooth="yes"/>
      <point x="877" y="837"/>
      <point x="801" y="790"/>
      <point x="650" y="790" type="curve" smooth="yes"/>
    </contour>
  </outline>
</glyph>
<glyph name="uni0413" format="1">
  <advance width="1096"/>
  <unicode hex="0413"/>
  <outline>
    <contour>
      <point x="156" y="0" type="line"/>
      <point x="444" y="0" type="line"/>
      <point x="444" y="1202" type="line"/>
      <point x="366" y="1122" type="line"/>
      <point x="984" y="1122" type="line"/>
      <point x="1005" y="1336" type="line"/>
      <point x="156" y="1336" type="line"/>
    </contour>
    <contour>
      <point x="688" y="0" type="move" smooth="yes"/>
    </contour>
  </outline>
</glyph>
<glyph name="uni0416" format="1">
  <advance width="2002"/>
  <unicode hex="0416"/>
  <outline>
    <contour>
      <point x="1145" y="664" type="line"/>
      <point x="1081" y="673" type="line"/>
      <point x="1627" y="1336" type="line"/>
      <point x="1959" y="1336" type="line"/>
      <point x="1425" y="686" type="line"/>
      <point x="1425" y="832" type="line"/>
      <point x="1983" y="0" type="line"/>
      <point x="1660" y="0" type="line"/>
      <point x="1221" y="700" type="line"/>
      <point x="1326" y="688" type="line"/>
      <point x="1093" y="463" type="line"/>
      <point x="1145" y="595" type="line"/>
      <point x="1145" y="0" type="line"/>
      <point x="857" y="0" type="line"/>
      <point x="857" y="595" type="line"/>
      <point x="909" y="463" type="line"/>
      <point x="676" y="688" type="line"/>
      <point x="781" y="700" type="line"/>
      <point x="342" y="0" type="line"/>
      <point x="19" y="0" type="line"/>
      <point x="580" y="831" type="line"/>
      <point x="580" y="685" type="line"/>
      <point x="43" y="1336" type="line"/>
      <point x="375" y="1336" type="line"/>
      <point x="921" y="673" type="line"/>
      <point x="857" y="664" type="line"/>
      <point x="857" y="1336" type="line"/>
      <point x="1145" y="1336" type="line"/>
    </contour>
  </outline>
</glyph>
<glyph name="uni0417" format="1">
  <advance width="1097"/>
  <unicode hex="0417"/>
  <outline>
    <contour>
      <point x="559" y="-17" type="curve" smooth="yes"/>
      <point x="896" y="-17"/>
      <point x="1062" y="138"/>
      <point x="1062" y="383" type="curve" smooth="yes"/>
      <point x="1062" y="511"/>
      <point x="988" y="630"/>
      <point x="882" y="688" type="curve"/>
      <point x="971" y="736"/>
      <point x="1030" y="825"/>
      <point x="1030" y="1000" type="curve" smooth="yes"/>
      <point x="1030" y="1209"/>
      <point x="811" y="1365"/>
      <point x="567" y="1365" type="curve" smooth="yes"/>
      <point x="398" y="1365"/>
      <point x="261" y="1328"/>
      <point x="152" y="1238" type="curve"/>
      <point x="145" y="1233" type="line"/>
      <point x="241" y="1056" type="line"/>
      <point x="250" y="1062" type="line"/>
      <point x="323" y="1115"/>
      <point x="417" y="1152"/>
      <point x="561" y="1152" type="curve" smooth="yes"/>
      <point x="702" y="1152"/>
      <point x="789" y="1062"/>
      <point x="791" y="970" type="curve"/>
      <point x="791" y="870"/>
      <point x="697" y="788"/>
      <point x="577" y="788" type="curve" smooth="yes"/>
      <point x="399" y="788" type="line"/>
      <point x="399" y="583" type="line"/>
      <point x="575" y="583" type="line" smooth="yes"/>
      <point x="709" y="583"/>
      <point x="833" y="499"/>
      <point x="833" y="392" type="curve" smooth="yes"/>
      <point x="833" y="273"/>
      <point x="774" y="191"/>
      <point x="561" y="191" type="curve" smooth="yes"/>
      <point x="418" y="191"/>
      <point x="292" y="245"/>
      <point x="212" y="299" type="curve"/>
      <point x="202" y="306" type="line"/>
      <point x="197" y="296" type="line" smooth="yes"/>
      <point x="174" y="250"/>
      <point x="139" y="172"/>
      <point x="114" y="131" type="curve"/>
      <point x="109" y="124" type="line"/>
      <point x="114" y="118" type="line"/>
      <point x="203" y="29"/>
      <point x="385" y="-17"/>
    </contour>
    <contour>
      <point x="549" y="0" type="move" smooth="yes"/>
    </contour>
    <contour>
      <point x="549" y="0" type="move" smooth="yes"/>
    </contour>
  </outline>
</glyph>
<glyph name="uni0418" format="1">
  <advance width="1439"/>
  <unicode hex="0418"/>
  <outline>
    <contour>
      <point x="156" y="0" type="line"/>
      <point x="341" y="0" type="line"/>
      <point x="1097" y="1018" type="line"/>
      <point x="995" y="1052" type="line"/>
      <point x="995" y="0" type="line"/>
      <point x="1283" y="0" type="line"/>
      <point x="1283" y="1335" type="line"/>
      <point x="1027" y="1335" type="line"/>
      <point x="315" y="349" type="line"/>
      <point x="424" y="298" type="line"/>
      <point x="424" y="1335" type="line"/>
      <point x="156" y="1335" type="line"/>
    </contour>
  </outline>
</glyph>
<glyph name="uni0419" format="1">
  <advance width="1295"/>
  <unicode hex="0419"/>
  <outline>
    <contour>
      <point x="110" y="0" type="line"/>
      <point x="335" y="0" type="line"/>
      <point x="969" y="838" type="line"/>
      <point x="969" y="0" type="line"/>
      <point x="1207" y="0" type="line"/>
      <point x="1207" y="1335" type="line"/>
      <point x="979" y="1335" type="line"/>
      <point x="976" y="1329" type="line" smooth="yes"/>
      <point x="969" y="1317"/>
      <point x="958" y="1240"/>
      <point x="956" y="1231" type="curve"/>
      <point x="900" y="1147"/>
      <point x="453" y="570"/>
      <point x="349" y="426" type="curve"/>
      <point x="349" y="1335" type="line"/>
      <point x="110" y="1335" type="line"/>
    </contour>
    <contour>
      <point x="379" y="1506"/>
      <point x="495" y="1428"/>
      <point x="647" y="1428" type="curve" smooth="yes"/>
      <point x="800" y="1428"/>
      <point x="917" y="1505"/>
      <point x="917" y="1671" type="curve"/>
      <point x="748" y="1671" type="line"/>
      <point x="748" y="1610"/>
      <point x="721" y="1586"/>
      <point x="647" y="1586" type="curve" smooth="yes"/>
      <point x="573" y="1586"/>
      <point x="547" y="1610"/>
      <point x="547" y="1671" type="curve"/>
      <point x="379" y="1671" type="line"/>
    </contour>
  </outline>
</glyph>
<glyph name="uni041B" format="1">
  <advance width="1455"/>
  <unicode hex="041B"/>
  <outline>
    <contour>
      <point x="444" y="456" type="line" smooth="yes"/>
      <point x="444" y="141"/>
      <point x="271" y="-24"/>
      <point x="-5" y="-24" type="curve" smooth="yes"/>
      <point x="-115" y="-24" type="line"/>
      <point x="-115" y="205" type="line"/>
      <point x="-44" y="205" type="line" smooth="yes"/>
      <point x="120" y="205"/>
      <point x="156" y="345.003"/>
      <point x="156" y="448" type="curve" smooth="yes"/>
      <point x="156" y="1336" type="line"/>
      <point x="1299" y="1336" type="line"/>
      <point x="1299" y="0" type="line"/>
      <point x="1011" y="0" type="line"/>
      <point x="1011" y="1199.4" type="line"/>
      <point x="1092" y="1121.4" type="line"/>
      <point x="365" y="1121.4" type="line"/>
      <point x="444" y="1199.4" type="line"/>
    </contour>
  </outline>
</glyph>
<glyph name="uni041F" format="1">
  <advance width="1278"/>
  <unicode hex="041F"/>
  <outline>
    <contour>
      <point x="110" y="0" type="line"/>
      <point x="368" y="0" type="line"/>
      <point x="368" y="1141" type="line"/>
      <point x="932" y="1141" type="line"/>
      <point x="932" y="0" type="line"/>
      <point x="1191" y="0" type="line"/>
      <point x="1191" y="1335" type="line"/>
      <point x="110" y="1335" type="line"/>
    </contour>
  </outline>
</glyph>
<glyph name="uni0422" format="1">
  <advance width="997"/>
  <unicode hex="0422"/>
  <outline>
    <contour>
      <point x="416" y="0" type="line"/>
      <point x="704" y="0" type="line"/>
      <point x="704" y="1122" type="line"/>
      <point x="1073" y="1122" type="line"/>
      <point x="1073" y="1342" type="line"/>
      <point x="49" y="1342" type="line"/>
      <point x="49" y="1122" type="line"/>
      <point x="416" y="1122" type="line"/>
    </contour>
  </outline>
</glyph>
<glyph name="uni0425" format="1">
  <advance width="1174"/>
  <unicode hex="0425"/>
  <outline>
    <contour>
      <point x="22" y="0" type="line"/>
      <point x="308" y="0" type="line"/>
      <point x="636" y="508" type="line"/>
      <point x="956" y="0" type="line"/>
      <point x="1258" y="0" type="line"/>
      <point x="800" y="682" type="line"/>
      <point x="1236" y="1342" type="line"/>
      <point x="955" y="1342" type="line"/>
      <point x="648" y="856" type="line"/>
      <point x="349" y="1342" type="line"/>
      <point x="54" y="1342" type="line"/>
      <point x="481" y="687" type="line"/>
    </contour>
  </outline>
</glyph>
<glyph name="uni0426" format="1">
  <advance width="1454"/>
  <unicode hex="0426"/>
  <outline>
    <contour>
      <point x="1140" y="-363" type="line"/>
      <point x="1429" y="-363" type="line"/>
      <point x="1429" y="112" type="line"/>
      <point x="1208" y="112" type="line"/>
      <point x="1299" y="22" type="line"/>
      <point x="1299" y="1335" type="line"/>
      <point x="1011" y="1335" type="line"/>
      <point x="1011" y="73" type="line"/>
      <point x="1128" y="216" type="line"/>
      <point x="316" y="216" type="line"/>
      <point x="444" y="72" type="line"/>
      <point x="444" y="1335" type="line"/>
      <point x="156" y="1335" type="line"/>
      <point x="156" y="0" type="line"/>
      <point x="1235" y="0" type="line"/>
      <point x="1139.24" y="92" type="line"/>
    </contour>
  </outline>
</glyph>
<glyph name="uni0429" format="1">
  <advance width="1670"/>
  <unicode hex="0429"/>
  <outline>
    <contour>
      <point x="1429" y="-303" type="line"/>
      <point x="1658" y="-303" type="line"/>
      <point x="1658" y="112" type="line"/>
      <point x="1530" y="112" type="line"/>
      <point x="1530" y="1335" type="line"/>
      <point x="1272" y="1335" type="line"/>
      <point x="1272" y="194" type="line"/>
      <point x="964" y="194" type="line"/>
      <point x="964" y="1335" type="line"/>
      <point x="707" y="1335" type="line"/>
      <point x="707" y="194" type="line"/>
      <point x="368" y="194" type="line"/>
      <point x="368" y="1335" type="line"/>
      <point x="110" y="1335" type="line"/>
      <point x="110" y="0" type="line"/>
      <point x="1428" y="0" type="line"/>
    </contour>
  </outline>
</glyph>
<glyph name="uni042A" format="1">
  <advance width="1362"/>
  <unicode hex="042A"/>
  <outline>
    <contour>
      <point x="190" y="0" type="line"/>
      <point x="695" y="0" type="line" smooth="yes"/>
      <point x="972" y="0"/>
      <point x="1195" y="111"/>
      <point x="1195" y="395" type="curve" smooth="yes"/>
      <point x="1195" y="684"/>
      <point x="999" y="791"/>
      <point x="701" y="791" type="curve" smooth="yes"/>
      <point x="378" y="791" type="line"/>
      <point x="478" y="710" type="line"/>
      <point x="478.814" y="1335.4" type="line"/>
      <point x="-44" y="1335.4" type="line"/>
      <point x="-45" y="1123.4" type="line"/>
      <point x="285" y="1123.4" type="line"/>
      <point x="190" y="1211.4" type="line"/>
    </contour>
    <contour>
      <point x="478" y="103" type="line"/>
      <point x="478" y="670" type="line"/>
      <point x="378" y="578" type="line"/>
      <point x="684" y="578" type="line" smooth="yes"/>
      <point x="834" y="578"/>
      <point x="907" y="533"/>
      <point x="907" y="398" type="curve" smooth="yes"/>
      <point x="907" y="259"/>
      <point x="808" y="216"/>
      <point x="658" y="216" type="curve" smooth="yes"/>
      <point x="386" y="216" type="line"/>
    </contour>
  </outline>
</glyph>
<glyph name="uni042C" format="1">
  <advance width="1268"/>
  <unicode hex="042C"/>
  <outline>
    <contour>
      <point x="156" y="0" type="line"/>
      <point x="677" y="0" type="line" smooth="yes"/>
      <point x="954" y="0"/>
      <point x="1177" y="111"/>
      <point x="1177" y="395" type="curve" smooth="yes"/>
      <point x="1177" y="684"/>
      <point x="981" y="791"/>
      <point x="683" y="791" type="curve" smooth="yes"/>
      <point x="344" y="791" type="line"/>
      <point x="444" y="710" type="line"/>
      <point x="444.814" y="1335.4" type="line"/>
      <point x="156" y="1334.4" type="line"/>
    </contour>
    <contour>
      <point x="444" y="103" type="line"/>
      <point x="444" y="670" type="line"/>
      <point x="344" y="578" type="line"/>
      <point x="666" y="578" type="line" smooth="yes"/>
      <point x="816" y="578"/>
      <point x="889" y="533"/>
      <point x="889" y="398" type="curve" smooth="yes"/>
      <point x="889" y="259"/>
      <point x="790" y="216"/>
      <point x="640" y="216" type="curve" smooth="yes"/>
      <point x="352" y="216" type="line"/>
    </contour>
  </outline>
</glyph>
<glyph name="afii10067" format="1">
  <advance width="976"/>
  <unicode hex="0432"/>
  <outline>
    <contour>
      <point x="89" y="0" type="line"/>
      <point x="577" y="0" type="line" smooth="yes"/>
      <point x="790" y="0"/>
      <point x="942" y="98"/>
      <point x="942" y="299" type="curve"/>
      <point x="941" y="394"/>
      <point x="886" y="496"/>
      <point x="789" y="532" type="curve"/>
      <point x="874" y="572"/>
      <point x="915" y="649"/>
      <point x="915" y="734" type="curve" smooth="yes"/>
      <point x="915" y="923"/>
      <point x="769" y="1016"/>
      <point x="559" y="1016" type="curve" smooth="yes"/>
      <point x="89" y="1016" type="line"/>
    </contour>
    <contour>
      <point x="336" y="187" type="line"/>
      <point x="336" y="433" type="line"/>
      <point x="585" y="433" type="line" smooth="yes"/>
      <point x="676" y="433"/>
      <point x="721" y="372"/>
      <point x="722" y="311" type="curve"/>
      <point x="722" y="246"/>
      <point x="677" y="187"/>
      <point x="585" y="187" type="curve" smooth="yes"/>
    </contour>
    <contour>
      <point x="336" y="604" type="line"/>
      <point x="336" y="814" type="line"/>
      <point x="577" y="814" type="line" smooth="yes"/>
      <point x="658" y="814"/>
      <point x="694" y="766"/>
      <point x="694" y="711" type="curve" smooth="yes"/>
      <point x="694" y="659"/>
      <point x="656" y="604"/>
      <point x="577" y="604" type="curve" smooth="yes"/>
    </contour>
  </outline>
</glyph>
<glyph name="uni0437" format="1">
  <advance width="874"/>
  <unicode hex="0437"/>
  <outline>
    <contour>
      <point x="147" y="16"/>
      <point x="273" y="-18"/>
      <point x="424" y="-18" type="curve" smooth="yes"/>
      <point x="656" y="-18"/>
      <point x="839" y="68"/>
      <point x="839" y="286" type="curve"/>
      <point x="837" y="386"/>
      <point x="776" y="481"/>
      <point x="687" y="521" type="curve"/>
      <point x="775" y="562"/>
      <point x="813" y="647"/>
      <point x="813" y="736" type="curve" smooth="yes"/>
      <point x="813" y="918"/>
      <point x="635" y="1006"/>
      <point x="410" y="1006" type="curve" smooth="yes"/>
      <point x="291" y="1006"/>
      <point x="144" y="987"/>
      <point x="62" y="928" type="curve"/>
      <point x="120" y="759" type="line"/>
      <point x="174" y="797"/>
      <point x="276" y="823"/>
      <point x="408" y="823" type="curve" smooth="yes"/>
      <point x="539" y="823"/>
      <point x="593" y="782"/>
      <point x="593" y="706" type="curve" smooth="yes"/>
      <point x="593" y="647"/>
      <point x="551" y="596"/>
      <point x="458" y="596" type="curve" smooth="yes"/>
      <point x="253" y="596" type="line"/>
      <point x="253" y="419" type="line"/>
      <point x="458" y="419" type="line" smooth="yes"/>
      <point x="563" y="419"/>
      <point x="620" y="368"/>
      <point x="620" y="305" type="curve" smooth="yes"/>
      <point x="620" y="219"/>
      <point x="570" y="169"/>
      <point x="431" y="169" type="curve" smooth="yes"/>
      <point x="304" y="169"/>
      <point x="183" y="200"/>
      <point x="118" y="243" type="curve"/>
      <point x="67" y="79" type="line"/>
    </contour>
    <contour>
      <point x="437" y="0" type="move" name="top"/>
    </contour>
    <contour>
      <point x="437" y="0" type="move" name="bottom"/>
    </contour>
  </outline>
</glyph>
